<?xml version="1.0" encoding="utf-8"?>
<!-- Generator: Adobe Illustrator 22.0.0, SVG Export Plug-In . SVG Version: 6.00 Build 0)  -->
<svg version="1.1" id="Capa_1" xmlns="http://www.w3.org/2000/svg" xmlns:xlink="http://www.w3.org/1999/xlink" x="0px" y="0px"
	 viewBox="0 0 36.9 36.5" style="enable-background:new 0 0 36.9 36.5;" xml:space="preserve">
<style type="text/css">
	.st0{clip-path:url(#SVGID_2_);}
	.st1{fill:#FEFEFE;}
	.st2{clip-path:url(#SVGID_4_);}
	.st3{fill:none;}
	.st4{fill:#FDFEFE;}
</style>
<g>
	<g>
		<defs>
			<circle id="SVGID_1_" cx="18.5" cy="63.5" r="18.2"/>
		</defs>
		<clipPath id="SVGID_2_">
			<use xlink:href="#SVGID_1_"  style="overflow:visible;"/>
		</clipPath>
		<g class="st0">
			<g>
				<path class="st1" d="M17.9,95.9c-10.4,0-20.8,0-31.1,0c-0.8,0-1.2,0-1.2-1c0-20.3,0-40.6,0-60.9c0-0.9,0.2-1,1.1-1
					c20.9,0,41.7,0,62.6,0c0.9,0,1,0.2,1,1.1c0,20.3,0,40.6,0,60.9c0,0.9-0.2,1-1.1,1C38.8,95.9,28.3,95.9,17.9,95.9z M18.7,87.2
					c12.7,0.1,23.1-10.6,23.5-22.6c0.4-13.7-10.5-24.3-23.4-24.3c-13,0-23.5,10.4-23.5,23.6C-4.8,76.5,5.7,87.2,18.7,87.2z"/>
			</g>
		</g>
	</g>
</g>
<g>
	<g>
		<defs>
			<circle id="SVGID_3_" cx="-28.8" cy="59.9" r="18.2"/>
		</defs>
		<clipPath id="SVGID_4_">
			<use xlink:href="#SVGID_3_"  style="overflow:visible;"/>
		</clipPath>
		<g class="st2">
			<g>
				<path class="st1" d="M-29.2,92c-10.5,0-21,0-31.4,0c-0.9,0-1-0.2-1-1c0-20.2,0-40.4,0-60.6c0-0.9,0.2-1,1-1c21,0,41.9,0,62.9,0
					c0.9,0,1,0.2,1,1c0,20.2,0,40.4,0,60.6c0,0.9-0.2,1-1,1C-8.2,92-18.7,92-29.2,92z M-28.7,83.3c12.5,0.2,23.2-10.5,23.2-22.9
					C-5.5,47.4-15.8,37-28.7,37c-12.6,0-22.7,10.4-23.2,22.5C-52.3,72.3-41.1,83.6-28.7,83.3z"/>
			</g>
		</g>
	</g>
</g>
<circle class="st3" cx="18.5" cy="18.2" r="18.2"/>
<path class="st4" d="M11.7,21.3c0.2,1.4,1.9,1.2,2.4,2.3c0.4-0.5,1-0.2,1.2-0.2c1-0.5,1.5,0.3,2.2,0.5c1.5,0.4,3.1-0.1,3.9-1.5
	c0.7-1.3,0.5-3-0.7-3.9c-0.4-0.3-0.7-0.4-1.4-0.2c-2.8,0.8-5.6,1.4-8.4,2c-0.7,0.2-1.1-0.1-0.7-0.9c1.1-1.9,1.9-4,3.8-5.3
	c2-1.4,3.8-2.9,5.3-4.8c0.2-0.3,0.4-0.6,0.8-0.4c0.4,0.2,0.3,0.6,0.3,0.9c0,0.7-0.3,1.3-0.6,1.9c-0.3,0.6-0.2,1,0.6,1.2
	c4.2,1,6.5,4.1,6.3,8.2c-0.2,3.6-3.2,6.5-7.1,6.9C16.1,28.4,11.2,25.4,11.7,21.3z M15.9,15.3c-1,0.6-1.7,1.1-2.1,2.1
	C15.2,17.5,15.8,16.8,15.9,15.3z"/>
</svg>
