<?xml version="1.0" encoding="utf-8"?>
<!-- Generator: Adobe Illustrator 22.0.0, SVG Export Plug-In . SVG Version: 6.00 Build 0)  -->
<svg version="1.1" id="Capa_1" xmlns="http://www.w3.org/2000/svg" xmlns:xlink="http://www.w3.org/1999/xlink" x="0px" y="0px"
	 viewBox="0 0 36.9 36.5" style="enable-background:new 0 0 36.9 36.5;" xml:space="preserve">
<style type="text/css">
	.st0{clip-path:url(#SVGID_2_);}
	.st1{fill:#FDFEFD;}
	.st2{fill:#E2EEDF;}
	.st3{fill:none;}
	.st4{fill:#FEFEFD;}
</style>
<g>
	<g>
		<defs>
			<circle id="SVGID_1_" cx="-22.9" cy="51.3" r="18.2"/>
		</defs>
		<clipPath id="SVGID_2_">
			<use xlink:href="#SVGID_1_"  style="overflow:visible;"/>
		</clipPath>
		<g class="st0">
			<g>
				<path class="st1" d="M-23.5,83.7c-10.4,0-20.8,0-31.1,0c-0.8,0-1.2,0-1.2-1c0-20.3,0-40.6,0-60.9c0-0.9,0.2-1,1.1-1
					c20.9,0,41.7,0,62.6,0c0.9,0,1,0.2,1,1.1c0,20.3,0,40.6,0,60.9c0,0.9-0.2,1-1.1,1C-2.6,83.7-13,83.7-23.5,83.7z M0.8,51.4
					C0.5,38.7-9.5,27.8-22.7,27.8C-35.4,27.9-45.9,37.9-46.2,51c-0.2,13.3,10.4,23.8,23.4,23.9C-9.8,75,0.5,64.2,0.8,51.4z"/>
				<path class="st2" d="M0.8,51.4C0.5,64.2-9.8,75-22.7,74.9c-13-0.1-23.7-10.6-23.4-23.9c0.2-13.1,10.7-23.1,23.5-23.2
					C-9.5,27.8,0.5,38.7,0.8,51.4z M-4.6,51.4c0-10-8-18-18-18c-10,0-18.1,8-18.1,18c0,10,8.3,18.2,18.2,18.1
					C-12.6,69.3-4.7,61.3-4.6,51.4z"/>
			</g>
		</g>
	</g>
</g>
<circle class="st3" cx="18.4" cy="18.2" r="18.2"/>
<path class="st4" d="M21.2,14.9c2.4,1,4,3.8,3.6,6.1c-0.4,2.1-2,3.7-4,3.8c0.8-0.9,1.1-1.8,0.5-3c-0.6,0.5-0.6,1.5-1.5,1.6
	c-0.4-0.3,0-0.6,0-0.9c0.1-0.7-0.2-1.3-0.8-1.7c-0.6-0.4-1.3-0.4-1.8-0.1c-0.9,0.6-1.6,1.5-1.6,2.5c-0.1,1.6,0.9,2.7,2.2,3.2
	c1,0.3,2,0.1,3,0.3c-1.8,1.4-4.7,1.3-6.6-0.1c-2.2-1.6-3.1-3.7-2.7-6.4c0.1-0.5-0.2-1.6,1-1.3c0.1,0,0.3-0.3,0.4-0.5
	c0.6-1.2,1.6-2.2,2.7-2.9c1.8-1.1,2.5-2.6,2.1-4.6c0-0.2,0-0.3,0-0.7c1.6,1.5,2.2,3,1.9,4.9c-0.1,0.5-0.2,1-0.2,1.4
	c0,0.5,0.3,0.9,0.9,0.9c0.6,0,1-0.4,0.9-1C21.5,15.9,21.3,15.4,21.2,14.9z"/>
</svg>
