<?xml version="1.0" encoding="utf-8"?>
<!-- Generator: Adobe Illustrator 22.0.0, SVG Export Plug-In . SVG Version: 6.00 Build 0)  -->
<svg version="1.1" id="Capa_1" xmlns="http://www.w3.org/2000/svg" xmlns:xlink="http://www.w3.org/1999/xlink" x="0px" y="0px"
	 viewBox="0 0 36.9 36.5" style="enable-background:new 0 0 36.9 36.5;" xml:space="preserve">
<style type="text/css">
	.st0{clip-path:url(#SVGID_2_);}
	.st1{fill:#FDFEFD;}
	.st2{clip-path:url(#SVGID_4_);}
	.st3{fill:#FEFDFD;}
</style>
<g>
	<g>
		<defs>
			<circle id="SVGID_1_" cx="65.1" cy="18.1" r="18.2"/>
		</defs>
		<clipPath id="SVGID_2_">
			<use xlink:href="#SVGID_1_"  style="overflow:visible;"/>
		</clipPath>
		<g class="st0">
			<g>
				<path class="st1" d="M64.5,50.5c-10.4,0-20.8,0-31.1,0c-0.8,0-1.2,0-1.2-1c0-20.3,0-40.6,0-60.9c0-0.9,0.2-1,1.1-1
					c20.9,0,41.7,0,62.6,0c0.9,0,1,0.2,1,1.1c0,20.3,0,40.6,0,60.9c0,0.9-0.2,1-1.1,1C85.4,50.5,75,50.5,64.5,50.5z M88.8,18.3
					C88.5,5.5,78.5-5.4,65.3-5.3C52.6-5.3,42.1,4.8,41.8,17.8c-0.2,13.3,10.4,23.8,23.4,23.9C78.2,41.9,88.5,31.1,88.8,18.3z"/>
			</g>
		</g>
	</g>
</g>
<g>
	<g>
		<defs>
			<circle id="SVGID_3_" cx="31.9" cy="64.6" r="18.2"/>
		</defs>
		<clipPath id="SVGID_4_">
			<use xlink:href="#SVGID_3_"  style="overflow:visible;"/>
		</clipPath>
		<g class="st2">
		</g>
	</g>
</g>
<path class="st3" d="M20.9,25.5c1.5,0.1,2.9-0.2,4.2-0.9c0.2-0.1,0.5-0.4,0.8-0.1c0.2,0.3,0,0.6-0.3,0.8c-2,1.7-4.4,2.3-7,1.9
	c-3.1-0.5-5.9-1.7-7.1-5c-1.1-3.3-0.5-6.2,1.5-9c2.6-3.4,7.7-3.2,10.3-1.7c2.6,1.5,3.4,3.9,3.1,6.7c-0.3,2.5-1.4,4.5-3.9,5.3
	c-2.1,0.7-4,0.4-5.6-1.2c-1.5-1.5-1.5-3.3-0.8-5.1c0.5-1.4,1.6-2.1,3.1-2.1c1.5,0,2.6,0.6,3.3,1.9c0.4,0.9,0.4,1.8-0.3,2.6
	c-0.6,0.8-1.6,1-2.5,0.8c-1-0.2-1.4-0.9-1.4-1.9c0-0.3,0.2-0.6,0.5-0.6c0.3,0,0.4,0.2,0.4,0.5c0.1,0.5,0.3,1,0.9,0.8
	c0.5-0.1,0.8-0.4,0.7-0.9c0-0.6-0.3-1.2-0.9-1.3c-1-0.2-1.8,0.2-2.1,1.3c-0.3,1.2,0.5,2.5,1.7,2.7c1.1,0.2,2.2,0,3-1
	c0.8-1,0.9-2.2,0.5-3.4c-0.5-1.3-1.4-2.4-2.9-2.5c-2.1-0.2-4,0.2-5.2,2c-2.5,3.6,0.2,9.1,4.7,9.5C20.1,25.5,20.5,25.5,20.9,25.5z"/>
</svg>
