<?xml version="1.0" encoding="utf-8"?>
<!-- Generator: Adobe Illustrator 22.0.0, SVG Export Plug-In . SVG Version: 6.00 Build 0)  -->
<svg version="1.1" id="Capa_1" xmlns="http://www.w3.org/2000/svg" xmlns:xlink="http://www.w3.org/1999/xlink" x="0px" y="0px"
	 viewBox="0 0 36.9 36.5" style="enable-background:new 0 0 36.9 36.5;" xml:space="preserve">
<style type="text/css">
	.st0{fill:none;}
	.st1{fill:#FEFEFE;}
	.st2{fill:#528E9A;}
</style>
<circle class="st0" cx="18.7" cy="18.4" r="18.2"/>
<path class="st1" d="M27.7,19.9c-1.2,2-2.5,4.1-3.6,6.2c-0.5,0.8-1,1.2-1.9,1.1c-2.2-0.1-4.3-0.1-6.5,0c-0.9,0-1.5-0.3-2-1.1
	c-1.1-2-2.4-3.9-3.5-5.9c-0.3-0.6-0.2-1.1,0.1-1.7c1.2-2,2.4-4,3.5-6c0.4-0.7,0.8-0.9,1.6-0.9c2.4,0,4.7,0,7.1,0
	c0.6,0,1.1,0.2,1.4,0.7c1.2,2.1,2.4,4.2,3.6,6.2C27.7,18.9,27.8,19.4,27.7,19.9z"/>
<path class="st2" d="M18.7,23.5c-2.4,0-4.1-1.8-4.1-4.3c0-2.3,2-4.2,4.3-4.1c2.3,0.1,4.2,2.1,4.1,4.3C23,21.7,21.1,23.5,18.7,23.5z"
	/>
</svg>
