<?xml version="1.0" encoding="utf-8"?>
<!-- Generator: Adobe Illustrator 23.0.3, SVG Export Plug-In . SVG Version: 6.00 Build 0)  -->
<svg version="1.1" id="Layer_1" xmlns="http://www.w3.org/2000/svg" xmlns:xlink="http://www.w3.org/1999/xlink" x="0px" y="0px"
	 viewBox="0 0 126.7 126.7" style="enable-background:new 0 0 126.7 126.7;" xml:space="preserve">
<style type="text/css">
	.st0{fill:#FFF9C4;}
	.st1{fill:#F4E88C;}
	.st2{fill:#7BC67B;}
	.st3{fill:#54AF79;}
</style>
<g>
	<g>
		<path class="st0" d="M111.5,77c0,26.6-21.6,48.2-48.2,48.2c-26.6,0-48.2-21.6-48.2-48.2c0-26.6,21.6-75.5,48.2-75.5
			C89.9,1.5,111.5,50.4,111.5,77z"/>
	</g>
	<g>
		<path class="st1" d="M63.3,1.5v123.7c26.6,0,48.2-21.6,48.2-48.2C111.5,50.4,89.9,1.5,63.3,1.5z"/>
	</g>
	<g>
		<g>
			<path class="st2" d="M33.5,104.3c4.4,4.9,9.3,7.2,6.7,9.6c-2.6,2.4-8.3,0.4-12.8-4.5c-4.4-4.9-5.9-10.7-3.3-13.1
				C26.7,94,29,99.5,33.5,104.3z"/>
		</g>
		<g>
			<path class="st3" d="M93.2,104.3c-4.4,4.9-9.3,7.2-6.7,9.6c2.6,2.4,8.3,0.4,12.8-4.5c4.4-4.9,5.9-10.7,3.3-13.1
				C99.9,94,97.6,99.5,93.2,104.3z"/>
		</g>
	</g>
	<g>
		<path class="st1" d="M63.3,126.7c-27.4,0-49.7-22.3-49.7-49.7c0-13.9,5.6-33,14.3-48.5C38.3,10.1,50.8,0,63.3,0
			c12.5,0,25.1,10.1,35.4,28.5C107.4,44,113,63.1,113,77C113,104.4,90.7,126.7,63.3,126.7z M63.3,3C48,3,36.2,19.9,30.6,30
			c-8.5,15.1-13.9,33.5-13.9,47c0,25.7,20.9,46.7,46.7,46.7c25.7,0,46.7-20.9,46.7-46.7c0-13.5-5.5-31.9-13.9-47
			C90.4,19.9,78.7,3,63.3,3z"/>
	</g>
	<g>
		<path class="st2" d="M91.6,89.5c-6.3,13.6-19.1,21-28.6,16.6c-9.5-4.4-5.1-12.4,1.2-26c6.3-13.6,12-27.6,21.5-23.2
			C95.3,61.3,97.9,75.9,91.6,89.5z"/>
	</g>
	<g>
		<path class="st3" d="M85.7,56.9c-9.5-4.4-15.3,9.6-21.5,23.2c-0.3,0.6-0.6,1.3-0.9,1.9v24.2c9.5,4.1,22.1-3.3,28.3-16.7
			C97.9,75.9,95.3,61.3,85.7,56.9z"/>
	</g>
	<g>
		<circle class="st2" cx="35.6" cy="38.5" r="3.1"/>
	</g>
	<g>
		<circle class="st2" cx="46.7" cy="23.9" r="1.2"/>
	</g>
	<g>
		<circle class="st2" cx="40.4" cy="56.1" r="1.7"/>
	</g>
	<g>
		<circle class="st3" cx="67.4" cy="113.2" r="1.7"/>
	</g>
	<g>
		<circle class="st2" cx="59.3" cy="111.5" r="1.7"/>
	</g>
	<g>
		<circle class="st3" cx="83.9" cy="30" r="3.5"/>
	</g>
	<g>
		<circle class="st3" cx="93.9" cy="45.1" r="3.5"/>
	</g>
	<g>
		<circle class="st2" cx="44.7" cy="91.4" r="3.5"/>
	</g>
	<g>
		<path class="st2" d="M67.1,40.7c0,8.1,3.5,14.7-4.6,14.7s-14.7-6.6-14.7-14.7S54.3,26,62.4,26C70.6,26,67.1,32.6,67.1,40.7z"/>
	</g>
	<g>
		<path class="st3" d="M63.3,55.3c7-0.5,3.7-6.9,3.7-14.6s3.2-14.2-3.7-14.7V55.3z"/>
	</g>
</g>
</svg>
