<?xml version="1.0" encoding="utf-8"?>
<!-- Generator: Adobe Illustrator 23.0.3, SVG Export Plug-In . SVG Version: 6.00 Build 0)  -->
<svg version="1.1" id="Layer_1" xmlns="http://www.w3.org/2000/svg" xmlns:xlink="http://www.w3.org/1999/xlink" x="0px" y="0px"
	 viewBox="0 0 127.9 127.9" style="enable-background:new 0 0 127.9 127.9;" xml:space="preserve">
<style type="text/css">
	.st0{fill:#ADB8BC;}
	.st1{fill:#93A0A3;}
	.st2{fill:#FF8B00;}
	.st3{fill:#FFB000;}
	.st4{fill:#EBF4F7;}
	.st5{fill:#D8E5EA;}
	.st6{fill:#FDFEFF;}
	.st7{fill:#FFFFFA;}
	.st8{fill:#F9F9E4;}
	.st9{fill:#7BC67B;}
	.st10{fill:#54AF79;}
	.st11{fill:#F7F6C6;}
</style>
<g>
	<g>
		<g>
			<g>
				<rect x="29.9" y="23.8" class="st0" width="68.2" height="91.3"/>
			</g>
			<g>
				<rect x="50.2" y="23.8" class="st1" width="27.6" height="91.3"/>
			</g>
			<g>
				<rect x="29.9" y="106.7" class="st2" width="68.2" height="8.5"/>
			</g>
			<g>
				<rect x="29.9" y="106.7" class="st3" width="68.2" height="4.2"/>
			</g>
			<g>
				<polygon class="st4" points="29.9,115.2 98,115.2 89.4,126.4 38.5,126.4 				"/>
			</g>
			<g>
				<polygon class="st4" points="98,24 29.9,24 38.5,1.5 89.4,1.5 				"/>
			</g>
			<g>
				<g>
					<polygon class="st5" points="50.2,115.2 77.7,115.2 74.2,126.4 53.7,126.4 					"/>
				</g>
				<g>
					<polygon class="st5" points="77.7,24 50.2,24 53.7,1.5 74.2,1.5 					"/>
				</g>
			</g>
			<path class="st1" d="M99.3,23L90.8,1c-0.2-0.6-0.8-1-1.4-1H38.5c-0.6,0-1.2,0.4-1.4,1l-8.5,22c-0.2,0.2-0.3,0.5-0.3,0.9v82.8v8.5
				c0,0,0,0.1,0,0.1c0,0,0,0.1,0,0.1c0,0.1,0,0.2,0.1,0.3c0,0,0,0,0,0.1c0,0.1,0.1,0.2,0.2,0.3c0,0,0,0,0,0l8.7,11.2
				c0.3,0.4,0.7,0.6,1.2,0.6h50.9c0.5,0,0.9-0.2,1.2-0.6l8.7-11.2c0,0,0,0,0,0c0.1-0.1,0.1-0.2,0.2-0.3c0,0,0,0,0-0.1
				c0-0.1,0.1-0.2,0.1-0.3c0,0,0-0.1,0-0.1c0,0,0-0.1,0-0.1v-8.5V23.8C99.5,23.5,99.4,23.2,99.3,23z M96.5,25.5v79.7H31.4V25.5H96.5
				z M31.4,108.2h65.2v5.5H31.4V108.2z M39.6,3h48.8l7.5,19.3H32.1L39.6,3z M88.6,124.9H39.3l-6.4-8.2H95L88.6,124.9z"/>
			<g>
				<g>
					<path class="st2" d="M77.3,12.7c0,2.2-1.8,4-4,4H54.6c-2.2,0-4-1.8-4-4V12c0-2.2,1.8-4,4-4h18.8c2.2,0,4,1.8,4,4V12.7z"/>
				</g>
				<g>
					<path class="st3" d="M73.3,18.2H54.6c-3,0-5.5-2.5-5.5-5.5V12c0-3,2.5-5.5,5.5-5.5h18.8c3,0,5.5,2.5,5.5,5.5v0.8
						C78.8,15.7,76.4,18.2,73.3,18.2z M54.6,9.5c-1.4,0-2.5,1.1-2.5,2.5v0.8c0,1.4,1.1,2.5,2.5,2.5h18.8c1.4,0,2.5-1.1,2.5-2.5V12
						c0-1.4-1.1-2.5-2.5-2.5H54.6z"/>
				</g>
			</g>
			<g>
				<path class="st6" d="M36.4,81.9c-0.8,0-1.5-0.7-1.5-1.5V38.8c0-0.8,0.7-1.5,1.5-1.5s1.5,0.7,1.5,1.5v41.5
					C37.9,81.2,37.2,81.9,36.4,81.9z"/>
			</g>
			<g>
				<path class="st6" d="M36.4,34.3c-0.8,0-1.5-0.7-1.5-1.5V30c0-0.8,0.7-1.5,1.5-1.5s1.5,0.7,1.5,1.5v2.9
					C37.9,33.7,37.2,34.3,36.4,34.3z"/>
			</g>
			<g>
				<path class="st6" d="M36.4,90.3c-0.8,0-1.5-0.7-1.5-1.5V86c0-0.8,0.7-1.5,1.5-1.5s1.5,0.7,1.5,1.5v2.9
					C37.9,89.7,37.2,90.3,36.4,90.3z"/>
			</g>
			<g>
				<path class="st6" d="M36.4,99.1c-0.8,0-1.5-0.7-1.5-1.5v-2.9c0-0.8,0.7-1.5,1.5-1.5s1.5,0.7,1.5,1.5v2.9
					C37.9,98.4,37.2,99.1,36.4,99.1z"/>
			</g>
		</g>
		<g>
			<g>
				<path class="st1" d="M51.9,122.3h-1.2c-0.8,0-1.5-0.7-1.5-1.5s0.7-1.5,1.5-1.5h1.2c0.8,0,1.5,0.7,1.5,1.5S52.7,122.3,51.9,122.3
					z"/>
			</g>
			<g>
				<path class="st1" d="M58.2,122.3H57c-0.8,0-1.5-0.7-1.5-1.5s0.7-1.5,1.5-1.5h1.2c0.8,0,1.5,0.7,1.5,1.5S59,122.3,58.2,122.3z"/>
			</g>
			<g>
				<path class="st1" d="M64.5,122.3h-1.2c-0.8,0-1.5-0.7-1.5-1.5s0.7-1.5,1.5-1.5h1.2c0.8,0,1.5,0.7,1.5,1.5S65.4,122.3,64.5,122.3
					z"/>
			</g>
			<g>
				<path class="st1" d="M70.9,122.3h-1.2c-0.8,0-1.5-0.7-1.5-1.5s0.7-1.5,1.5-1.5h1.2c0.8,0,1.5,0.7,1.5,1.5S71.7,122.3,70.9,122.3
					z"/>
			</g>
			<g>
				<path class="st1" d="M77.2,122.3H76c-0.8,0-1.5-0.7-1.5-1.5s0.7-1.5,1.5-1.5h1.2c0.8,0,1.5,0.7,1.5,1.5S78,122.3,77.2,122.3z"/>
			</g>
		</g>
	</g>
	<g>
		<g>
			<path class="st7" d="M85.8,85.4c0,11.7-9.5,21.3-21.3,21.3s-21.3-9.5-21.3-21.3c0-11.7,9.5-33.3,21.3-33.3S85.8,73.7,85.8,85.4z"
				/>
		</g>
		<g>
			<path class="st8" d="M64.5,52.1v54.6c11.7,0,21.3-9.5,21.3-21.3C85.8,73.7,76.3,52.1,64.5,52.1z"/>
		</g>
		<g>
			<g>
				<path class="st9" d="M51.4,97.5c2,2.1,4.1,3.2,3,4.2c-1.1,1.1-3.7,0.2-5.6-2c-2-2.1-2.6-4.7-1.5-5.8
					C48.4,92.9,49.4,95.3,51.4,97.5z"/>
			</g>
			<g>
				<path class="st10" d="M77.7,97.5c-2,2.1-4.1,3.2-3,4.2c1.1,1.1,3.7,0.2,5.6-2c2-2.1,2.6-4.7,1.5-5.8
					C80.7,92.9,79.7,95.3,77.7,97.5z"/>
			</g>
		</g>
		<g>
			<path class="st11" d="M64.5,108.2C52,108.2,41.8,98,41.8,85.4c0-11.9,9.6-34.8,22.8-34.8s22.8,22.9,22.8,34.8
				C87.3,98,77.1,108.2,64.5,108.2z M64.5,53.6c-10.8,0-19.8,21.1-19.8,31.8c0,10.9,8.9,19.8,19.8,19.8c10.9,0,19.8-8.9,19.8-19.8
				C84.3,74.7,75.3,53.6,64.5,53.6z"/>
		</g>
		<g>
			<path class="st9" d="M77,90.9c-2.8,6-8.4,9.3-12.6,7.3c-4.2-1.9-2.3-5.5,0.5-11.5c2.8-6,5.3-12.2,9.5-10.2
				C78.6,78.5,79.8,84.9,77,90.9z"/>
		</g>
		<g>
			<path class="st10" d="M74.4,76.6c-4.2-1.9-6.7,4.2-9.5,10.2c-0.1,0.3-0.3,0.6-0.4,0.8v10.7c4.2,1.8,9.7-1.5,12.5-7.4
				C79.8,84.9,78.6,78.5,74.4,76.6z"/>
		</g>
		<g>
			<circle class="st9" cx="52.3" cy="68.4" r="1.4"/>
		</g>
		<g>
			<circle class="st9" cx="57.2" cy="62" r="0.5"/>
		</g>
		<g>
			<circle class="st9" cx="54.4" cy="76.2" r="0.8"/>
		</g>
		<g>
			<circle class="st10" cx="66.3" cy="101.4" r="0.8"/>
		</g>
		<g>
			<circle class="st9" cx="62.7" cy="100.6" r="0.8"/>
		</g>
		<g>
			<circle class="st10" cx="73.6" cy="64.7" r="1.6"/>
		</g>
		<g>
			<circle class="st10" cx="78" cy="71.3" r="1.5"/>
		</g>
		<g>
			<circle class="st9" cx="56.3" cy="91.8" r="1.5"/>
		</g>
		<g>
			<path class="st9" d="M66.2,69.4c0,3.6,1.5,6.5-2,6.5c-3.6,0-6.5-2.9-6.5-6.5s2.9-6.5,6.5-6.5C67.7,62.9,66.2,65.8,66.2,69.4z"/>
		</g>
		<g>
			<path class="st10" d="M64.5,75.9c3.1-0.2,1.6-3,1.6-6.5c0-3.4,1.4-6.3-1.6-6.5V75.9z"/>
		</g>
	</g>
</g>
</svg>
