<?xml version="1.0" encoding="utf-8"?>
<!-- Generator: Adobe Illustrator 16.0.0, SVG Export Plug-In . SVG Version: 6.00 Build 0)  -->
<!DOCTYPE svg PUBLIC "-//W3C//DTD SVG 1.1//EN" "http://www.w3.org/Graphics/SVG/1.1/DTD/svg11.dtd">
<svg version="1.1" id="Capa_1" xmlns="http://www.w3.org/2000/svg" xmlns:xlink="http://www.w3.org/1999/xlink" x="0px" y="0px"
	 width="36.9px" height="36.5px" viewBox="0 0 36.9 36.5" enable-background="new 0 0 36.9 36.5" xml:space="preserve">
<g>
	<defs>
		<circle id="SVGID_1_" cx="18.582" cy="18.294" r="18.226"/>
	</defs>
	<clipPath id="SVGID_2_">
		<use xlink:href="#SVGID_1_"  overflow="visible"/>
	</clipPath>
	<g clip-path="url(#SVGID_2_)">
		<g>
			<path fill-rule="evenodd" clip-rule="evenodd" fill="#FDFEFE" d="M18.025,50.393c-10.431,0-20.862-0.013-31.293,0.024
				c-0.86,0.003-1.035-0.173-1.033-1.033c0.031-20.189,0.031-40.379,0-60.568c-0.001-0.86,0.173-1.034,1.033-1.033
				c20.958,0.03,41.917,0.03,62.875,0c0.86-0.001,1.035,0.173,1.033,1.033c-0.031,20.189-0.031,40.379,0,60.568
				c0.001,0.859-0.173,1.036-1.034,1.033C39.08,50.38,28.552,50.393,18.025,50.393z M18.779,40.876
				c12.373,0.101,22.382-10.321,22.56-22.069C41.534,5.956,31.007-3.747,19.593-4.089C6.391-4.485-3.807,6.308-3.742,18.413
				C-3.675,31.03,6.823,40.902,18.779,40.876z"/>
			<path fill-rule="evenodd" clip-rule="evenodd" fill="#E8ECF5" d="M18.779,40.876C6.823,40.902-3.675,31.03-3.742,18.413
				C-3.807,6.308,6.391-4.485,19.593-4.089C31.007-3.747,41.534,5.956,41.339,18.807C41.162,30.555,31.152,40.977,18.779,40.876z
				 M18.791,36.292c9.795,0.452,18.042-8.229,18.07-17.861C36.89,8.479,28.144,0.295,18.859,0.38
				C9.053,0.471,0.755,8.12,0.79,18.489C0.824,28.82,9.329,36.598,18.791,36.292z"/>
			<path fill-rule="evenodd" clip-rule="evenodd" fill="#96ADD6" d="M18.791,36.292C9.329,36.598,0.824,28.82,0.79,18.489
				C0.755,8.12,9.053,0.471,18.859,0.38c9.285-0.085,18.031,8.099,18.002,18.05C36.833,28.063,28.586,36.744,18.791,36.292z
				 M20.245,26.79c1.238,0.019,3.091-0.504,4.772-1.647c3.708-2.522,4.486-6.938,1.841-10.529c-3.696-5.02-12.63-4.392-15.576,1.094
				c-1.382,2.575-0.977,5.862,0.997,8.034C14.204,25.858,16.636,26.782,20.245,26.79z"/>
			<path fill-rule="evenodd" clip-rule="evenodd" fill="#FDFEFE" d="M20.245,26.79c-3.608-0.008-6.041-0.932-7.965-3.049
				c-1.974-2.171-2.379-5.458-0.997-8.034c2.945-5.486,11.879-6.113,15.576-1.094c2.645,3.592,1.868,8.007-1.841,10.529
				C23.336,26.286,21.483,26.809,20.245,26.79z"/>
		</g>
	</g>
</g>
<g>
	<defs>
		<circle id="SVGID_3_" cx="11.476" cy="61.156" r="18.226"/>
	</defs>
	<clipPath id="SVGID_4_">
		<use xlink:href="#SVGID_3_"  overflow="visible"/>
	</clipPath>
	<g clip-path="url(#SVGID_4_)">
		<g>
			<path fill-rule="evenodd" clip-rule="evenodd" fill="#FEFDFE" d="M11.098,30.667c10.383,0,20.766,0.024,31.149-0.033
				c1.159-0.006,1.29,0.347,1.288,1.365c-0.032,19.949-0.041,39.898,0.017,59.847c0.004,1.313-0.386,1.436-1.516,1.434
				c-20.67-0.034-41.34-0.042-62.01,0.015c-1.313,0.004-1.436-0.386-1.434-1.516c0.036-19.901,0.043-39.802-0.015-59.703
				c-0.003-1.313,0.386-1.439,1.517-1.434C-9.572,30.686,0.763,30.667,11.098,30.667z M-11.577,61.402
				C-11.751,74.203-0.789,84.821,11.519,84.84C24.57,84.861,34.99,74.403,35.085,61.553C35.18,48.832,24.583,38.617,12.669,38.15
				C-0.818,37.622-11.735,49.061-11.577,61.402z"/>
		</g>
	</g>
</g>
</svg>
