<?xml version="1.0" encoding="utf-8"?>
<!-- Generator: Adobe Illustrator 22.0.0, SVG Export Plug-In . SVG Version: 6.00 Build 0)  -->
<svg version="1.1" id="Capa_1" xmlns="http://www.w3.org/2000/svg" xmlns:xlink="http://www.w3.org/1999/xlink" x="0px" y="0px"
	 viewBox="0 0 18 15.6" style="enable-background:new 0 0 18 15.6;" xml:space="preserve">
<style type="text/css">
	.st0{clip-path:url(#SVGID_2_);}
	.st1{fill:#FEFDFE;}
	.st2{fill:#FDFEFE;}
</style>
<g>
	<g>
		<defs>
			<circle id="SVGID_1_" cx="1" cy="50" r="18.2"/>
		</defs>
		<clipPath id="SVGID_2_">
			<use xlink:href="#SVGID_1_"  style="overflow:visible;"/>
		</clipPath>
		<g class="st0">
			<g>
				<path class="st1" d="M0.6,19.5c10.4,0,20.8,0,31.1,0c1.2,0,1.3,0.3,1.3,1.4c0,19.9,0,39.9,0,59.8c0,1.3-0.4,1.4-1.5,1.4
					c-20.7,0-41.3,0-62,0c-1.3,0-1.4-0.4-1.4-1.5c0-19.9,0-39.8,0-59.7c0-1.3,0.4-1.4,1.5-1.4C-20,19.5-9.7,19.5,0.6,19.5z
					 M-22,50.2C-22.2,63-11.3,73.6,1.1,73.6c13.1,0,23.5-10.4,23.6-23.3C24.7,37.6,14.1,27.4,2.2,27C-11.3,26.4-22.2,37.9-22,50.2z"
					/>
			</g>
		</g>
	</g>
</g>
<path class="st2" d="M9.8,15.6c-3.6,0-6-0.9-8-3c-2-2.2-2.4-5.5-1-8C3.8-1,12.7-1.6,16.4,3.4c2.6,3.6,1.9,8-1.8,10.5
	C12.9,15.1,11,15.6,9.8,15.6z"/>
</svg>
