<?xml version="1.0" encoding="utf-8"?>
<!-- Generator: Adobe Illustrator 22.0.0, SVG Export Plug-In . SVG Version: 6.00 Build 0)  -->
<svg version="1.1" id="Capa_1" xmlns="http://www.w3.org/2000/svg" xmlns:xlink="http://www.w3.org/1999/xlink" x="0px" y="0px"
	 viewBox="0 0 30.3 29.9" style="enable-background:new 0 0 30.3 29.9;" xml:space="preserve">
<style type="text/css">
	.st0{fill:#FEFEFD;}
</style>
<g>
	<g>
		<g>
			<path class="st0" d="M6.1,17.6c0.1-1.9,0.4-4.1,1.9-5.9c0.7-0.8,0.9-0.7,1.5,0c0.7,0.9,1.6,1.6,2.8,1.9c0.4,0.1,0.6,0.4,0.8,0.8
				c1.5,3.2,0.8,7.9-1.7,10.3c-0.3,0.3-0.5,0.4-1,0.2C8.2,23.6,6.2,20.4,6.1,17.6z"/>
			<path class="st0" d="M15.3,18c-0.1-1.1,0.4-2.4,0.7-3.7c0.1-0.4,0.3-0.6,0.7-0.8c1.1-0.3,2-1.1,2.8-1.9c0.5-0.6,0.9-0.7,1.5,0
				c3.4,4,2.3,10.6-2.1,13.2c-0.6,0.3-0.8,0.1-1.2-0.3C16.1,22.8,15.2,20.5,15.3,18z"/>
			<path class="st0" d="M10.2,10.1c1.5-0.8,1.5-0.8,0.4-2.3c-0.4-0.5-0.8-1.1-0.2-1.6C11,5.7,11.6,6.1,12,6.6
				c0.4,0.5,0.8,1.1,1.3,1.5C14.1,9.1,15.3,9,16.1,8c0.4-0.6,0.8-1.2,1.3-1.8c0.3-0.4,0.7-0.7,1.2-0.4c0.5,0.4,0.6,0.8,0.2,1.4
				c-0.2,0.3-0.4,0.6-0.7,0.9c-0.4,0.6-0.9,1.1,0.2,1.4c0.7,0.2,0.4,0.6,0.1,0.9C16.2,13.3,12.4,13.5,10.2,10.1z"/>
		</g>
	</g>
</g>
<path class="st0" d="M6.1,17.6c0.1-1.9,0.4-4.1,1.9-5.9c0.7-0.8,0.9-0.7,1.5,0c0.7,0.9,1.6,1.6,2.8,1.9c0.4,0.1,0.6,0.4,0.8,0.8
	c1.5,3.2,0.8,7.9-1.7,10.3c-0.3,0.3-0.5,0.4-1,0.2C8.2,23.6,6.2,20.4,6.1,17.6z"/>
<path class="st0" d="M15.3,18c-0.1-1.1,0.4-2.4,0.7-3.7c0.1-0.4,0.3-0.6,0.7-0.8c1.1-0.3,2-1.1,2.8-1.9c0.5-0.6,0.9-0.7,1.5,0
	c3.4,4,2.3,10.6-2.1,13.2c-0.6,0.3-0.8,0.1-1.2-0.3C16.1,22.8,15.2,20.5,15.3,18z"/>
<path class="st0" d="M10.2,10.1c1.5-0.8,1.5-0.8,0.4-2.3c-0.4-0.5-0.8-1.1-0.2-1.6C11,5.7,11.6,6.1,12,6.6c0.4,0.5,0.8,1.1,1.3,1.5
	C14.1,9.1,15.3,9,16.1,8c0.4-0.6,0.8-1.2,1.3-1.8c0.3-0.4,0.7-0.7,1.2-0.4c0.5,0.4,0.6,0.8,0.2,1.4c-0.2,0.3-0.4,0.6-0.7,0.9
	c-0.4,0.6-0.9,1.1,0.2,1.4c0.7,0.2,0.4,0.6,0.1,0.9C16.2,13.3,12.4,13.5,10.2,10.1z"/>
</svg>
