<?xml version="1.0" encoding="utf-8"?>
<!-- Generator: Adobe Illustrator 22.0.0, SVG Export Plug-In . SVG Version: 6.00 Build 0)  -->
<svg version="1.1" id="Capa_1" xmlns="http://www.w3.org/2000/svg" xmlns:xlink="http://www.w3.org/1999/xlink" x="0px" y="0px"
	 viewBox="0 0 30.3 29.9" style="enable-background:new 0 0 30.3 29.9;" xml:space="preserve">
<style type="text/css">
	.st0{fill:#FEFEFD;}
</style>
<g>
	<g>
		<g>
			<path class="st0" d="M6.1,17.6c0.1-1.9,0.4-4.1,1.9-5.9c0.7-0.8,0.9-0.7,1.5,0c0.7,0.9,1.6,1.6,2.8,1.9c0.4,0.1,0.6,0.4,0.8,0.8
				c1.5,3.2,0.8,7.9-1.7,10.3c-0.3,0.3-0.5,0.4-1,0.2C8.2,23.6,6.2,20.4,6.1,17.6z"/>
			<path class="st0" d="M15.3,18c-0.1-1.1,0.4-2.4,0.7-3.7c0.1-0.4,0.3-0.6,0.7-0.8c1.1-0.3,2-1.1,2.8-1.9c0.5-0.6,0.9-0.7,1.5,0
				c3.4,4,2.3,10.6-2.1,13.2c-0.6,0.3-0.8,0.1-1.2-0.3C16.1,22.8,15.2,20.5,15.3,18z"/>
			<path class="st0" d="M10.2,10.1c1.5-0.8,1.5-0.8,0.4-2.3c-0.4-0.5-0.8-1.1-0.2-1.6C11,5.7,11.6,6.1,12,6.6
				c0.4,0.5,0.8,1.1,1.3,1.5C14.1,9.1,15.3,9,16.1,8c0.4-0.6,0.8-1.2,1.3-1.8c0.3-0.4,0.7-0.7,1.2-0.4c0.5,0.4,0.6,0.8,0.2,1.4
				c-0.2,0.3-0.4,0.6-0.7,0.9c-0.4,0.6-0.9,1.1,0.2,1.4c0.7,0.2,0.4,0.6,0.1,0.9C16.2,13.3,12.4,13.5,10.2,10.1z"/>
		</g>
	</g>
</g>
<path class="st0" d="M6.1,17.6c0.1-1.9,0.4-4.1,1.9-5.9c0.7-0.8,0.9-0.7,1.5,0c0.7,0.9,1.6,1.6,2.8,1.9c0.4,0.1,0.6,0.4,0.8,0.8
	c1.5,3.2,0.8,7.9-1.7,10.3c-0.3,0.3-0.5,0.4-1,0.2C8.2,23.6,6.2,20.4,6.1,17.6z"/>
<path class="st0" d="M15.3,18c-0.1-1.1,0.4-2.4,0.7-3.7c0.1-0.4,0.3-0.6,0.7-0.8c1.1-0.3,2-1.1,2.8-1.9c0.5-0.6,0.9-0.7,1.5,0
	c3.4,4,2.3,10.6-2.1,13.2c-0.6,0.3-0.8,0.1-1.2-0.3C16.1,22.8,15.2,20.5,15.3,18z"/>
<path class="st0" d="M10.2,10.1c1.5-0.8,1.5-0.8,0.4-2.3c-0.4-0.5-0.8-1.1-0.2-1.6C11,5.7,11.6,6.1,12,6.6c0.4,0.5,0.8,1.1,1.3,1.5
	C14.1,9.1,15.3,9,16.1,8c0.4-0.6,0.8-1.2,1.3-1.8c0.3-0.4,0.7-0.7,1.2-0.4c0.5,0.4,0.6,0.8,0.2,1.4c-0.2,0.3-0.4,0.6-0.7,0.9
	c-0.4,0.6-0.9,1.1,0.2,1.4c0.7,0.2,0.4,0.6,0.1,0.9C16.2,13.3,12.4,13.5,10.2,10.1z"/>
=======
<!-- Generator: Adobe Illustrator 16.0.0, SVG Export Plug-In . SVG Version: 6.00 Build 0)  -->
<!DOCTYPE svg PUBLIC "-//W3C//DTD SVG 1.1//EN" "http://www.w3.org/Graphics/SVG/1.1/DTD/svg11.dtd">
<svg version="1.1" id="Capa_1" xmlns="http://www.w3.org/2000/svg" xmlns:xlink="http://www.w3.org/1999/xlink" x="0px" y="0px"
	 width="36.9px" height="36.5px" viewBox="0 0 36.9 36.5" enable-background="new 0 0 36.9 36.5" xml:space="preserve">
<g>
	<defs>
		<circle id="SVGID_31_" cx="18.763" cy="18.463" r="18.226"/>
	</defs>
	<clipPath id="SVGID_2_">
		<use xlink:href="#SVGID_31_"  overflow="visible"/>
	</clipPath>
	<g clip-path="url(#SVGID_2_)">
		<g>
			<path fill-rule="evenodd" clip-rule="evenodd" fill="#FEFEFD" d="M18.35,50.563c-10.479,0-20.958-0.013-31.438,0.024
				c-0.86,0.003-1.035-0.173-1.033-1.033c0.031-20.189,0.031-40.379,0-60.568c-0.001-0.86,0.173-1.034,1.033-1.033
				c20.958,0.03,41.917,0.03,62.875,0c0.86-0.001,1.034,0.173,1.033,1.033c-0.031,20.189-0.031,40.379,0,60.568
				c0.001,0.86-0.173,1.036-1.033,1.033C39.308,50.55,28.829,50.563,18.35,50.563z M42.146,18.686
				C42.477,6.156,31.562-4.811,18.929-4.747C5.929-4.682-4.429,5.67-4.512,18.656c-0.08,12.652,10.696,22.755,22.223,23.322
				C31.442,42.654,42.557,30.693,42.146,18.686z"/>
			<path fill-rule="evenodd" clip-rule="evenodd" fill="#EBF2DD" d="M42.146,18.686c0.411,12.008-10.704,23.969-24.435,23.293
				C6.184,41.411-4.592,31.309-4.512,18.656C-4.429,5.67,5.929-4.682,18.929-4.747C31.562-4.811,42.477,6.156,42.146,18.686z
				 M0.856,18.453c-0.199,9.663,7.57,18.126,17.827,18.249c10.024,0.12,18.265-8.04,18.258-18.015
				C36.935,8.052,28.104,0.724,18.999,0.605C8.453,0.468,0.677,9.428,0.856,18.453z"/>
			<path fill-rule="evenodd" clip-rule="evenodd" fill="#98B738" d="M0.856,18.453C0.677,9.428,8.453,0.468,18.999,0.605
				c9.105,0.118,17.936,7.446,17.943,18.082c0.007,9.975-8.234,18.135-18.258,18.015C8.426,36.579,0.658,28.116,0.856,18.453z
				 M10.451,20.9c0.038,2.727,2.092,6.007,4.273,7.226c0.444,0.248,0.644,0.14,0.961-0.172c2.478-2.435,3.259-7.129,1.728-10.343
				c-0.179-0.376-0.361-0.663-0.763-0.771c-1.153-0.308-2.043-1.012-2.789-1.902c-0.537-0.641-0.814-0.744-1.479,0.031
				C10.803,16.81,10.565,18.968,10.451,20.9z M19.588,21.273c-0.042,2.458,0.855,4.833,2.342,6.536
				c0.354,0.404,0.6,0.599,1.177,0.26c4.441-2.609,5.493-9.21,2.11-13.18c-0.582-0.683-0.952-0.598-1.466-0.018
				c-0.763,0.859-1.646,1.573-2.762,1.91c-0.428,0.129-0.621,0.359-0.721,0.77C19.953,18.852,19.512,20.127,19.588,21.273z
				 M14.529,13.345c2.227,3.399,6.003,3.263,8.221,0.535c0.3-0.369,0.636-0.748-0.059-0.948c-1.162-0.334-0.691-0.854-0.249-1.428
				c0.234-0.304,0.436-0.632,0.653-0.948c0.369-0.534,0.29-1.006-0.246-1.355c-0.521-0.341-0.917-0.052-1.226,0.361
				c-0.43,0.576-0.819,1.184-1.25,1.76c-0.728,0.974-1.949,1.038-2.788,0.138c-0.458-0.49-0.878-1.016-1.298-1.54
				c-0.426-0.531-0.957-0.972-1.573-0.46c-0.637,0.528-0.213,1.101,0.197,1.62C16.075,12.552,16.067,12.558,14.529,13.345z"/>
			<path fill-rule="evenodd" clip-rule="evenodd" fill="#FEFEFD" d="M10.451,20.9c0.115-1.933,0.353-4.091,1.931-5.931
				c0.665-0.775,0.942-0.672,1.479-0.031c0.746,0.891,1.636,1.595,2.789,1.902c0.402,0.107,0.584,0.395,0.763,0.771
				c1.532,3.214,0.75,7.908-1.728,10.343c-0.318,0.312-0.517,0.42-0.961,0.172C12.543,26.907,10.489,23.627,10.451,20.9z"/>
			<path fill-rule="evenodd" clip-rule="evenodd" fill="#FEFEFD" d="M19.588,21.273c-0.077-1.146,0.364-2.422,0.681-3.722
				c0.1-0.41,0.292-0.641,0.721-0.77c1.116-0.337,1.999-1.051,2.762-1.91c0.514-0.58,0.884-0.665,1.466,0.018
				c3.382,3.97,2.331,10.57-2.11,13.18c-0.577,0.339-0.824,0.145-1.177-0.26C20.443,26.106,19.546,23.731,19.588,21.273z"/>
			<path fill-rule="evenodd" clip-rule="evenodd" fill="#FEFEFD" d="M14.529,13.345c1.538-0.787,1.546-0.793,0.384-2.266
				c-0.41-0.52-0.833-1.092-0.197-1.62c0.616-0.512,1.147-0.071,1.573,0.46c0.42,0.524,0.841,1.05,1.298,1.54
				c0.839,0.9,2.061,0.836,2.788-0.138c0.431-0.576,0.819-1.184,1.25-1.76c0.309-0.413,0.704-0.702,1.226-0.361
				c0.536,0.35,0.615,0.821,0.246,1.355c-0.218,0.316-0.419,0.645-0.653,0.948c-0.443,0.573-0.913,1.094,0.249,1.428
				c0.694,0.2,0.359,0.579,0.059,0.948C20.532,16.607,16.756,16.744,14.529,13.345z"/>
		</g>
	</g>
</g>
</svg>
