<?xml version="1.0" encoding="utf-8"?>
<!-- Generator: Adobe Illustrator 22.0.0, SVG Export Plug-In . SVG Version: 6.00 Build 0)  -->
<svg version="1.1" id="Capa_1" xmlns="http://www.w3.org/2000/svg" xmlns:xlink="http://www.w3.org/1999/xlink" x="0px" y="0px"
	 viewBox="0 0 36.9 36.5" style="enable-background:new 0 0 36.9 36.5;" xml:space="preserve">
<style type="text/css">
	.st0{clip-path:url(#SVGID_2_);}
	.st1{fill:#FDFEFE;}
	.st2{clip-path:url(#SVGID_4_);}
	.st3{fill:#FEFDFD;}
	.st4{fill:#FEFDFE;}
</style>
<g>
	<g>
		<defs>
			<circle id="SVGID_1_" cx="25.7" cy="-24.5" r="18.2"/>
		</defs>
		<clipPath id="SVGID_2_">
			<use xlink:href="#SVGID_1_"  style="overflow:visible;"/>
		</clipPath>
		<g class="st0">
			<g>
				<path class="st1" d="M25.2,7.6c-10.4,0-20.9,0-31.3,0c-0.9,0-1-0.2-1-1c0-20.2,0-40.4,0-60.6c0-0.9,0.2-1,1-1
					c21,0,41.9,0,62.9,0c0.9,0,1,0.2,1,1c0,20.2,0,40.4,0,60.6c0,0.9-0.2,1-1,1C46.2,7.5,35.7,7.6,25.2,7.6z M25.9-2
					C38.3-1.9,48.3-12.3,48.5-24c0.2-12.9-10.3-22.6-21.7-22.9C13.6-47.3,3.4-36.5,3.4-24.4C3.5-11.8,14-1.9,25.9-2z"/>
			</g>

<!-- Generator: Adobe Illustrator 16.0.0, SVG Export Plug-In . SVG Version: 6.00 Build 0)  -->
<!DOCTYPE svg PUBLIC "-//W3C//DTD SVG 1.1//EN" "http://www.w3.org/Graphics/SVG/1.1/DTD/svg11.dtd">
<svg version="1.1" id="Capa_1" xmlns="http://www.w3.org/2000/svg" xmlns:xlink="http://www.w3.org/1999/xlink" x="0px" y="0px"
	 width="36.9px" height="36.5px" viewBox="0 0 36.9 36.5" enable-background="new 0 0 36.9 36.5" xml:space="preserve">
<g>
	<defs>
		<circle id="SVGID_1_" cx="25.749" cy="-24.54" r="18.226"/>
	</defs>
	<clipPath id="SVGID_2_">
		<use xlink:href="#SVGID_1_"  overflow="visible"/>
	</clipPath>
	<g clip-path="url(#SVGID_2_)">
		<g>
			<path fill-rule="evenodd" clip-rule="evenodd" fill="#FDFEFE" d="M25.191,7.56C14.76,7.56,4.329,7.547-6.102,7.584
				c-0.86,0.003-1.035-0.173-1.033-1.033c0.031-20.189,0.031-40.379,0-60.568c-0.001-0.86,0.173-1.034,1.033-1.033
				c20.958,0.03,41.917,0.03,62.875,0c0.86-0.001,1.035,0.173,1.033,1.033c-0.031,20.189-0.031,40.379,0,60.568
				c0.001,0.859-0.173,1.036-1.034,1.033C46.246,7.547,35.719,7.56,25.191,7.56z M25.946-1.957
				c12.373,0.101,22.382-10.321,22.56-22.069c0.195-12.851-10.332-22.554-21.746-22.896C13.557-47.319,3.36-36.525,3.424-24.42
				C3.492-11.804,13.99-1.932,25.946-1.957z"/>

		</g>
	</g>
</g>
<g>

	<g>
		<defs>
			<circle id="SVGID_3_" cx="27.1" cy="60.8" r="18.2"/>
		</defs>
		<clipPath id="SVGID_4_">
			<use xlink:href="#SVGID_3_"  style="overflow:visible;"/>
		</clipPath>
		<g class="st2">
			<g>
				<path class="st3" d="M26.6,92.9c-10.4,0-20.9,0-31.3,0c-0.8,0-1.2,0-1.2-1c0-20.2,0-40.4,0-60.6c0-0.9,0.2-1,1.1-1
					c21,0,41.9,0,62.9,0c0.9,0,1,0.2,1,1.1c0,20.2,0,40.4,0,60.6c0,0.9-0.2,1-1.1,1C47.6,92.9,37.1,92.9,26.6,92.9z M4,60.8
					C3.8,73.7,14.7,84.3,27.3,84.1C40.2,84,50.3,73.7,50.4,60.9c0-12.7-10.5-22.5-22-23.1C14.9,36.9,3.5,49.1,4,60.8z"/>
			</g>
		</g>
	</g>
</g>
<path class="st4" d="M21.4,27.2c-1.7,1.4-1.9,1.5-3.5,0.2c-0.4-0.3-0.5-0.3-0.8,0c-0.6,0.8-1.5,1.1-2.4,0.7c-1-0.5-1.6-1.4-1.5-2.4
	c0.1-1.3-0.4-2.1-1.2-3.1c-2-2.5-2-6-0.1-8.6c3.5-4.9,11.9-4.8,15.3,0.2c1.9,2.8,1.7,6.4-0.6,8.9c-0.7,0.7-1.1,1.4-1.1,2.5
	c0.1,1.2-0.5,2.2-1.7,2.6C22.8,28.6,22.1,27.9,21.4,27.2z M19.4,14.3c-1.9,0-3.2,0.5-4.3,1.6c-1.4,1.5-1.4,3.4,0,4.9
	c2.1,2.1,6.4,2.1,8.5,0c1.4-1.4,1.4-3.3,0-4.8C22.5,14.8,21.1,14.3,19.4,14.3z"/>

	<defs>
		<circle id="SVGID_3_" cx="18.643" cy="18.322" r="18.226"/>
	</defs>
	<clipPath id="SVGID_4_">
		<use xlink:href="#SVGID_3_"  overflow="visible"/>
	</clipPath>
	<g clip-path="url(#SVGID_4_)">
		<g>
			<path fill-rule="evenodd" clip-rule="evenodd" fill="#FEFDFE" d="M18.264-12.166c10.383,0,20.766,0.024,31.149-0.033
				c1.159-0.006,1.29,0.347,1.288,1.365c-0.032,19.949-0.041,39.898,0.017,59.847c0.004,1.313-0.386,1.436-1.516,1.434
				c-20.67-0.034-41.34-0.042-62.01,0.015c-1.313,0.004-1.436-0.386-1.434-1.516c0.036-19.901,0.043-39.802-0.015-59.703
				c-0.003-1.313,0.386-1.439,1.517-1.434C-2.406-12.147,7.929-12.166,18.264-12.166z M-4.411,18.568
				C-4.585,31.369,6.378,41.987,18.686,42.007c13.051,0.021,23.471-10.438,23.566-23.287C42.347,5.998,31.75-4.217,19.835-4.684
				C6.349-5.212-4.568,6.228-4.411,18.568z"/>
			<path fill-rule="evenodd" clip-rule="evenodd" fill="#E9E2ED" d="M-4.411,18.568C-4.568,6.228,6.349-5.212,19.835-4.684
				C31.75-4.217,42.347,5.998,42.252,18.72c-0.096,12.85-10.516,23.308-23.566,23.287C6.378,41.987-4.585,31.369-4.411,18.568z
				 M18.749,36.632c10.014,0.045,18.129-7.852,18.128-17.74C36.875,8.261,28.899,0.668,19.026,0.596
				C8.701,0.52,0.814,8.646,0.846,18.627C0.882,29.461,9.701,36.745,18.749,36.632z"/>
			<path fill-rule="evenodd" clip-rule="evenodd" fill="#91609D" d="M18.749,36.632C9.701,36.745,0.882,29.461,0.846,18.627
				C0.814,8.646,8.701,0.52,19.026,0.596c9.873,0.072,17.849,7.665,17.851,18.296C36.878,28.78,28.763,36.677,18.749,36.632z
				 M21.428,27.153c0.669,0.728,1.419,1.416,2.488,0.958c1.115-0.478,1.723-1.454,1.652-2.64c-0.064-1.075,0.383-1.748,1.065-2.492
				c2.29-2.497,2.479-6.093,0.568-8.896c-3.43-5.031-11.755-5.133-15.293-0.187c-1.904,2.662-1.922,6.112,0.091,8.643
				c0.744,0.936,1.276,1.79,1.187,3.058c-0.075,1.054,0.481,1.965,1.476,2.448c0.964,0.469,1.774,0.105,2.417-0.673
				c0.28-0.339,0.453-0.298,0.805-0.031C19.559,28.612,19.761,28.583,21.428,27.153z"/>
			<path fill-rule="evenodd" clip-rule="evenodd" fill="#FEFDFE" d="M21.428,27.153c-1.667,1.43-1.869,1.459-3.544,0.188
				c-0.352-0.267-0.524-0.308-0.805,0.031c-0.644,0.778-1.453,1.142-2.417,0.673c-0.995-0.483-1.551-1.395-1.476-2.448
				c0.09-1.268-0.442-2.122-1.187-3.058c-2.014-2.53-1.995-5.98-0.091-8.643c3.538-4.946,11.863-4.845,15.293,0.187
				c1.911,2.804,1.722,6.399-0.568,8.896c-0.683,0.744-1.129,1.417-1.065,2.492c0.071,1.186-0.537,2.162-1.652,2.64
				C22.847,28.569,22.097,27.881,21.428,27.153z M19.417,14.325c-1.86-0.005-3.236,0.513-4.306,1.62
				c-1.44,1.492-1.424,3.387,0.042,4.854c2.145,2.147,6.399,2.123,8.504-0.049c1.392-1.436,1.417-3.309,0.042-4.754
				C22.538,14.775,21.079,14.282,19.417,14.325z"/>
			<path fill-rule="evenodd" clip-rule="evenodd" fill="#91609D" d="M19.417,14.326c1.662-0.044,3.121,0.449,4.283,1.671
				c1.375,1.445,1.349,3.318-0.042,4.754c-2.105,2.172-6.36,2.196-8.504,0.049c-1.466-1.468-1.482-3.362-0.042-4.854
				C16.18,14.838,17.556,14.32,19.417,14.326z"/>
		</g>
	</g>
</g>
<g>
	<defs>
		<circle id="SVGID_5_" cx="27.055" cy="60.784" r="18.226"/>
	</defs>
	<clipPath id="SVGID_6_">
		<use xlink:href="#SVGID_5_"  overflow="visible"/>
	</clipPath>
	<g clip-path="url(#SVGID_6_)">
		<g>
			<path fill-rule="evenodd" clip-rule="evenodd" fill="#FEFDFD" d="M26.625,92.884c-10.431,0-20.862-0.007-31.293,0.014
				c-0.784,0.002-1.169-0.011-1.167-1.041c0.042-20.189,0.04-40.379,0.003-60.567c-0.001-0.912,0.246-1.013,1.055-1.012
				c20.958,0.025,41.917,0.028,62.875-0.008c0.911-0.001,1.012,0.245,1.011,1.056c-0.025,20.188-0.028,40.378,0.008,60.567
				c0.001,0.911-0.246,1.014-1.055,1.012C47.583,92.874,37.104,92.884,26.625,92.884z M4.001,60.819
				C3.782,73.692,14.698,84.304,27.264,84.143c12.949-0.166,23.052-10.436,23.102-23.285c0.049-12.685-10.514-22.456-22.028-23.135
				C14.854,36.928,3.468,49.101,4.001,60.819z"/>
		</g>
	</g>
</g>
</svg>
