<?xml version="1.0" encoding="utf-8"?>
<!-- Generator: Adobe Illustrator 22.0.0, SVG Export Plug-In . SVG Version: 6.00 Build 0)  -->
<svg version="1.1" id="Capa_1" xmlns="http://www.w3.org/2000/svg" xmlns:xlink="http://www.w3.org/1999/xlink" x="0px" y="0px"
	 viewBox="0 0 36.9 36.5" style="enable-background:new 0 0 36.9 36.5;" xml:space="preserve">
<style type="text/css">
	.st0{clip-path:url(#SVGID_2_);}
	.st1{fill:#FDFEFE;}
	.st2{clip-path:url(#SVGID_4_);}
	.st3{fill:#FEFDFD;}
	.st4{fill:#FEFDFE;}
</style>
<g>
	<g>
		<defs>
			<circle id="SVGID_1_" cx="25.7" cy="-24.5" r="18.2"/>
		</defs>
		<clipPath id="SVGID_2_">
			<use xlink:href="#SVGID_1_"  style="overflow:visible;"/>
		</clipPath>
		<g class="st0">
			<g>
				<path class="st1" d="M25.2,7.6c-10.4,0-20.9,0-31.3,0c-0.9,0-1-0.2-1-1c0-20.2,0-40.4,0-60.6c0-0.9,0.2-1,1-1
					c21,0,41.9,0,62.9,0c0.9,0,1,0.2,1,1c0,20.2,0,40.4,0,60.6c0,0.9-0.2,1-1,1C46.2,7.5,35.7,7.6,25.2,7.6z M25.9-2
					C38.3-1.9,48.3-12.3,48.5-24c0.2-12.9-10.3-22.6-21.7-22.9C13.6-47.3,3.4-36.5,3.4-24.4C3.5-11.8,14-1.9,25.9-2z"/>
			</g>
		</g>
	</g>
</g>
<g>
	<g>
		<defs>
			<circle id="SVGID_3_" cx="27.1" cy="60.8" r="18.2"/>
		</defs>
		<clipPath id="SVGID_4_">
			<use xlink:href="#SVGID_3_"  style="overflow:visible;"/>
		</clipPath>
		<g class="st2">
			<g>
				<path class="st3" d="M26.6,92.9c-10.4,0-20.9,0-31.3,0c-0.8,0-1.2,0-1.2-1c0-20.2,0-40.4,0-60.6c0-0.9,0.2-1,1.1-1
					c21,0,41.9,0,62.9,0c0.9,0,1,0.2,1,1.1c0,20.2,0,40.4,0,60.6c0,0.9-0.2,1-1.1,1C47.6,92.9,37.1,92.9,26.6,92.9z M4,60.8
					C3.8,73.7,14.7,84.3,27.3,84.1C40.2,84,50.3,73.7,50.4,60.9c0-12.7-10.5-22.5-22-23.1C14.9,36.9,3.5,49.1,4,60.8z"/>
			</g>
		</g>
	</g>
</g>
<path class="st4" d="M21.4,27.2c-1.7,1.4-1.9,1.5-3.5,0.2c-0.4-0.3-0.5-0.3-0.8,0c-0.6,0.8-1.5,1.1-2.4,0.7c-1-0.5-1.6-1.4-1.5-2.4
	c0.1-1.3-0.4-2.1-1.2-3.1c-2-2.5-2-6-0.1-8.6c3.5-4.9,11.9-4.8,15.3,0.2c1.9,2.8,1.7,6.4-0.6,8.9c-0.7,0.7-1.1,1.4-1.1,2.5
	c0.1,1.2-0.5,2.2-1.7,2.6C22.8,28.6,22.1,27.9,21.4,27.2z M19.4,14.3c-1.9,0-3.2,0.5-4.3,1.6c-1.4,1.5-1.4,3.4,0,4.9
	c2.1,2.1,6.4,2.1,8.5,0c1.4-1.4,1.4-3.3,0-4.8C22.5,14.8,21.1,14.3,19.4,14.3z"/>
</svg>
