<?xml version="1.0" encoding="utf-8"?>
<!-- Generator: Adobe Illustrator 22.0.0, SVG Export Plug-In . SVG Version: 6.00 Build 0)  -->
<svg version="1.1" id="Capa_1" xmlns="http://www.w3.org/2000/svg" xmlns:xlink="http://www.w3.org/1999/xlink" x="0px" y="0px"
	 viewBox="0 0 36.9 36.5" style="enable-background:new 0 0 36.9 36.5;" xml:space="preserve">
<style type="text/css">
	.st0{clip-path:url(#SVGID_2_);}
	.st1{fill:#FEFDFE;}
	.st2{clip-path:url(#SVGID_4_);}
	.st3{fill:#FEFEFE;}
	.st4{fill:#FEFDFD;}
</style>
<g>
	<g>
		<defs>
			<circle id="SVGID_1_" cx="10.3" cy="-24.3" r="18.2"/>
		</defs>
		<clipPath id="SVGID_2_">
			<use xlink:href="#SVGID_1_"  style="overflow:visible;"/>
		</clipPath>
		<g class="st0">
			<g>
				<path class="st1" d="M9.9-54.7c10.4,0,20.8,0,31.1,0c1.2,0,1.3,0.3,1.3,1.4c0,19.9,0,39.9,0,59.8c0,1.3-0.4,1.4-1.5,1.4
					c-20.7,0-41.3,0-62,0c-1.3,0-1.4-0.4-1.4-1.5c0-19.9,0-39.8,0-59.7c0-1.3,0.4-1.4,1.5-1.4C-10.7-54.7-0.4-54.7,9.9-54.7z
					 M-12.7-24C-12.9-11.2-2-0.6,10.4-0.6c13.1,0,23.5-10.4,23.6-23.3C34-36.6,23.4-46.8,11.5-47.3C-2-47.8-12.9-36.4-12.7-24z"/>
			</g>
		</g>
	</g>
</g>
<g>
	<g>
		<defs>
			<circle id="SVGID_3_" cx="64" cy="34.2" r="18.2"/>
		</defs>
		<clipPath id="SVGID_4_">
			<use xlink:href="#SVGID_3_"  style="overflow:visible;"/>
		</clipPath>
		<g class="st2">
			<g>
				<path class="st3" d="M63.6,66.3c-10.4,0-20.9,0-31.3,0c-0.8,0-1.2,0-1.2-1c0-20.2,0-40.4,0-60.6c0-0.9,0.2-1,1.1-1
					c21,0,41.9,0,62.9,0c0.9,0,1,0.2,1,1.1c0,20.2,0,40.4,0,60.6c0,0.9-0.2,1-1.1,1C84.5,66.3,74,66.3,63.6,66.3z M87.4,34.3
					c0-12.6-10.6-22.8-22.4-23C51.8,10.9,41,21.5,41,34.4c0,12.7,10.1,23.1,23.3,23.2C76.8,57.6,87.5,47.2,87.4,34.3z"/>
			</g>
		</g>
	</g>
</g>
<g>
	<path class="st4" d="M13.6,24.3c1.6-4.3,2.9-8.5,4.6-12.5c0.7-1.7,2.7-0.4,4-0.7c0.7-0.2,1.2,0,1.4,0.8c1.3,3.8,2.6,7.5,3.9,11.3
		c0.2,0.7,0.2,1.1-0.7,1.1C22.5,24.3,18.1,24.3,13.6,24.3z"/>
	<path class="st4" d="M9.7,24.3c1.1-2.9,2.1-5.6,3.2-8.4c0.3-0.7,2.6-1.3,3.1-0.8c0.3,0.3,0,0.5-0.1,0.8c-0.9,2.5-1.8,5-2.7,7.5
		c-0.2,0.6-0.6,0.9-1.3,0.9C11.1,24.3,10.4,24.3,9.7,24.3z"/>
</g>
</svg>
