<?xml version="1.0" encoding="utf-8"?>
<!-- Generator: Adobe Illustrator 16.0.0, SVG Export Plug-In . SVG Version: 6.00 Build 0)  -->
<!DOCTYPE svg PUBLIC "-//W3C//DTD SVG 1.1//EN" "http://www.w3.org/Graphics/SVG/1.1/DTD/svg11.dtd">
<svg version="1.1" id="Capa_1" xmlns="http://www.w3.org/2000/svg" xmlns:xlink="http://www.w3.org/1999/xlink" x="0px" y="0px"
	 width="36.9px" height="36.5px" viewBox="0 0 36.9 36.5" enable-background="new 0 0 36.9 36.5" xml:space="preserve">
<g>
	<defs>
		<circle id="SVGID_3_" cx="10.309" cy="-24.261" r="18.226"/>
	</defs>
	<clipPath id="SVGID_2_">
		<use xlink:href="#SVGID_3_"  overflow="visible"/>
	</clipPath>
	<g clip-path="url(#SVGID_2_)">
		<g>
			<path fill-rule="evenodd" clip-rule="evenodd" fill="#FEFDFE" d="M9.931-54.749c10.383,0,20.766,0.024,31.149-0.033
				c1.159-0.006,1.29,0.347,1.288,1.365c-0.032,19.949-0.041,39.898,0.017,59.847c0.004,1.313-0.386,1.436-1.516,1.434
				c-20.67-0.034-41.34-0.042-62.01,0.015c-1.313,0.004-1.436-0.386-1.434-1.516c0.036-19.901,0.043-39.802-0.015-59.703
				c-0.003-1.313,0.386-1.439,1.517-1.434C-10.739-54.73-0.404-54.749,9.931-54.749z M-12.744-24.015
				C-12.918-11.214-1.956-0.596,10.352-0.576c13.051,0.021,23.471-10.438,23.566-23.287C34.013-36.585,23.417-46.8,11.502-47.267
				C-1.985-47.795-12.902-36.355-12.744-24.015z"/>
		</g>
	</g>
</g>
<g>
	<defs>
		<circle id="SVGID_5_" cx="18.722" cy="18.201" r="18.226"/>
	</defs>
	<clipPath id="SVGID_4_">
		<use xlink:href="#SVGID_5_"  overflow="visible"/>
	</clipPath>
	<g clip-path="url(#SVGID_4_)">
		<g>
			<path fill-rule="evenodd" clip-rule="evenodd" fill="#FEFDFD" d="M18.291,50.301c-10.431,0-20.862-0.007-31.293,0.014
				c-0.784,0.002-1.169-0.011-1.167-1.041c0.042-20.189,0.04-40.379,0.003-60.567c-0.001-0.912,0.246-1.013,1.055-1.012
				c20.958,0.025,41.917,0.028,62.875-0.008c0.911-0.001,1.012,0.245,1.011,1.056C50.751,8.931,50.748,29.12,50.784,49.31
				c0.001,0.911-0.246,1.014-1.055,1.012C39.25,50.291,28.771,50.301,18.291,50.301z M-4.333,18.236
				C-4.552,31.109,6.365,41.721,18.931,41.56c12.949-0.166,23.052-10.436,23.102-23.285C42.081,5.59,31.518-4.182,20.004-4.86
				C6.52-5.655-4.866,6.518-4.333,18.236z"/>
			<path fill-rule="evenodd" clip-rule="evenodd" fill="#F6E8E0" d="M-4.333,18.236C-4.866,6.518,6.52-5.655,20.004-4.86
				C31.518-4.182,42.081,5.59,42.032,18.274c-0.05,12.85-10.152,23.119-23.102,23.285C6.365,41.721-4.552,31.109-4.333,18.236z
				 M18.815,0.303C8.756,0.296,0.868,8.23,0.78,18.262c-0.08,9.129,7.173,18.164,18.152,18.072
				c10.315-0.087,17.821-8.115,17.932-18.038C36.975,8.423,28.407,0.065,18.815,0.303z"/>
			<path fill-rule="evenodd" clip-rule="evenodd" fill="#CE8153" d="M18.815,0.303c9.591-0.237,18.159,8.12,18.048,17.993
				c-0.111,9.923-7.617,17.951-17.932,18.038C7.953,36.426,0.701,27.391,0.78,18.262C0.868,8.23,8.756,0.296,18.815,0.303z
				 M13.57,24.303c4.554,0,8.922-0.011,13.291,0.008c0.907,0.004,0.921-0.441,0.69-1.104c-1.311-3.757-2.638-7.509-3.911-11.279
				c-0.262-0.776-0.77-0.98-1.423-0.819c-1.353,0.335-3.302-0.989-4.032,0.727C16.477,15.849,15.129,20.017,13.57,24.303z
				 M9.656,24.338c0.78,0,1.491-0.035,2.195,0.011c0.695,0.045,1.031-0.277,1.253-0.896c0.898-2.501,1.83-4.99,2.733-7.49
				c0.086-0.24,0.327-0.515,0.067-0.779c-0.497-0.505-2.81,0.062-3.079,0.769C11.771,18.71,10.736,21.476,9.656,24.338z"/>
			<path fill-rule="evenodd" clip-rule="evenodd" fill="#FEFDFD" d="M13.57,24.303c1.559-4.286,2.907-8.454,4.615-12.469
				c0.729-1.716,2.679-0.392,4.032-0.727c0.653-0.161,1.161,0.043,1.423,0.819c1.273,3.771,2.6,7.522,3.911,11.279
				c0.231,0.663,0.217,1.108-0.69,1.104C22.492,24.292,18.124,24.303,13.57,24.303z"/>
			<path fill-rule="evenodd" clip-rule="evenodd" fill="#FEFDFD" d="M9.656,24.338c1.08-2.862,2.115-5.628,3.169-8.387
				c0.27-0.707,2.583-1.273,3.079-0.769c0.26,0.265,0.02,0.539-0.067,0.779c-0.903,2.5-1.835,4.989-2.733,7.49
				c-0.222,0.619-0.558,0.941-1.253,0.896C11.147,24.303,10.437,24.338,9.656,24.338z"/>
		</g>
	</g>
</g>
<g>
	<defs>
		<circle id="SVGID_7_" cx="63.988" cy="34.226" r="18.226"/>
	</defs>
	<clipPath id="SVGID_6_">
		<use xlink:href="#SVGID_7_"  overflow="visible"/>
	</clipPath>
	<g clip-path="url(#SVGID_6_)">
		<g>
			<path fill-rule="evenodd" clip-rule="evenodd" fill="#FEFEFE" d="M63.557,66.324c-10.431,0-20.862-0.007-31.293,0.014
				c-0.784,0.002-1.169-0.011-1.167-1.041c0.042-20.189,0.04-40.379,0.003-60.567c-0.001-0.912,0.246-1.013,1.055-1.012
				C53.114,3.743,74.072,3.746,95.031,3.71c0.911-0.001,1.012,0.245,1.011,1.056c-0.025,20.188-0.028,40.378,0.008,60.567
				c0.001,0.911-0.246,1.014-1.055,1.012C84.515,66.314,74.036,66.324,63.557,66.324z M87.37,34.299
				c0.026-12.594-10.604-22.751-22.392-23.041c-13.201-0.325-23.937,10.207-23.933,23.153c0.004,12.735,10.108,23.149,23.31,23.179
				C76.762,57.617,87.465,47.17,87.37,34.299z"/>
		</g>
	</g>
</g>
</svg>
