<?xml version="1.0" encoding="utf-8"?>
<!-- Generator: Adobe Illustrator 22.0.0, SVG Export Plug-In . SVG Version: 6.00 Build 0)  -->
<svg version="1.1" id="Capa_1" xmlns="http://www.w3.org/2000/svg" xmlns:xlink="http://www.w3.org/1999/xlink" x="0px" y="0px"
	 viewBox="0 0 36.9 36.5" style="enable-background:new 0 0 36.9 36.5;" xml:space="preserve">
<style type="text/css">
	.st0{clip-path:url(#SVGID_2_);}
	.st1{fill:#FEFDFD;}
	.st2{clip-path:url(#SVGID_4_);}
	.st3{fill:#FEFEFE;}
</style>
<g>
	<g>
		<defs>
			<circle id="SVGID_1_" cx="-26.6" cy="2.1" r="18.2"/>
		</defs>
		<clipPath id="SVGID_2_">
			<use xlink:href="#SVGID_1_"  style="overflow:visible;"/>
		</clipPath>
		<g class="st0">
			<g>
				<path class="st1" d="M-27,34.2c-10.4,0-20.9,0-31.3,0c-0.8,0-1.2,0-1.2-1c0-20.2,0-40.4,0-60.6c0-0.9,0.2-1,1.1-1
					c21,0,41.9,0,62.9,0c0.9,0,1,0.2,1,1.1c0,20.2,0,40.4,0,60.6c0,0.9-0.2,1-1.1,1C-6.1,34.2-16.6,34.2-27,34.2z M-49.7,2.2
					C-49.9,15-39,25.6-26.4,25.5C-13.5,25.3-3.4,15-3.3,2.2c0-12.7-10.5-22.5-22-23.1C-38.8-21.7-50.2-9.6-49.7,2.2z"/>
			</g>
		</g>
	</g>
</g>
<g>
	<g>
		<defs>
			<circle id="SVGID_3_" cx="62.7" cy="18.5" r="18.2"/>
		</defs>
		<clipPath id="SVGID_4_">
			<use xlink:href="#SVGID_3_"  style="overflow:visible;"/>
		</clipPath>
		<g class="st2">
			<g>
				<path class="st3" d="M62.3,50.6c-10.5,0-21,0-31.4,0c-0.9,0-1-0.2-1-1c0-20.2,0-40.4,0-60.6c0-0.9,0.2-1,1-1c21,0,41.9,0,62.9,0
					c0.9,0,1,0.2,1,1c0,20.2,0,40.4,0,60.6c0,0.9-0.2,1-1,1C83.3,50.6,72.8,50.6,62.3,50.6z M62.8,42C75.3,42.2,86,31.5,86,19.1
					C86,6,75.7-4.4,62.8-4.4c-12.6,0-22.7,10.4-23.2,22.5C39.2,31,50.4,42.3,62.8,42z"/>
			</g>
		</g>
	</g>
</g>
<path class="st3" d="M15.5,10.8c3.5-1.7,7.5-0.8,10,2.3c2.4,3,2.4,7.3,0.1,10.4c-2.4,3.1-6.5,4.1-10.3,2.4c1.6-0.5,3.3-0.9,5-1.2
	c3.4-0.5,5.5-3.5,5.1-6.9c-0.3-2.7-2.6-5.7-6-5.7C17.9,12.1,16.9,10.9,15.5,10.8z"/>
</svg>
