<?xml version="1.0" encoding="utf-8"?>

<!-- Generator: Adobe Illustrator 22.0.0, SVG Export Plug-In . SVG Version: 6.00 Build 0)  -->
<svg version="1.1" id="Capa_1" xmlns="http://www.w3.org/2000/svg" xmlns:xlink="http://www.w3.org/1999/xlink" x="0px" y="0px"
	 viewBox="0 0 36.9 36.5" style="enable-background:new 0 0 36.9 36.5;" xml:space="preserve">
<style type="text/css">
	.st0{clip-path:url(#SVGID_2_);}
	.st1{fill:#FEFDFD;}
	.st2{clip-path:url(#SVGID_4_);}
	.st3{fill:#FEFEFE;}
</style>
<g>
	<g>
		<defs>
			<circle id="SVGID_1_" cx="-26.6" cy="2.1" r="18.2"/>
		</defs>
		<clipPath id="SVGID_2_">
			<use xlink:href="#SVGID_1_"  style="overflow:visible;"/>
		</clipPath>
		<g class="st0">
			<g>
				<path class="st1" d="M-27,34.2c-10.4,0-20.9,0-31.3,0c-0.8,0-1.2,0-1.2-1c0-20.2,0-40.4,0-60.6c0-0.9,0.2-1,1.1-1
					c21,0,41.9,0,62.9,0c0.9,0,1,0.2,1,1.1c0,20.2,0,40.4,0,60.6c0,0.9-0.2,1-1.1,1C-6.1,34.2-16.6,34.2-27,34.2z M-49.7,2.2
					C-49.9,15-39,25.6-26.4,25.5C-13.5,25.3-3.4,15-3.3,2.2c0-12.7-10.5-22.5-22-23.1C-38.8-21.7-50.2-9.6-49.7,2.2z"/>
			</g>
<!-- Generator: Adobe Illustrator 16.0.0, SVG Export Plug-In . SVG Version: 6.00 Build 0)  -->
<!DOCTYPE svg PUBLIC "-//W3C//DTD SVG 1.1//EN" "http://www.w3.org/Graphics/SVG/1.1/DTD/svg11.dtd">
<svg version="1.1" id="Capa_1" xmlns="http://www.w3.org/2000/svg" xmlns:xlink="http://www.w3.org/1999/xlink" x="0px" y="0px"
	 width="36.9px" height="36.5px" viewBox="0 0 36.9 36.5" enable-background="new 0 0 36.9 36.5" xml:space="preserve">
<g>
	<defs>
		<circle id="SVGID_5_" cx="-26.611" cy="2.117" r="18.226"/>
	</defs>
	<clipPath id="SVGID_2_">
		<use xlink:href="#SVGID_5_"  overflow="visible"/>
	</clipPath>
	<g clip-path="url(#SVGID_2_)">
		<g>
			<path fill-rule="evenodd" clip-rule="evenodd" fill="#FEFDFD" d="M-27.042,34.217c-10.431,0-20.862-0.007-31.293,0.014
				c-0.784,0.002-1.169-0.011-1.167-1.041C-59.46,13-59.462-7.189-59.499-27.378c-0.001-0.912,0.246-1.013,1.055-1.012
				c20.958,0.025,41.917,0.028,62.875-0.008c0.911-0.001,1.012,0.245,1.011,1.056C5.418-7.153,5.415,13.036,5.451,33.226
				c0.001,0.911-0.246,1.014-1.055,1.012C-6.083,34.207-16.563,34.217-27.042,34.217z M-49.666,2.152
				c-0.219,12.873,10.697,23.484,23.263,23.323C-13.453,25.31-3.351,15.04-3.301,2.19c0.049-12.685-10.514-22.456-22.028-23.135
				C-38.813-21.739-50.199-9.566-49.666,2.152z"/>
		</g>
	</g>
</g>
<g>
	<g>
		<defs>
			<circle id="SVGID_3_" cx="62.7" cy="18.5" r="18.2"/>
		</defs>
		<clipPath id="SVGID_4_">
			<use xlink:href="#SVGID_3_"  style="overflow:visible;"/>
		</clipPath>
		<g class="st2">
			<g>
				<path class="st3" d="M62.3,50.6c-10.5,0-21,0-31.4,0c-0.9,0-1-0.2-1-1c0-20.2,0-40.4,0-60.6c0-0.9,0.2-1,1-1c21,0,41.9,0,62.9,0
					c0.9,0,1,0.2,1,1c0,20.2,0,40.4,0,60.6c0,0.9-0.2,1-1,1C83.3,50.6,72.8,50.6,62.3,50.6z M62.8,42C75.3,42.2,86,31.5,86,19.1
					C86,6,75.7-4.4,62.8-4.4c-12.6,0-22.7,10.4-23.2,22.5C39.2,31,50.4,42.3,62.8,42z"/>
			</g>
		</g>
	</g>
</g>
<path class="st3" d="M15.5,10.8c3.5-1.7,7.5-0.8,10,2.3c2.4,3,2.4,7.3,0.1,10.4c-2.4,3.1-6.5,4.1-10.3,2.4c1.6-0.5,3.3-0.9,5-1.2
	c3.4-0.5,5.5-3.5,5.1-6.9c-0.3-2.7-2.6-5.7-6-5.7C17.9,12.1,16.9,10.9,15.5,10.8z"/>
	<defs>
		<circle id="SVGID_7_" cx="18.655" cy="18.142" r="18.226"/>
	</defs>
	<clipPath id="SVGID_4_">
		<use xlink:href="#SVGID_7_"  overflow="visible"/>
	</clipPath>
	<g clip-path="url(#SVGID_4_)">
		<g>
			<path fill-rule="evenodd" clip-rule="evenodd" fill="#FEFEFE" d="M18.224,50.24c-10.431,0-20.862-0.007-31.293,0.014
				c-0.784,0.002-1.169-0.011-1.167-1.041c0.042-20.189,0.04-40.379,0.003-60.567c-0.001-0.912,0.246-1.013,1.055-1.012
				c20.958,0.025,41.917,0.028,62.875-0.008c0.911-0.001,1.012,0.245,1.011,1.056C50.684,8.87,50.681,29.06,50.717,49.249
				c0.001,0.911-0.246,1.014-1.055,1.012C39.182,50.23,28.703,50.24,18.224,50.24z M42.037,18.215
				C42.063,5.621,31.433-4.536,19.645-4.826C6.444-5.151-4.292,5.381-4.288,18.327c0.004,12.735,10.108,23.149,23.31,23.179
				C31.429,41.533,42.132,31.086,42.037,18.215z"/>
			<path fill-rule="evenodd" clip-rule="evenodd" fill="#DFDFE2" d="M42.037,18.215c0.096,12.871-10.608,23.318-23.015,23.291
				C5.82,41.477-4.284,31.063-4.288,18.327C-4.292,5.381,6.444-5.151,19.645-4.826C31.433-4.536,42.063,5.621,42.037,18.215z
				 M36.912,18.422c0.217-9.929-8.158-18.164-17.881-18.15C9.029,0.284,0.883,8.238,0.816,18.171
				c-0.067,9.896,8.098,18.174,17.962,18.212C28.779,36.422,36.866,28.412,36.912,18.422z"/>
			<path fill-rule="evenodd" clip-rule="evenodd" fill="#636573" d="M36.912,18.422c-0.046,9.99-8.133,18-18.134,17.961
				c-9.865-0.038-18.03-8.316-17.962-18.212C0.883,8.238,9.029,0.284,19.031,0.271C28.754,0.258,37.129,8.493,36.912,18.422z
				 M15.51,10.827c1.4,0.048,2.396,1.267,3.875,1.257c3.389-0.02,5.716,3.031,5.97,5.703c0.326,3.425-1.753,6.371-5.125,6.886
				c-1.727,0.264-3.368,0.695-5.014,1.203c3.85,1.702,7.881,0.777,10.325-2.37c2.382-3.068,2.361-7.4-0.052-10.396
				C23.035,10.063,19.006,9.089,15.51,10.827z"/>
			<path fill-rule="evenodd" clip-rule="evenodd" fill="#FEFEFE" d="M15.51,10.827c3.496-1.738,7.525-0.765,9.979,2.283
				c2.413,2.995,2.434,7.327,0.052,10.396c-2.444,3.147-6.475,4.072-10.325,2.37c1.646-0.508,3.287-0.939,5.014-1.203
				c3.372-0.515,5.451-3.461,5.125-6.886c-0.254-2.672-2.582-5.723-5.97-5.703C17.906,12.094,16.911,10.875,15.51,10.827z"/>
		</g>
	</g>
</g>
<g>
	<defs>
		<circle id="SVGID_15_" cx="62.718" cy="18.542" r="18.226"/>
	</defs>
	<clipPath id="SVGID_6_">
		<use xlink:href="#SVGID_15_"  overflow="visible"/>
	</clipPath>
	<g clip-path="url(#SVGID_6_)">
		<g>
			<path fill-rule="evenodd" clip-rule="evenodd" fill="#FEFEFE" d="M62.306,50.641c-10.479,0-20.958-0.013-31.438,0.024
				c-0.86,0.003-1.035-0.173-1.034-1.033c0.031-20.189,0.031-40.379,0-60.568c-0.001-0.859,0.172-1.034,1.033-1.033
				c20.958,0.03,41.917,0.03,62.875,0c0.859-0.001,1.035,0.172,1.034,1.033c-0.031,20.189-0.031,40.378,0,60.567
				c0.001,0.86-0.172,1.037-1.033,1.034C83.264,50.628,72.785,50.641,62.306,50.641z M62.818,41.99
				c12.476,0.248,23.23-10.498,23.229-22.923C86.045,6.017,75.651-4.369,62.803-4.369C50.202-4.368,40.093,6.054,39.639,18.151
				C39.157,30.998,50.405,42.304,62.818,41.99z"/>
		</g>
	</g>
</g>
</svg>
