<?xml version="1.0" encoding="utf-8"?>
<!-- Generator: Adobe Illustrator 22.0.0, SVG Export Plug-In . SVG Version: 6.00 Build 0)  -->
<svg version="1.1" id="Capa_1" xmlns="http://www.w3.org/2000/svg" xmlns:xlink="http://www.w3.org/1999/xlink" x="0px" y="0px"
	 viewBox="0 0 36.9 36.5" style="enable-background:new 0 0 36.9 36.5;" xml:space="preserve">
<style type="text/css">
	.st0{clip-path:url(#SVGID_2_);}
	.st1{fill:#FEFEFE;}
	.st2{clip-path:url(#SVGID_4_);}
	.st3{clip-path:url(#SVGID_6_);}
	.st4{fill:#FDFEFE;}
</style>
<g>
	<g>
		<defs>
			<circle id="SVGID_1_" cx="-25.9" cy="17.6" r="18.2"/>
		</defs>
		<clipPath id="SVGID_2_">
			<use xlink:href="#SVGID_1_"  style="overflow:visible;"/>
		</clipPath>
		<g class="st0">
			<g>
				<path class="st1" d="M-26.4,49.7c-10.4,0-20.9,0-31.3,0c-0.8,0-1.2,0-1.2-1c0-20.2,0-40.4,0-60.6c0-0.9,0.2-1,1.1-1
					c21,0,41.9,0,62.9,0c0.9,0,1,0.2,1,1.1c0,20.2,0,40.4,0,60.6c0,0.9-0.2,1-1.1,1C-5.4,49.7-15.9,49.7-26.4,49.7z M-2.5,17.7
					c0-12.6-10.6-22.8-22.4-23C-38.1-5.6-48.9,4.9-48.9,17.8c0,12.7,10.1,23.1,23.3,23.2C-13.2,41-2.5,30.6-2.5,17.7z"/>
			</g>
=======
<!-- Generator: Adobe Illustrator 16.0.0, SVG Export Plug-In . SVG Version: 6.00 Build 0)  -->
<!DOCTYPE svg PUBLIC "-//W3C//DTD SVG 1.1//EN" "http://www.w3.org/Graphics/SVG/1.1/DTD/svg11.dtd">
<svg version="1.1" id="Capa_1" xmlns="http://www.w3.org/2000/svg" xmlns:xlink="http://www.w3.org/1999/xlink" x="0px" y="0px"
	 width="36.9px" height="36.5px" viewBox="0 0 36.9 36.5" enable-background="new 0 0 36.9 36.5" xml:space="preserve">
<g>
	<defs>
		<circle id="SVGID_7_" cx="-25.929" cy="17.643" r="18.226"/>
	</defs>
	<clipPath id="SVGID_2_">
		<use xlink:href="#SVGID_7_"  overflow="visible"/>
	</clipPath>
	<g clip-path="url(#SVGID_2_)">
		<g>
			<path fill-rule="evenodd" clip-rule="evenodd" fill="#FEFEFE" d="M-26.36,49.741c-10.431,0-20.862-0.007-31.293,0.014
				c-0.784,0.002-1.169-0.011-1.167-1.041c0.042-20.189,0.04-40.379,0.003-60.567c-0.001-0.912,0.246-1.013,1.055-1.012
				c20.958,0.025,41.917,0.028,62.875-0.008c0.911-0.001,1.012,0.245,1.011,1.056C6.1,8.371,6.097,28.561,6.133,48.75
				c0.001,0.911-0.246,1.014-1.055,1.012C-5.401,49.731-15.88,49.741-26.36,49.741z M-2.547,17.716
				C-2.521,5.122-13.15-5.035-24.939-5.325C-38.14-5.65-48.876,4.882-48.872,17.828c0.004,12.735,10.108,23.149,23.31,23.179
				C-13.155,41.034-2.451,30.587-2.547,17.716z"/>
		</g>
	</g>
</g>
<g>
	<g>
		<defs>
			<circle id="SVGID_3_" cx="65.4" cy="21.6" r="18.2"/>
		</defs>
		<clipPath id="SVGID_4_">
			<use xlink:href="#SVGID_3_"  style="overflow:visible;"/>
		</clipPath>
		<g class="st2">
			<g>
				<path class="st1" d="M64.8,54c-10.4,0-20.8,0-31.1,0c-0.8,0-1.2,0-1.2-1c0-20.3,0-40.6,0-60.9c0-0.9,0.2-1,1.1-1
					c20.9,0,41.7,0,62.6,0c0.9,0,1,0.2,1,1.1c0,20.3,0,40.6,0,60.9c0,0.9-0.2,1-1.1,1C85.7,54,75.3,54,64.8,54z M65.6,45.4
					c12.7,0.1,23.1-10.6,23.5-22.6C89.4,9.1,78.6-1.5,65.6-1.5c-13,0-23.5,10.4-23.5,23.6C42.2,34.7,52.6,45.3,65.6,45.4z"/>
			</g>
	<defs>
		<circle id="SVGID_9_" cx="65.403" cy="21.647" r="18.226"/>
	</defs>
	<clipPath id="SVGID_4_">
		<use xlink:href="#SVGID_9_"  overflow="visible"/>
	</clipPath>
	<g clip-path="url(#SVGID_4_)">
		<g>
			<path fill-rule="evenodd" clip-rule="evenodd" fill="#FEFEFE" d="M64.829,54.035c-10.383,0-20.766-0.007-31.149,0.014
				c-0.784,0.002-1.168-0.011-1.167-1.041c0.042-20.285,0.04-40.57,0.003-60.855c-0.001-0.912,0.246-1.013,1.055-1.012
				c20.862,0.025,41.724,0.028,62.586-0.008c0.911-0.001,1.012,0.245,1.011,1.056c-0.024,20.285-0.027,40.57,0.009,60.855
				c0.001,0.911-0.246,1.014-1.056,1.012C85.691,54.025,75.259,54.035,64.829,54.035z M65.6,45.383
				c12.67,0.108,23.115-10.608,23.452-22.562C89.439,9.091,78.567-1.498,65.635-1.514C52.66-1.529,42.163,8.873,42.163,22.083
				C42.163,34.692,52.612,45.349,65.6,45.383z"/>
		</g>
	</g>
</g>
<g>
	<g>
		<defs>
			<circle id="SVGID_5_" cx="65.4" cy="-23.6" r="18.2"/>
		</defs>
		<clipPath id="SVGID_6_">
			<use xlink:href="#SVGID_5_"  style="overflow:visible;"/>
		</clipPath>
		<g class="st3">
			<g>
				<path class="st4" d="M32.5-54.1c21.2,0,42.3,0,63.5,0c1,0,1.2,0.2,1.2,1.2c0,20.2,0,40.4,0,60.6c0,1-0.2,1.2-1.2,1.2
					c-20.8,0-41.5,0-62.3,0c-1,0-1.2-0.2-1.2-1.2C32.6-13,32.5-33.5,32.5-54.1z M42.6-23.6C42-11.2,53.3-0.9,64.4-0.4
					c13.1,0.6,23.7-10.9,24.1-22.2C89-35.7,77.4-45.8,67.1-46.4C52.9-47.3,41.8-34.4,42.6-23.6z"/>
			</g>
		</g>
	</g>
</g>
<path class="st1" d="M18.2,10c4.7,0,8.6,3.7,8.4,8.3c-0.1,4.9-3.7,8.3-8.4,8.4c-4,0.1-8.6-3.5-8.4-8.4C9.9,13.7,13.2,10,18.2,10z
	 M18.3,23.1c2.7,0,4.8-2.1,4.8-4.7c0-2.6-2.2-4.8-4.7-4.8c-2.7,0-4.8,2.1-4.8,4.9C13.5,21.1,15.6,23.1,18.3,23.1z"/>
	<defs>
		<circle id="SVGID_15_" cx="18.135" cy="18.043" r="18.226"/>
	</defs>
	<clipPath id="SVGID_6_">
		<use xlink:href="#SVGID_15_"  overflow="visible"/>
	</clipPath>
	<g clip-path="url(#SVGID_6_)">
		<g>
			<path fill-rule="evenodd" clip-rule="evenodd" fill="#FEFEFE" d="M17.722,50.142c-10.479,0-20.958-0.013-31.438,0.024
				c-0.86,0.003-1.035-0.173-1.034-1.033c0.031-20.189,0.031-40.379,0-60.568c-0.001-0.859,0.172-1.034,1.033-1.033
				c20.958,0.03,41.917,0.03,62.875,0c0.859-0.001,1.035,0.172,1.034,1.033c-0.031,20.189-0.031,40.378,0,60.567
				c0.001,0.86-0.172,1.037-1.033,1.034C38.681,50.129,28.201,50.142,17.722,50.142z M18.234,41.491
				c12.476,0.248,23.23-10.498,23.229-22.923C41.461,5.518,31.067-4.868,18.22-4.868C5.618-4.867-4.491,5.555-4.945,17.652
				C-5.427,30.499,5.821,41.805,18.234,41.491z"/>
			<path fill-rule="evenodd" clip-rule="evenodd" fill="#E3E2E5" d="M18.234,41.491C5.821,41.805-5.427,30.499-4.945,17.652
				C-4.491,5.555,5.618-4.867,18.22-4.868c12.848,0,23.242,10.386,23.244,23.437C41.465,30.993,30.71,41.739,18.234,41.491z
				 M18.175,36.34c9.582,0.177,18.014-7.35,18.107-17.877c0.093-10.487-8.137-18.04-18.042-18.149
				C8.117,0.202,0.254,8.247,0.236,18.286C0.218,28.359,8.148,36.332,18.175,36.34z"/>
			<path fill-rule="evenodd" clip-rule="evenodd" fill="#9A9EA0" d="M18.175,36.34C8.148,36.332,0.218,28.359,0.236,18.286
				C0.254,8.247,8.117,0.202,18.241,0.313c9.904,0.109,18.134,7.662,18.042,18.149C36.189,28.99,27.757,36.517,18.175,36.34z
				 M18.233,10.011c-5.058-0.009-8.299,3.664-8.415,8.419c-0.118,4.873,4.442,8.48,8.448,8.363c4.668-0.137,8.265-3.511,8.403-8.438
				C26.8,13.694,22.904,10.007,18.233,10.011z"/>
			<path fill-rule="evenodd" clip-rule="evenodd" fill="#FEFEFE" d="M18.233,10.011c4.67-0.004,8.567,3.684,8.437,8.345
				c-0.138,4.927-3.735,8.301-8.403,8.438c-4.006,0.117-8.566-3.49-8.448-8.363C9.934,13.675,13.176,10.002,18.233,10.011z
				 M18.275,23.091c2.671-0.009,4.781-2.093,4.779-4.72c-0.002-2.578-2.194-4.813-4.747-4.84c-2.695-0.027-4.818,2.121-4.809,4.867
				C13.508,21.087,15.556,23.099,18.275,23.091z"/>
			<path fill-rule="evenodd" clip-rule="evenodd" fill="#9A9EA0" d="M18.275,23.091c-2.719,0.008-4.767-2.004-4.776-4.692
				c-0.009-2.746,2.114-4.895,4.809-4.867c2.552,0.026,4.745,2.262,4.747,4.84C23.056,20.998,20.946,23.082,18.275,23.091z"/>
		</g>
	</g>
</g>
<g>
	<defs>
		<circle id="SVGID_29_" cx="65.403" cy="-23.618" r="18.226"/>
	</defs>
	<clipPath id="SVGID_8_">
		<use xlink:href="#SVGID_29_"  overflow="visible"/>
	</clipPath>
	<g clip-path="url(#SVGID_8_)">
		<g>
			<path fill-rule="evenodd" clip-rule="evenodd" fill="#FDFEFE" d="M32.544-54.106c21.15,0,42.301,0.009,63.452-0.027
				c0.987-0.002,1.184,0.193,1.182,1.182c-0.037,20.188-0.037,40.378,0,60.567c0.002,0.987-0.194,1.184-1.182,1.182
				c-20.766-0.037-41.532-0.037-62.298,0c-0.987,0.002-1.183-0.194-1.181-1.182C32.553-12.958,32.544-33.532,32.544-54.106z
				 M42.636-23.583C42.014-11.152,53.315-0.915,64.44-0.397c13.107,0.61,23.737-10.864,24.123-22.212
				c0.444-13.071-11.205-23.153-21.502-23.815C52.873-47.337,41.765-34.435,42.636-23.583z"/>
		</g>
	</g>
</g>
</svg>
