<?xml version="1.0" encoding="utf-8"?>
<!-- Generator: Adobe Illustrator 22.0.0, SVG Export Plug-In . SVG Version: 6.00 Build 0)  -->
<svg version="1.1" id="Capa_1" xmlns="http://www.w3.org/2000/svg" xmlns:xlink="http://www.w3.org/1999/xlink" x="0px" y="0px"
	 viewBox="0 0 36.9 36.5" style="enable-background:new 0 0 36.9 36.5;" xml:space="preserve">
<style type="text/css">
	.st0{clip-path:url(#SVGID_2_);}
	.st1{fill:#FEFEFE;}
	.st2{clip-path:url(#SVGID_4_);}
	.st3{clip-path:url(#SVGID_6_);}
	.st4{fill:#FDFEFE;}
</style>
<g>
	<g>
		<defs>
			<circle id="SVGID_1_" cx="-25.9" cy="17.6" r="18.2"/>
		</defs>
		<clipPath id="SVGID_2_">
			<use xlink:href="#SVGID_1_"  style="overflow:visible;"/>
		</clipPath>
		<g class="st0">
			<g>
				<path class="st1" d="M-26.4,49.7c-10.4,0-20.9,0-31.3,0c-0.8,0-1.2,0-1.2-1c0-20.2,0-40.4,0-60.6c0-0.9,0.2-1,1.1-1
					c21,0,41.9,0,62.9,0c0.9,0,1,0.2,1,1.1c0,20.2,0,40.4,0,60.6c0,0.9-0.2,1-1.1,1C-5.4,49.7-15.9,49.7-26.4,49.7z M-2.5,17.7
					c0-12.6-10.6-22.8-22.4-23C-38.1-5.6-48.9,4.9-48.9,17.8c0,12.7,10.1,23.1,23.3,23.2C-13.2,41-2.5,30.6-2.5,17.7z"/>
			</g>
		</g>
	</g>
</g>
<g>
	<g>
		<defs>
			<circle id="SVGID_3_" cx="65.4" cy="21.6" r="18.2"/>
		</defs>
		<clipPath id="SVGID_4_">
			<use xlink:href="#SVGID_3_"  style="overflow:visible;"/>
		</clipPath>
		<g class="st2">
			<g>
				<path class="st1" d="M64.8,54c-10.4,0-20.8,0-31.1,0c-0.8,0-1.2,0-1.2-1c0-20.3,0-40.6,0-60.9c0-0.9,0.2-1,1.1-1
					c20.9,0,41.7,0,62.6,0c0.9,0,1,0.2,1,1.1c0,20.3,0,40.6,0,60.9c0,0.9-0.2,1-1.1,1C85.7,54,75.3,54,64.8,54z M65.6,45.4
					c12.7,0.1,23.1-10.6,23.5-22.6C89.4,9.1,78.6-1.5,65.6-1.5c-13,0-23.5,10.4-23.5,23.6C42.2,34.7,52.6,45.3,65.6,45.4z"/>
			</g>
		</g>
	</g>
</g>
<g>
	<g>
		<defs>
			<circle id="SVGID_5_" cx="65.4" cy="-23.6" r="18.2"/>
		</defs>
		<clipPath id="SVGID_6_">
			<use xlink:href="#SVGID_5_"  style="overflow:visible;"/>
		</clipPath>
		<g class="st3">
			<g>
				<path class="st4" d="M32.5-54.1c21.2,0,42.3,0,63.5,0c1,0,1.2,0.2,1.2,1.2c0,20.2,0,40.4,0,60.6c0,1-0.2,1.2-1.2,1.2
					c-20.8,0-41.5,0-62.3,0c-1,0-1.2-0.2-1.2-1.2C32.6-13,32.5-33.5,32.5-54.1z M42.6-23.6C42-11.2,53.3-0.9,64.4-0.4
					c13.1,0.6,23.7-10.9,24.1-22.2C89-35.7,77.4-45.8,67.1-46.4C52.9-47.3,41.8-34.4,42.6-23.6z"/>
			</g>
		</g>
	</g>
</g>
<path class="st1" d="M18.2,10c4.7,0,8.6,3.7,8.4,8.3c-0.1,4.9-3.7,8.3-8.4,8.4c-4,0.1-8.6-3.5-8.4-8.4C9.9,13.7,13.2,10,18.2,10z
	 M18.3,23.1c2.7,0,4.8-2.1,4.8-4.7c0-2.6-2.2-4.8-4.7-4.8c-2.7,0-4.8,2.1-4.8,4.9C13.5,21.1,15.6,23.1,18.3,23.1z"/>
</svg>
