<?xml version="1.0" encoding="utf-8"?>
<!-- Generator: Adobe Illustrator 16.0.0, SVG Export Plug-In . SVG Version: 6.00 Build 0)  -->
<!DOCTYPE svg PUBLIC "-//W3C//DTD SVG 1.1//EN" "http://www.w3.org/Graphics/SVG/1.1/DTD/svg11.dtd">
<svg version="1.1" id="Capa_1" xmlns="http://www.w3.org/2000/svg" xmlns:xlink="http://www.w3.org/1999/xlink" x="0px" y="0px"
	 width="36.9px" height="36.5px" viewBox="0 0 36.9 36.5" enable-background="new 0 0 36.9 36.5" xml:space="preserve">
<g>
	<defs>
		<circle id="SVGID_7_" cx="-25.929" cy="17.643" r="18.226"/>
	</defs>
	<clipPath id="SVGID_2_">
		<use xlink:href="#SVGID_7_"  overflow="visible"/>
	</clipPath>
	<g clip-path="url(#SVGID_2_)">
		<g>
			<path fill-rule="evenodd" clip-rule="evenodd" fill="#FEFEFE" d="M-26.36,49.741c-10.431,0-20.862-0.007-31.293,0.014
				c-0.784,0.002-1.169-0.011-1.167-1.041c0.042-20.189,0.04-40.379,0.003-60.567c-0.001-0.912,0.246-1.013,1.055-1.012
				c20.958,0.025,41.917,0.028,62.875-0.008c0.911-0.001,1.012,0.245,1.011,1.056C6.1,8.371,6.097,28.561,6.133,48.75
				c0.001,0.911-0.246,1.014-1.055,1.012C-5.401,49.731-15.88,49.741-26.36,49.741z M-2.547,17.716
				C-2.521,5.122-13.15-5.035-24.939-5.325C-38.14-5.65-48.876,4.882-48.872,17.828c0.004,12.735,10.108,23.149,23.31,23.179
				C-13.155,41.034-2.451,30.587-2.547,17.716z"/>
		</g>
	</g>
</g>
<g>
	<defs>
		<circle id="SVGID_9_" cx="65.403" cy="21.647" r="18.226"/>
	</defs>
	<clipPath id="SVGID_4_">
		<use xlink:href="#SVGID_9_"  overflow="visible"/>
	</clipPath>
	<g clip-path="url(#SVGID_4_)">
		<g>
			<path fill-rule="evenodd" clip-rule="evenodd" fill="#FEFEFE" d="M64.829,54.035c-10.383,0-20.766-0.007-31.149,0.014
				c-0.784,0.002-1.168-0.011-1.167-1.041c0.042-20.285,0.04-40.57,0.003-60.855c-0.001-0.912,0.246-1.013,1.055-1.012
				c20.862,0.025,41.724,0.028,62.586-0.008c0.911-0.001,1.012,0.245,1.011,1.056c-0.024,20.285-0.027,40.57,0.009,60.855
				c0.001,0.911-0.246,1.014-1.056,1.012C85.691,54.025,75.259,54.035,64.829,54.035z M65.6,45.383
				c12.67,0.108,23.115-10.608,23.452-22.562C89.439,9.091,78.567-1.498,65.635-1.514C52.66-1.529,42.163,8.873,42.163,22.083
				C42.163,34.692,52.612,45.349,65.6,45.383z"/>
		</g>
	</g>
</g>
<g>
	<defs>
		<circle id="SVGID_15_" cx="18.135" cy="18.043" r="18.226"/>
	</defs>
	<clipPath id="SVGID_6_">
		<use xlink:href="#SVGID_15_"  overflow="visible"/>
	</clipPath>
	<g clip-path="url(#SVGID_6_)">
		<g>
			<path fill-rule="evenodd" clip-rule="evenodd" fill="#FEFEFE" d="M17.722,50.142c-10.479,0-20.958-0.013-31.438,0.024
				c-0.86,0.003-1.035-0.173-1.034-1.033c0.031-20.189,0.031-40.379,0-60.568c-0.001-0.859,0.172-1.034,1.033-1.033
				c20.958,0.03,41.917,0.03,62.875,0c0.859-0.001,1.035,0.172,1.034,1.033c-0.031,20.189-0.031,40.378,0,60.567
				c0.001,0.86-0.172,1.037-1.033,1.034C38.681,50.129,28.201,50.142,17.722,50.142z M18.234,41.491
				c12.476,0.248,23.23-10.498,23.229-22.923C41.461,5.518,31.067-4.868,18.22-4.868C5.618-4.867-4.491,5.555-4.945,17.652
				C-5.427,30.499,5.821,41.805,18.234,41.491z"/>
			<path fill-rule="evenodd" clip-rule="evenodd" fill="#E3E2E5" d="M18.234,41.491C5.821,41.805-5.427,30.499-4.945,17.652
				C-4.491,5.555,5.618-4.867,18.22-4.868c12.848,0,23.242,10.386,23.244,23.437C41.465,30.993,30.71,41.739,18.234,41.491z
				 M18.175,36.34c9.582,0.177,18.014-7.35,18.107-17.877c0.093-10.487-8.137-18.04-18.042-18.149
				C8.117,0.202,0.254,8.247,0.236,18.286C0.218,28.359,8.148,36.332,18.175,36.34z"/>
			<path fill-rule="evenodd" clip-rule="evenodd" fill="#9A9EA0" d="M18.175,36.34C8.148,36.332,0.218,28.359,0.236,18.286
				C0.254,8.247,8.117,0.202,18.241,0.313c9.904,0.109,18.134,7.662,18.042,18.149C36.189,28.99,27.757,36.517,18.175,36.34z
				 M18.233,10.011c-5.058-0.009-8.299,3.664-8.415,8.419c-0.118,4.873,4.442,8.48,8.448,8.363c4.668-0.137,8.265-3.511,8.403-8.438
				C26.8,13.694,22.904,10.007,18.233,10.011z"/>
			<path fill-rule="evenodd" clip-rule="evenodd" fill="#FEFEFE" d="M18.233,10.011c4.67-0.004,8.567,3.684,8.437,8.345
				c-0.138,4.927-3.735,8.301-8.403,8.438c-4.006,0.117-8.566-3.49-8.448-8.363C9.934,13.675,13.176,10.002,18.233,10.011z
				 M18.275,23.091c2.671-0.009,4.781-2.093,4.779-4.72c-0.002-2.578-2.194-4.813-4.747-4.84c-2.695-0.027-4.818,2.121-4.809,4.867
				C13.508,21.087,15.556,23.099,18.275,23.091z"/>
			<path fill-rule="evenodd" clip-rule="evenodd" fill="#9A9EA0" d="M18.275,23.091c-2.719,0.008-4.767-2.004-4.776-4.692
				c-0.009-2.746,2.114-4.895,4.809-4.867c2.552,0.026,4.745,2.262,4.747,4.84C23.056,20.998,20.946,23.082,18.275,23.091z"/>
		</g>
	</g>
</g>
<g>
	<defs>
		<circle id="SVGID_29_" cx="65.403" cy="-23.618" r="18.226"/>
	</defs>
	<clipPath id="SVGID_8_">
		<use xlink:href="#SVGID_29_"  overflow="visible"/>
	</clipPath>
	<g clip-path="url(#SVGID_8_)">
		<g>
			<path fill-rule="evenodd" clip-rule="evenodd" fill="#FDFEFE" d="M32.544-54.106c21.15,0,42.301,0.009,63.452-0.027
				c0.987-0.002,1.184,0.193,1.182,1.182c-0.037,20.188-0.037,40.378,0,60.567c0.002,0.987-0.194,1.184-1.182,1.182
				c-20.766-0.037-41.532-0.037-62.298,0c-0.987,0.002-1.183-0.194-1.181-1.182C32.553-12.958,32.544-33.532,32.544-54.106z
				 M42.636-23.583C42.014-11.152,53.315-0.915,64.44-0.397c13.107,0.61,23.737-10.864,24.123-22.212
				c0.444-13.071-11.205-23.153-21.502-23.815C52.873-47.337,41.765-34.435,42.636-23.583z"/>
		</g>
	</g>
</g>
</svg>
