<?xml version="1.0" encoding="utf-8"?>
<!-- Generator: Adobe Illustrator 22.0.0, SVG Export Plug-In . SVG Version: 6.00 Build 0)  -->
<svg version="1.1" id="Capa_1" xmlns="http://www.w3.org/2000/svg" xmlns:xlink="http://www.w3.org/1999/xlink" x="0px" y="0px"
	 viewBox="0 0 36.9 36.5" style="enable-background:new 0 0 36.9 36.5;" xml:space="preserve">
<style type="text/css">
	.st0{clip-path:url(#SVGID_2_);}
	.st1{fill:#FEFEFE;}
	.st2{clip-path:url(#SVGID_4_);}
	.st3{fill:#FDFEFE;}
</style>
<g>
	<g>
		<defs>
			<circle id="SVGID_1_" cx="-28.2" cy="14.6" r="18.2"/>
		</defs>
		<clipPath id="SVGID_2_">
			<use xlink:href="#SVGID_1_"  style="overflow:visible;"/>
		</clipPath>
		<g class="st0">
			<g>
				<path class="st1" d="M-28.6,46.7c-10.5,0-21,0-31.4,0c-0.9,0-1-0.2-1-1c0-20.2,0-40.4,0-60.6c0-0.9,0.2-1,1-1
					c21,0,41.9,0,62.9,0c0.9,0,1,0.2,1,1c0,20.2,0,40.4,0,60.6c0,0.9-0.2,1-1,1C-7.6,46.7-18.1,46.7-28.6,46.7z M-28.1,38.1
					c12.5,0.2,23.2-10.5,23.2-22.9c0-13.1-10.4-23.4-23.2-23.4c-12.6,0-22.7,10.4-23.2,22.5C-51.7,27.1-40.5,38.4-28.1,38.1z"/>
			</g>
<!-- Generator: Adobe Illustrator 16.0.0, SVG Export Plug-In . SVG Version: 6.00 Build 0)  -->
<!DOCTYPE svg PUBLIC "-//W3C//DTD SVG 1.1//EN" "http://www.w3.org/Graphics/SVG/1.1/DTD/svg11.dtd">
<svg version="1.1" id="Capa_1" xmlns="http://www.w3.org/2000/svg" xmlns:xlink="http://www.w3.org/1999/xlink" x="0px" y="0px"
	 width="36.9px" height="36.5px" viewBox="0 0 36.9 36.5" enable-background="new 0 0 36.9 36.5" xml:space="preserve">
<g>
	<defs>
		<circle id="SVGID_9_" cx="19.112" cy="18.23" r="18.226"/>
	</defs>
	<clipPath id="SVGID_2_">
		<use xlink:href="#SVGID_9_"  overflow="visible"/>
	</clipPath>
	<g clip-path="url(#SVGID_2_)">
		<g>
			<path fill-rule="evenodd" clip-rule="evenodd" fill="#FEFEFE" d="M18.537,50.618c-10.383,0-20.766-0.007-31.149,0.014
				c-0.784,0.002-1.168-0.011-1.167-1.041c0.042-20.285,0.04-40.57,0.003-60.855c-0.001-0.912,0.246-1.013,1.055-1.012
				c20.862,0.025,41.724,0.028,62.586-0.008c0.911-0.001,1.012,0.245,1.011,1.056c-0.024,20.285-0.027,40.57,0.009,60.855
				c0.001,0.911-0.246,1.014-1.056,1.012C39.399,50.608,28.968,50.618,18.537,50.618z M19.309,41.966
				c12.67,0.108,23.115-10.608,23.452-22.562C43.147,5.674,32.275-4.915,19.344-4.931C6.369-4.946-4.128,5.456-4.128,18.666
				C-4.128,31.275,6.32,41.932,19.309,41.966z"/>
			<path fill-rule="evenodd" clip-rule="evenodd" fill="#F4F2EA" d="M19.309,41.966C6.32,41.932-4.128,31.275-4.128,18.666
				c0-13.21,10.497-23.612,23.472-23.597C32.275-4.915,43.147,5.674,42.761,19.404C42.424,31.357,31.979,42.074,19.309,41.966z
				 M37.33,18.547C37.338,8.601,29.566,0.497,19.362,0.5C9.386,0.503,1.281,8.182,1.316,18.643
				c0.035,10.368,8.479,17.952,18.002,17.886C29.389,36.458,37.33,28.598,37.33,18.547z"/>
			<path fill-rule="evenodd" clip-rule="evenodd" fill="#C9BC8B" d="M37.33,18.547c0,10.051-7.941,17.911-18.012,17.981
				C9.795,36.595,1.352,29.011,1.316,18.643C1.281,8.182,9.386,0.503,19.362,0.5C29.566,0.497,37.338,8.601,37.33,18.547z
				 M10.771,20.973c0.143,0.632-0.257,1.363,0.21,1.939c0.662,0.815,3.643,1.201,4.521,0.601c2.218-1.516,4.421-3.054,6.63-4.582
				c0.4-0.276,0.712-0.563,0.771-1.126c0.146-1.379,0.287-2.771,0.608-4.115c0.272-1.139-0.262-1.166-1.1-1.146
				c-1.536,0.037-3.074,0.053-4.609-0.005c-0.935-0.035-1.592,0.196-2.196,0.995c-1.212,1.606-2.501,3.168-3.891,4.62
				C10.909,18.997,10.564,19.848,10.771,20.973z M16.238,24.345c2.679,2.189,4.89,1.038,7.081-0.837
				c1.558-1.332,1.632-1.661,0.234-3.237c-0.413-0.467-0.691-0.479-1.188-0.129C20.332,21.572,18.267,22.959,16.238,24.345z
				 M25.106,12.517c-0.476,1.53-0.501,2.972-0.867,4.324c-0.38,1.408,0.022,2.421,0.806,3.574c0.79,1.163,1.325,0.988,2.198,0.211
				c0.472-0.421,0.42-0.772,0.264-1.255c-0.458-1.412-0.86-2.843-1.355-4.241C25.861,14.312,25.855,13.364,25.106,12.517z"/>
			<path fill-rule="evenodd" clip-rule="evenodd" fill="#FEFEFE" d="M10.771,20.973c-0.207-1.125,0.139-1.976,0.946-2.819
				c1.39-1.452,2.679-3.014,3.891-4.62c0.604-0.799,1.261-1.03,2.196-0.995c1.535,0.058,3.073,0.042,4.609,0.005
				c0.838-0.02,1.372,0.008,1.1,1.146c-0.321,1.344-0.463,2.736-0.608,4.115c-0.06,0.563-0.371,0.85-0.771,1.126
				c-2.209,1.528-4.412,3.066-6.63,4.582c-0.879,0.601-3.86,0.215-4.521-0.601C10.514,22.336,10.913,21.604,10.771,20.973z"/>
			<path fill-rule="evenodd" clip-rule="evenodd" fill="#FEFEFE" d="M16.238,24.345c2.029-1.386,4.094-2.772,6.127-4.203
				c0.497-0.351,0.775-0.338,1.188,0.129c1.397,1.576,1.323,1.905-0.234,3.237C21.128,25.383,18.917,26.534,16.238,24.345z"/>
			<path fill-rule="evenodd" clip-rule="evenodd" fill="#FEFEFE" d="M25.106,12.517c0.749,0.848,0.755,1.795,1.045,2.613
				c0.495,1.398,0.897,2.829,1.355,4.241c0.156,0.482,0.208,0.834-0.264,1.255c-0.873,0.777-1.408,0.952-2.198-0.211
				c-0.783-1.153-1.186-2.166-0.806-3.574C24.605,15.488,24.631,14.047,25.106,12.517z"/>
		</g>
	</g>
</g>
<g>
	<g>
		<defs>
			<circle id="SVGID_3_" cx="19.1" cy="-27" r="18.2"/>
		</defs>
		<clipPath id="SVGID_4_">
			<use xlink:href="#SVGID_3_"  style="overflow:visible;"/>
		</clipPath>
		<g class="st2">
			<g>
				<path class="st3" d="M-13.7-57.5c21.1,0,42.3,0,63.5,0c1,0,1.2,0.2,1.2,1.2c0,20.2,0,40.4,0,60.6c0,1-0.2,1.2-1.2,1.2
					c-20.8,0-41.5,0-62.3,0c-1,0-1.2-0.2-1.2-1.2C-13.7-16.4-13.7-36.9-13.7-57.5z M-3.7-27C-4.3-14.6,7-4.3,18.1-3.8
					C31.3-3.2,41.9-14.7,42.3-26c0.4-13.1-11.2-23.2-21.5-23.8C6.6-50.8-4.5-37.9-3.7-27z"/>
			</g>
	<defs>
		<circle id="SVGID_15_" cx="-28.157" cy="14.626" r="18.226"/>
	</defs>
	<clipPath id="SVGID_4_">
		<use xlink:href="#SVGID_15_"  overflow="visible"/>
	</clipPath>
	<g clip-path="url(#SVGID_4_)">
		<g>
			<path fill-rule="evenodd" clip-rule="evenodd" fill="#FEFEFE" d="M-28.569,46.725c-10.479,0-20.958-0.013-31.438,0.024
				c-0.86,0.003-1.035-0.173-1.034-1.033c0.031-20.189,0.031-40.379,0-60.568c-0.001-0.859,0.172-1.034,1.033-1.033
				c20.958,0.03,41.917,0.03,62.875,0c0.859-0.001,1.035,0.172,1.034,1.033c-0.031,20.189-0.031,40.378,0,60.567
				c0.001,0.86-0.172,1.037-1.033,1.034C-7.611,46.712-18.09,46.725-28.569,46.725z M-28.057,38.074
				c12.476,0.248,23.23-10.498,23.229-22.923C-4.83,2.101-15.224-8.285-28.072-8.285c-12.602,0.001-22.71,10.423-23.165,22.521
				C-51.718,27.082-40.47,38.388-28.057,38.074z"/>
    </g>
	</g>
</g>
<g>
	<path class="st1" d="M10.5,21c-0.2-1.1,0.1-2,0.9-2.8c1.4-1.5,2.7-3,3.9-4.6c0.6-0.8,1.3-1,2.2-1c1.5,0.1,3.1,0,4.6,0
		c0.8,0,1.4,0,1.1,1.1c-0.3,1.3-0.5,2.7-0.6,4.1c-0.1,0.6-0.4,0.9-0.8,1.1c-2.2,1.5-4.4,3.1-6.6,4.6c-0.9,0.6-3.9,0.2-4.5-0.6
		C10.3,22.3,10.7,21.6,10.5,21z"/>
	<path class="st1" d="M16,24.3c2-1.4,4.1-2.8,6.1-4.2c0.5-0.4,0.8-0.3,1.2,0.1c1.4,1.6,1.3,1.9-0.2,3.2C20.9,25.4,18.7,26.5,16,24.3
		z"/>
	<path class="st1" d="M24.9,12.5c0.7,0.8,0.8,1.8,1,2.6c0.5,1.4,0.9,2.8,1.4,4.2c0.2,0.5,0.2,0.8-0.3,1.3c-0.9,0.8-1.4,1-2.2-0.2
		c-0.8-1.2-1.2-2.2-0.8-3.6C24.4,15.5,24.4,14,24.9,12.5z"/>
	<defs> 
  </defs>
	<clipPath id="SVGID_6_">
		<use xlink:href="#SVGID_29_"  overflow="visible"/>
	</clipPath>
	<g clip-path="url(#SVGID_6_)">
		<g>
			<path fill-rule="evenodd" clip-rule="evenodd" fill="#FDFEFE" d="M-13.748-57.523c21.15,0,42.301,0.009,63.452-0.027
				c0.987-0.002,1.184,0.193,1.182,1.182c-0.037,20.188-0.037,40.378,0,60.567c0.002,0.987-0.194,1.184-1.182,1.182
				c-20.766-0.037-41.532-0.037-62.298,0c-0.987,0.002-1.183-0.194-1.181-1.182C-13.739-16.375-13.748-36.949-13.748-57.523z
				 M-3.655-27C-4.278-14.569,7.023-4.332,18.149-3.814c13.107,0.61,23.737-10.864,24.123-22.212
				C42.716-39.098,31.066-49.18,20.77-49.842C6.582-50.754-4.526-37.852-3.655-27z"/>
		</g>
	</g>
</g>
</svg>