<?xml version="1.0" encoding="utf-8"?>
<!-- Generator: Adobe Illustrator 22.0.0, SVG Export Plug-In . SVG Version: 6.00 Build 0)  -->
<svg version="1.1" id="Capa_1" xmlns="http://www.w3.org/2000/svg" xmlns:xlink="http://www.w3.org/1999/xlink" x="0px" y="0px"
	 viewBox="0 0 36.9 36.5" style="enable-background:new 0 0 36.9 36.5;" xml:space="preserve">
<style type="text/css">
	.st0{clip-path:url(#SVGID_2_);}
	.st1{fill:#FEFEFE;}
	.st2{clip-path:url(#SVGID_4_);}
	.st3{fill:none;}
	.st4{fill:#FDFEFE;}
</style>
<g>
	<g>
		<defs>
			<circle id="SVGID_1_" cx="18.5" cy="63.5" r="18.2"/>
		</defs>
		<clipPath id="SVGID_2_">
			<use xlink:href="#SVGID_1_"  style="overflow:visible;"/>
		</clipPath>
		<g class="st0">
			<g>
				<path class="st1" d="M17.9,95.9c-10.4,0-20.8,0-31.1,0c-0.8,0-1.2,0-1.2-1c0-20.3,0-40.6,0-60.9c0-0.9,0.2-1,1.1-1
					c20.9,0,41.7,0,62.6,0c0.9,0,1,0.2,1,1.1c0,20.3,0,40.6,0,60.9c0,0.9-0.2,1-1.1,1C38.8,95.9,28.3,95.9,17.9,95.9z M18.7,87.2
					c12.7,0.1,23.1-10.6,23.5-22.6c0.4-13.7-10.5-24.3-23.4-24.3c-13,0-23.5,10.4-23.5,23.6C-4.8,76.5,5.7,87.2,18.7,87.2z"/>
			</g>
<!-- Generator: Adobe Illustrator 16.0.0, SVG Export Plug-In . SVG Version: 6.00 Build 0)  -->
<!DOCTYPE svg PUBLIC "-//W3C//DTD SVG 1.1//EN" "http://www.w3.org/Graphics/SVG/1.1/DTD/svg11.dtd">
<svg version="1.1" id="Capa_1" xmlns="http://www.w3.org/2000/svg" xmlns:xlink="http://www.w3.org/1999/xlink" x="0px" y="0px"
	 width="36.9px" height="36.5px" viewBox="0 0 36.9 36.5" enable-background="new 0 0 36.9 36.5" xml:space="preserve">
<g>
	<defs>
		<circle id="SVGID_9_" cx="18.487" cy="63.48" r="18.226"/>
	</defs>
	<clipPath id="SVGID_2_">
		<use xlink:href="#SVGID_9_"  overflow="visible"/>
	</clipPath>
	<g clip-path="url(#SVGID_2_)">
		<g>
			<path fill-rule="evenodd" clip-rule="evenodd" fill="#FEFEFE" d="M17.912,95.868c-10.383,0-20.766-0.007-31.149,0.014
				c-0.784,0.002-1.168-0.011-1.167-1.041c0.042-20.285,0.04-40.57,0.003-60.855c-0.001-0.912,0.246-1.013,1.055-1.012
				c20.862,0.025,41.724,0.028,62.586-0.008c0.911-0.001,1.012,0.245,1.011,1.056c-0.024,20.285-0.027,40.57,0.009,60.855
				c0.001,0.911-0.246,1.014-1.056,1.012C38.774,95.858,28.343,95.868,17.912,95.868z M18.684,87.216
				c12.67,0.108,23.115-10.608,23.452-22.562c0.387-13.73-10.485-24.319-23.417-24.335C5.744,40.304-4.753,50.706-4.753,63.916
				C-4.753,76.525,5.695,87.182,18.684,87.216z"/>
		</g>
	</g>
</g>
<g>
	<g>
		<defs>
			<circle id="SVGID_3_" cx="-28.8" cy="59.9" r="18.2"/>
		</defs>
		<clipPath id="SVGID_4_">
			<use xlink:href="#SVGID_3_"  style="overflow:visible;"/>
		</clipPath>
		<g class="st2">
			<g>
				<path class="st1" d="M-29.2,92c-10.5,0-21,0-31.4,0c-0.9,0-1-0.2-1-1c0-20.2,0-40.4,0-60.6c0-0.9,0.2-1,1-1c21,0,41.9,0,62.9,0
					c0.9,0,1,0.2,1,1c0,20.2,0,40.4,0,60.6c0,0.9-0.2,1-1,1C-8.2,92-18.7,92-29.2,92z M-28.7,83.3c12.5,0.2,23.2-10.5,23.2-22.9
					C-5.5,47.4-15.8,37-28.7,37c-12.6,0-22.7,10.4-23.2,22.5C-52.3,72.3-41.1,83.6-28.7,83.3z"/>
			</g>c0.7-1.3,0.5-3-0.7-3.9c-0.4-0.3-0.7-0.4-1.4-0.2c-2.8,0.8-5.6,1.4-8.4,2c-0.7,0.2-1.1-0.1-0.7-0.9c1.1-1.9,1.9-4,3.8-5.3
	c2-1.4,3.8-2.9,5.3-
		</g>
	</g>
</g>
<circle class="st3" cx="18.5" cy="18.2" r="18.2"/>
<path class="st4" d="M11.7,21.3c0.2,1.4,1.9,1.2,2.4,2.3c0.4-0.5,1-0.2,1.2-0.2c1-0.5,1.5,0.3,2.2,0.5c1.5,0.4,3.1-0.1,3.9-1.5
	4.8c0.2-0.3,0.4-0.6,0.8-0.4c0.4,0.2,0.3,0.6,0.3,0.9c0,0.7-0.3,1.3-0.6,1.9c-0.3,0.6-0.2,1,0.6,1.2
	c4.2,1,6.5,4.1,6.3,8.2c-0.2,3.6-3.2,6.5-7.1,6.9C16.1,28.4,11.2,25.4,11.7,21.3z M15.9,15.3c-1,0.6-1.7,1.1-2.1,2.1
	C15.2,17.5,15.8,16.8,15.9,15.3z"/>
	<defs>
		<circle id="SVGID_15_" cx="-28.782" cy="59.876" r="18.226"/>
	</defs>
	<clipPath id="SVGID_4_">
		<use xlink:href="#SVGID_15_"  overflow="visible"/>
	</clipPath>
	<g clip-path="url(#SVGID_4_)">
		<g>
			<path fill-rule="evenodd" clip-rule="evenodd" fill="#FEFEFE" d="M-29.194,91.975c-10.479,0-20.958-0.013-31.438,0.024
				c-0.86,0.003-1.035-0.173-1.034-1.033c0.031-20.189,0.031-40.379,0-60.568c-0.001-0.859,0.172-1.034,1.033-1.033
				c20.958,0.03,41.917,0.03,62.875,0c0.859-0.001,1.035,0.172,1.034,1.033c-0.031,20.189-0.031,40.378,0,60.567
				c0.001,0.86-0.172,1.037-1.033,1.034C-8.236,91.962-18.715,91.975-29.194,91.975z M-28.682,83.324
				c12.476,0.248,23.23-10.498,23.229-22.923c-0.002-13.051-10.396-23.437-23.244-23.437c-12.602,0.001-22.71,10.423-23.165,22.521
				C-52.343,72.332-41.095,83.638-28.682,83.324z"/>
		</g>
	</g>
</g>
<g>
	<defs>
		<circle id="SVGID_29_" cx="18.487" cy="18.215" r="18.226"/>
	</defs>
	<clipPath id="SVGID_6_">
		<use xlink:href="#SVGID_29_"  overflow="visible"/>
	</clipPath>
	<g clip-path="url(#SVGID_6_)">
		<g>
			<path fill-rule="evenodd" clip-rule="evenodd" fill="#FDFEFE" d="M-14.373-12.273c21.15,0,42.301,0.009,63.452-0.027
				c0.987-0.002,1.184,0.193,1.182,1.182c-0.037,20.188-0.037,40.378,0,60.567c0.002,0.987-0.194,1.184-1.182,1.182
				c-20.766-0.037-41.532-0.037-62.298,0c-0.987,0.002-1.183-0.194-1.181-1.182C-14.364,28.875-14.373,8.301-14.373-12.273z
				 M-4.28,18.25C-4.903,30.681,6.398,40.918,17.524,41.436c13.107,0.61,23.737-10.864,24.123-22.212
				C42.091,6.152,30.441-3.93,20.145-4.592C5.957-5.504-5.151,7.398-4.28,18.25z"/>
			<path fill-rule="evenodd" clip-rule="evenodd" fill="#D4E2EE" d="M-4.28,18.25C-5.151,7.398,5.957-5.504,20.145-4.592
				C30.441-3.93,42.091,6.152,41.646,19.224c-0.386,11.348-11.016,22.822-24.123,22.212C6.398,40.918-4.903,30.681-4.28,18.25z
				 M0.565,18.409c0.012,10.014,8.058,18.069,18.038,18.062c9.913-0.008,18.072-8.187,18.057-18.099
				C36.645,8.425,28.521,0.349,18.553,0.37C8.524,0.392,0.553,8.386,0.565,18.409z"/>
			<path fill-rule="evenodd" clip-rule="evenodd" fill="#206BAE" d="M0.565,18.409C0.553,8.386,8.524,0.392,18.553,0.37
				c9.969-0.021,18.092,8.055,18.107,18.002c0.016,9.912-8.144,18.091-18.057,18.099C8.623,36.479,0.578,28.423,0.565,18.409z
				 M11.747,21.331c-0.551,4.074,4.397,7.054,8.076,6.645c3.925-0.438,6.847-3.315,7.091-6.922c0.278-4.119-2.049-7.229-6.261-8.206
				c-0.844-0.195-0.898-0.522-0.641-1.168c0.249-0.622,0.553-1.229,0.567-1.917c0.008-0.325,0.088-0.715-0.288-0.887
				c-0.4-0.184-0.614,0.152-0.813,0.414c-1.47,1.936-3.326,3.462-5.295,4.833c-1.921,1.337-2.725,3.406-3.787,5.316
				c-0.402,0.723-0.019,1.022,0.664,0.87c2.798-0.623,5.607-1.216,8.36-2.006c0.627-0.18,0.943-0.143,1.353,0.203
				c1.125,0.951,1.401,2.626,0.652,3.916c-0.773,1.331-2.371,1.894-3.852,1.454c-0.701-0.208-1.238-1.003-2.212-0.525
				c-0.18,0.089-0.852-0.235-1.225,0.243C13.663,22.525,11.968,22.751,11.747,21.331z"/>
			<path fill-rule="evenodd" clip-rule="evenodd" fill="#FDFEFE" d="M11.747,21.331c0.221,1.42,1.916,1.194,2.391,2.264
				c0.373-0.479,1.044-0.154,1.225-0.243c0.974-0.478,1.512,0.317,2.212,0.525c1.48,0.439,3.078-0.123,3.852-1.454
				c0.749-1.29,0.473-2.965-0.652-3.916c-0.409-0.346-0.726-0.383-1.353-0.203c-2.752,0.79-5.562,1.383-8.36,2.006
				c-0.683,0.152-1.066-0.147-0.664-0.87c1.062-1.91,1.866-3.979,3.787-5.316c1.969-1.371,3.825-2.897,5.295-4.833
				c0.198-0.262,0.412-0.598,0.813-0.414c0.376,0.172,0.296,0.562,0.288,0.887c-0.015,0.688-0.318,1.295-0.567,1.917
				c-0.258,0.646-0.203,0.973,0.641,1.168c4.212,0.978,6.539,4.087,6.261,8.206c-0.244,3.606-3.166,6.484-7.091,6.922
				C16.144,28.385,11.196,25.405,11.747,21.331z M15.902,15.336c-0.956,0.62-1.691,1.101-2.072,2.066
				C15.206,17.472,15.808,16.845,15.902,15.336z"/>
			<path fill-rule="evenodd" clip-rule="evenodd" fill="#206BAE" d="M15.902,15.336c-0.094,1.509-0.697,2.136-2.072,2.066
				C14.211,16.437,14.947,15.956,15.902,15.336z"/>
		</g>
	</g>
</g>
</svg>
