<?xml version="1.0" encoding="utf-8"?>
<!-- Generator: Adobe Illustrator 22.0.0, SVG Export Plug-In . SVG Version: 6.00 Build 0)  -->
<svg version="1.1" id="Capa_1" xmlns="http://www.w3.org/2000/svg" xmlns:xlink="http://www.w3.org/1999/xlink" x="0px" y="0px"
	 viewBox="0 0 36.9 36.5" style="enable-background:new 0 0 36.9 36.5;" xml:space="preserve">
<style type="text/css">
	.st0{fill:none;}
	.st1{fill:#FEFEFE;}
	.st2{fill:#528E9A;}
</style>
<circle class="st0" cx="18.7" cy="18.4" r="18.2"/>
<path class="st1" d="M27.7,19.9c-1.2,2-2.5,4.1-3.6,6.2c-0.5,0.8-1,1.2-1.9,1.1c-2.2-0.1-4.3-0.1-6.5,0c-0.9,0-1.5-0.3-2-1.1
	c-1.1-2-2.4-3.9-3.5-5.9c-0.3-0.6-0.2-1.1,0.1-1.7c1.2-2,2.4-4,3.5-6c0.4-0.7,0.8-0.9,1.6-0.9c2.4,0,4.7,0,7.1,0
	c0.6,0,1.1,0.2,1.4,0.7c1.2,2.1,2.4,4.2,3.6,6.2C27.7,18.9,27.8,19.4,27.7,19.9z"/>
<path class="st2" d="M18.7,23.5c-2.4,0-4.1-1.8-4.1-4.3c0-2.3,2-4.2,4.3-4.1c2.3,0.1,4.2,2.1,4.1,4.3C23,21.7,21.1,23.5,18.7,23.5z"
	/>
<!-- Generator: Adobe Illustrator 16.0.0, SVG Export Plug-In . SVG Version: 6.00 Build 0)  -->
<!DOCTYPE svg PUBLIC "-//W3C//DTD SVG 1.1//EN" "http://www.w3.org/Graphics/SVG/1.1/DTD/svg11.dtd">
<svg version="1.1" id="Capa_1" xmlns="http://www.w3.org/2000/svg" xmlns:xlink="http://www.w3.org/1999/xlink" x="0px" y="0px"
	 width="36.9px" height="36.5px" viewBox="0 0 36.9 36.5" enable-background="new 0 0 36.9 36.5" xml:space="preserve">
<g>
	<defs>
		<circle id="SVGID_35_" cx="18.737" cy="18.377" r="18.226"/>
	</defs>
	<clipPath id="SVGID_2_">
		<use xlink:href="#SVGID_35_"  overflow="visible"/>
	</clipPath>
	<g clip-path="url(#SVGID_2_)">
		<path fill-rule="evenodd" clip-rule="evenodd" fill="#FEFEFE" d="M18.163,50.765c-10.383,0-20.766-0.007-31.149,0.014
			c-0.784,0.002-1.169-0.009-1.167-1.04c0.042-20.285,0.04-40.571,0.003-60.856c-0.001-0.91,0.243-1.013,1.055-1.012
			c20.862,0.024,41.725,0.027,62.586-0.008c0.91-0.001,1.013,0.243,1.012,1.055c-0.024,20.285-0.027,40.57,0.008,60.855
			c0.002,0.91-0.242,1.015-1.054,1.013C39.024,50.755,28.594,50.765,18.163,50.765z"/>
		<path fill-rule="evenodd" clip-rule="evenodd" fill="#EDF3F4" d="M-6.047,18.499C-6.346,4.976,5.273-6.536,19.075-6.315
			C32.684-6.098,44.063,4.797,43.79,19.192C43.528,32.997,32.706,43.656,18.858,43.71C4.42,43.766-6.583,31.611-6.047,18.499z"/>
		<path fill-rule="evenodd" clip-rule="evenodd" fill="#DEEAEC" d="M18.865-3.169C30.613-3.133,41.019,6.855,40.655,19.37
			c-0.328,11.316-9.602,21.182-21.689,21.193C6.535,40.575-2.993,31.024-3.047,18.682C-3.101,6.306,7.109-3.143,18.865-3.169z"/>
		<path fill-rule="evenodd" clip-rule="evenodd" fill="#D7E5E7" d="M18.818,38.94c-10.701,0.33-20.808-9.42-20.28-21.005
			C-0.966,7.066,7.786-1.67,18.846-1.645c11.348,0.026,20.371,9.01,20.306,20.487C39.089,29.801,30.219,39.046,18.818,38.94z"/>
		<path fill-rule="evenodd" clip-rule="evenodd" fill="#CFE0E3" d="M38.081,18.801c0.313,10.376-8.779,19.52-19.657,19.272
			C8.148,37.839-0.718,29.425-0.56,18.287C-0.418,8.32,8.105-1.259,20.083-0.625C29.312-0.136,38.509,8.129,38.081,18.801z"/>
		<path fill-rule="evenodd" clip-rule="evenodd" fill="#518898" d="M0.916,20.19C0.053,9.431,8.439,0.447,19.188,0.614
			c8.933,0.14,16.52,7.098,17.508,16.018c0.153,1.391,0.34,2.763-0.059,4.137c-0.417,0.378-0.936,0.432-1.462,0.438
			c-1.895,0.019-3.79,0.036-5.685-0.01c-0.77-0.019-1.523-0.127-1.985-0.87c-0.654-2.93-2.645-5.181-3.988-7.762
			c-0.293-0.564-0.925-0.635-1.521-0.638c-2.112-0.01-4.225,0.004-6.337-0.007c-0.805-0.004-1.376,0.312-1.758,1.017
			c-0.939,1.73-1.977,3.404-3.007,5.081c-0.476,0.774-0.398,1.668-0.708,2.471c-0.425,0.532-1.026,0.668-1.652,0.687
			c-1.895,0.055-3.791,0.042-5.687,0.008C2.04,21.17,1.363,20.903,0.916,20.19z"/>
		<path fill-rule="evenodd" clip-rule="evenodd" fill="#518898" d="M0.916,20.19c2.399,1.139,4.949,0.349,7.42,0.572
			c0.674,0.062,1.341,0.001,1.792-0.624c0.699,0.056,0.898,0.658,1.195,1.128c0.874,1.381,1.643,2.824,2.481,4.226
			c0.52,0.869,1.21,1.278,2.244,1.253c1.873-0.046,3.75-0.055,5.622,0.002c1.118,0.034,1.813-0.451,2.29-1.398
			c0.758-1.504,1.727-2.886,2.524-4.367c0.263-0.488,0.487-1.076,1.187-1.132c0.211,0.95,0.973,0.912,1.687,0.915
			c2.426,0.01,4.853,0.004,7.278,0.004c-0.484,5.117-2.854,9.219-6.926,12.258c-5.522,4.122-11.635,4.875-17.942,2.215
			c-6.221-2.624-9.741-7.55-10.861-14.192C0.862,20.771,0.911,20.477,0.916,20.19z"/>
		<path fill-rule="evenodd" clip-rule="evenodd" fill="#FEFEFE" d="M27.673,19.851c-1.223,2.049-2.479,4.08-3.65,6.158
			c-0.455,0.808-0.987,1.154-1.934,1.126c-2.153-0.065-4.311-0.061-6.465-0.001c-0.933,0.026-1.5-0.292-1.961-1.1
			c-1.137-1.989-2.351-3.933-3.534-5.895c-0.302-0.606-0.243-1.146,0.122-1.745c1.198-1.966,2.363-3.953,3.492-5.959
			c0.375-0.667,0.83-0.95,1.604-0.937c2.353,0.039,4.707,0.03,7.059,0.004c0.64-0.007,1.091,0.165,1.42,0.744
			c1.183,2.086,2.385,4.162,3.602,6.229C27.688,18.919,27.763,19.361,27.673,19.851z"/>
		<path fill-rule="evenodd" clip-rule="evenodd" fill="#528E9A" d="M18.729,23.452c-2.376-0.03-4.108-1.84-4.072-4.254
			c0.035-2.324,1.954-4.19,4.253-4.138c2.252,0.052,4.18,2.068,4.131,4.319C22.99,21.687,21.091,23.481,18.729,23.452z"/>
	</g>
</g>
</svg>
