<?xml version="1.0" encoding="utf-8"?>
<!-- Generator: Adobe Illustrator 22.0.0, SVG Export Plug-In . SVG Version: 6.00 Build 0)  -->
<svg version="1.1" id="Capa_1" xmlns="http://www.w3.org/2000/svg" xmlns:xlink="http://www.w3.org/1999/xlink" x="0px" y="0px"
	 viewBox="0 0 36.9 36.5" style="enable-background:new 0 0 36.9 36.5;" xml:space="preserve">
<style type="text/css">
	.st0{fill:#FEFEFE;}
</style>
<path class="st0" d="M18.7,9.3c0.7,1.2,1.3,2.1,1.7,3.1c0.5,1.2,1.2,1.4,2.4,1c0.4-0.1,0.8-0.5,1.2-0.1c0.3,0.3,0,0.7-0.1,1.1
	c-0.6,1.4-0.1,2.1,1.2,2.6c1,0.4,1.8,1,2.9,1.6c-1.3,0.7-2.3,1.4-3.4,1.9c-1,0.4-1.2,1-0.8,1.9c0.2,0.4,0.5,0.9,0.2,1.3
	c-0.4,0.4-0.9,0.1-1.3-0.1c-1.1-0.4-1.8-0.1-2.2,1c-0.3,0.8-0.8,1.5-1.2,2.3c-0.4,0.7-0.7,0.9-1.1,0c-0.2-0.3-0.3-0.7-0.5-1
	c-1-1.6-1.7-3.7-4.2-2c-0.1-0.3-0.2-0.4-0.2-0.4c0.6-2.6,0.6-2.6-1.7-3.8c-0.1-0.1-0.3-0.1-0.4-0.2c-0.5-0.3-1.3-0.4-1.3-1
	c0-0.7,0.9-0.7,1.4-1c0.1-0.1,0.3-0.1,0.4-0.2c2.3-1.2,2.3-1.2,1.7-3.8c0-0.1,0-0.3,0-0.4c1.1-0.1,2.1,1.1,3,0.4
	c0.8-0.6,1-1.8,1.6-2.7C18,10.4,18.3,10,18.7,9.3z M21.9,18.6c-0.7-0.4-1.3-0.6-1.6-0.9c-1.1-1.7-2-2.4-3.2-0.1
	c-0.1,0.3-0.6,0.4-1,0.6c-0.5,0.3-0.6,0.7,0,0.9c1,0.4,1.6,1.1,2.1,2.1c0.2,0.5,0.6,0.6,0.8,0C19.5,19.9,20.6,19.3,21.9,18.6z"/>
<!-- Generator: Adobe Illustrator 16.0.0, SVG Export Plug-In . SVG Version: 6.00 Build 0)  -->
<!DOCTYPE svg PUBLIC "-//W3C//DTD SVG 1.1//EN" "http://www.w3.org/Graphics/SVG/1.1/DTD/svg11.dtd">
<svg version="1.1" id="Capa_1" xmlns="http://www.w3.org/2000/svg" xmlns:xlink="http://www.w3.org/1999/xlink" x="0px" y="0px"
	 width="36.9px" height="36.5px" viewBox="0 0 36.9 36.5" enable-background="new 0 0 36.9 36.5" xml:space="preserve">
<g>
	<defs>
		<circle id="SVGID_21_" cx="18.592" cy="18.351" r="18.226"/>
	</defs>
	<clipPath id="SVGID_2_">
		<use xlink:href="#SVGID_21_"  overflow="visible"/>
	</clipPath>
	<g clip-path="url(#SVGID_2_)">
		<g>
			<path fill-rule="evenodd" clip-rule="evenodd" fill="#FEFEFE" d="M18.018,50.738c-10.383,0-20.767-0.007-31.149,0.014
				c-0.784,0.002-1.169-0.011-1.167-1.041c0.042-20.285,0.04-40.57,0.004-60.855c-0.002-0.912,0.245-1.013,1.056-1.012
				c20.861,0.025,41.724,0.028,62.586-0.008c0.911-0.002,1.012,0.245,1.011,1.056c-0.024,20.285-0.027,40.57,0.009,60.855
				c0.001,0.911-0.246,1.014-1.056,1.012C38.88,50.729,28.448,50.738,18.018,50.738z M-4.749,18.461
				C-5.026,31,5.72,41.797,18.088,42.054c13.509,0.281,24.05-10.799,24.108-23.366C42.257,5.563,31.6-4.308,19.799-4.94
				C6.259-5.667-5.154,6.242-4.749,18.461z"/>
			<path fill-rule="evenodd" clip-rule="evenodd" fill="#F6EBF2" d="M-4.749,18.461C-5.154,6.242,6.259-5.667,19.799-4.94
				C31.6-4.308,42.257,5.563,42.196,18.688c-0.059,12.567-10.6,23.647-24.108,23.366C5.72,41.797-5.026,31-4.749,18.461z
				 M0.699,18.414C0.442,28.203,8.481,36.58,18.665,36.568c10.041-0.012,18.077-7.959,18.066-18.131
				c-0.01-9.652-8.194-17.899-17.987-17.954C8.685,0.426,0.472,8.938,0.699,18.414z"/>
			<path fill-rule="evenodd" clip-rule="evenodd" fill="#D298BE" d="M0.699,18.414C0.472,8.938,8.685,0.426,18.744,0.483
				c9.793,0.055,17.978,8.302,17.987,17.954c0.011,10.172-8.025,18.119-18.066,18.131C8.481,36.58,0.442,28.203,0.699,18.414z
				 M18.684,9.332c-0.408,0.662-0.672,1.055-0.902,1.468c-0.511,0.917-0.809,2.08-1.559,2.704c-0.837,0.697-1.897-0.47-2.958-0.378
				c-0.013,0.181-0.057,0.324-0.025,0.448c0.635,2.564,0.637,2.563-1.659,3.77c-0.128,0.066-0.263,0.125-0.379,0.208
				c-0.48,0.347-1.395,0.368-1.379,1.044c0.013,0.55,0.843,0.687,1.326,0.982c0.123,0.075,0.254,0.137,0.382,0.203
				c2.313,1.212,2.313,1.212,1.72,3.765c-0.017,0.07,0.06,0.163,0.167,0.434c2.495-1.729,3.215,0.367,4.176,1.979
				c0.197,0.329,0.379,0.669,0.543,1.016c0.412,0.873,0.751,0.682,1.103-0.047c0.376-0.777,0.843-1.516,1.156-2.315
				c0.435-1.11,1.163-1.361,2.217-0.977c0.437,0.16,0.931,0.523,1.326,0.09c0.383-0.419,0.017-0.937-0.159-1.345
				c-0.4-0.934-0.208-1.48,0.755-1.917c1.116-0.507,2.154-1.186,3.408-1.892c-1.099-0.621-1.97-1.233-2.93-1.626
				c-1.301-0.532-1.816-1.27-1.17-2.621c0.159-0.333,0.427-0.772,0.133-1.076c-0.356-0.369-0.823-0.005-1.185,0.134
				c-1.135,0.435-1.877,0.242-2.383-0.975C19.991,11.405,19.349,10.497,18.684,9.332z"/>
			<path fill-rule="evenodd" clip-rule="evenodd" fill="#FEFEFE" d="M18.684,9.332c0.665,1.165,1.308,2.073,1.724,3.075
				c0.506,1.217,1.248,1.409,2.383,0.975c0.361-0.139,0.828-0.503,1.185-0.134c0.294,0.304,0.026,0.743-0.133,1.076
				c-0.646,1.352-0.131,2.089,1.17,2.621c0.96,0.393,1.831,1.005,2.93,1.626c-1.254,0.706-2.292,1.385-3.408,1.892
				c-0.963,0.437-1.155,0.983-0.755,1.917c0.176,0.408,0.542,0.926,0.159,1.345c-0.396,0.434-0.89,0.07-1.326-0.09
				c-1.054-0.385-1.782-0.134-2.217,0.977c-0.313,0.8-0.78,1.538-1.156,2.315c-0.352,0.729-0.69,0.92-1.103,0.047
				c-0.164-0.347-0.346-0.687-0.543-1.016c-0.961-1.611-1.681-3.707-4.176-1.979c-0.107-0.271-0.184-0.363-0.167-0.434
				c0.593-2.553,0.594-2.553-1.72-3.765c-0.128-0.066-0.259-0.128-0.382-0.203c-0.483-0.296-1.313-0.433-1.326-0.982
				c-0.016-0.676,0.898-0.697,1.379-1.044c0.116-0.083,0.251-0.142,0.379-0.208c2.296-1.206,2.294-1.205,1.659-3.77
				c-0.031-0.124,0.013-0.268,0.025-0.448c1.061-0.092,2.121,1.075,2.958,0.378c0.75-0.624,1.048-1.787,1.559-2.704
				C18.012,10.387,18.275,9.994,18.684,9.332z M21.908,18.587c-0.695-0.405-1.318-0.558-1.565-0.948
				c-1.063-1.681-2.023-2.42-3.176-0.08c-0.141,0.284-0.648,0.377-0.969,0.586c-0.469,0.307-0.609,0.663,0.021,0.921
				c0.986,0.403,1.646,1.094,2.051,2.071c0.207,0.5,0.609,0.56,0.801,0.047C19.547,19.916,20.607,19.292,21.908,18.587z"/>
			<path fill-rule="evenodd" clip-rule="evenodd" fill="#D298BE" d="M21.908,18.587c-1.301,0.705-2.361,1.329-2.838,2.597
				c-0.191,0.513-0.594,0.453-0.801-0.047c-0.405-0.978-1.064-1.668-2.051-2.071c-0.63-0.258-0.489-0.614-0.021-0.921
				c0.32-0.209,0.828-0.302,0.969-0.586c1.152-2.34,2.112-1.601,3.176,0.08C20.59,18.029,21.213,18.182,21.908,18.587z"/>
		</g>
	</g>
</g>
</svg>
