<?xml version="1.0" encoding="utf-8"?>
<!-- Generator: Adobe Illustrator 22.0.0, SVG Export Plug-In . SVG Version: 6.00 Build 0)  -->
<svg version="1.1" id="Capa_1" xmlns="http://www.w3.org/2000/svg" xmlns:xlink="http://www.w3.org/1999/xlink" x="0px" y="0px"
	 viewBox="0 0 36.9 36.5" style="enable-background:new 0 0 36.9 36.5;" xml:space="preserve">
<style type="text/css">
	.st0{fill:#FEFEFE;}
</style>
<path class="st0" d="M18.7,9.3c0.7,1.2,1.3,2.1,1.7,3.1c0.5,1.2,1.2,1.4,2.4,1c0.4-0.1,0.8-0.5,1.2-0.1c0.3,0.3,0,0.7-0.1,1.1
	c-0.6,1.4-0.1,2.1,1.2,2.6c1,0.4,1.8,1,2.9,1.6c-1.3,0.7-2.3,1.4-3.4,1.9c-1,0.4-1.2,1-0.8,1.9c0.2,0.4,0.5,0.9,0.2,1.3
	c-0.4,0.4-0.9,0.1-1.3-0.1c-1.1-0.4-1.8-0.1-2.2,1c-0.3,0.8-0.8,1.5-1.2,2.3c-0.4,0.7-0.7,0.9-1.1,0c-0.2-0.3-0.3-0.7-0.5-1
	c-1-1.6-1.7-3.7-4.2-2c-0.1-0.3-0.2-0.4-0.2-0.4c0.6-2.6,0.6-2.6-1.7-3.8c-0.1-0.1-0.3-0.1-0.4-0.2c-0.5-0.3-1.3-0.4-1.3-1
	c0-0.7,0.9-0.7,1.4-1c0.1-0.1,0.3-0.1,0.4-0.2c2.3-1.2,2.3-1.2,1.7-3.8c0-0.1,0-0.3,0-0.4c1.1-0.1,2.1,1.1,3,0.4
	c0.8-0.6,1-1.8,1.6-2.7C18,10.4,18.3,10,18.7,9.3z M21.9,18.6c-0.7-0.4-1.3-0.6-1.6-0.9c-1.1-1.7-2-2.4-3.2-0.1
	c-0.1,0.3-0.6,0.4-1,0.6c-0.5,0.3-0.6,0.7,0,0.9c1,0.4,1.6,1.1,2.1,2.1c0.2,0.5,0.6,0.6,0.8,0C19.5,19.9,20.6,19.3,21.9,18.6z"/>
</svg>
