<?xml version="1.0" encoding="utf-8"?>
<!-- Generator: Adobe Illustrator 22.0.0, SVG Export Plug-In . SVG Version: 6.00 Build 0)  -->
<svg version="1.1" id="Capa_1" xmlns="http://www.w3.org/2000/svg" xmlns:xlink="http://www.w3.org/1999/xlink" x="0px" y="0px"
	 viewBox="0 0 36.9 36.5" style="enable-background:new 0 0 36.9 36.5;" xml:space="preserve">
<style type="text/css">
	.st0{clip-path:url(#SVGID_2_);}
	.st1{fill:#FDFEFD;}
	.st2{clip-path:url(#SVGID_4_);}
	.st3{fill:#FEFDFD;}
</style>
<g>
	<g>
		<defs>
			<circle id="SVGID_1_" cx="65.1" cy="18.1" r="18.2"/>
		</defs>
		<clipPath id="SVGID_2_">
			<use xlink:href="#SVGID_1_"  style="overflow:visible;"/>
		</clipPath>
		<g class="st0">
			<g>
				<path class="st1" d="M64.5,50.5c-10.4,0-20.8,0-31.1,0c-0.8,0-1.2,0-1.2-1c0-20.3,0-40.6,0-60.9c0-0.9,0.2-1,1.1-1
					c20.9,0,41.7,0,62.6,0c0.9,0,1,0.2,1,1.1c0,20.3,0,40.6,0,60.9c0,0.9-0.2,1-1.1,1C85.4,50.5,75,50.5,64.5,50.5z M88.8,18.3
					C88.5,5.5,78.5-5.4,65.3-5.3C52.6-5.3,42.1,4.8,41.8,17.8c-0.2,13.3,10.4,23.8,23.4,23.9C78.2,41.9,88.5,31.1,88.8,18.3z"/>
			</g>
<!-- Generator: Adobe Illustrator 16.0.0, SVG Export Plug-In . SVG Version: 6.00 Build 0)  -->
<!DOCTYPE svg PUBLIC "-//W3C//DTD SVG 1.1//EN" "http://www.w3.org/Graphics/SVG/1.1/DTD/svg11.dtd">
<svg version="1.1" id="Capa_1" xmlns="http://www.w3.org/2000/svg" xmlns:xlink="http://www.w3.org/1999/xlink" x="0px" y="0px"
	 width="36.9px" height="36.5px" viewBox="0 0 36.9 36.5" enable-background="new 0 0 36.9 36.5" xml:space="preserve">
<g>
	<defs>
		<circle id="SVGID_11_" cx="18.642" cy="18.51" r="18.227"/>
	</defs>
	<clipPath id="SVGID_2_">
		<use xlink:href="#SVGID_11_"  overflow="visible"/>
	</clipPath>
	<g clip-path="url(#SVGID_2_)">
		<g>
			<path fill-rule="evenodd" clip-rule="evenodd" fill="#FEFDFD" d="M-14.218-11.978c21.151,0,42.302,0.009,63.452-0.027
				c0.987-0.002,1.184,0.193,1.182,1.182c-0.037,20.188-0.037,40.378,0,60.567c0.002,0.987-0.194,1.184-1.182,1.182
				c-20.766-0.037-41.532-0.037-62.298,0c-0.988,0.002-1.184-0.194-1.182-1.182C-14.208,29.171-14.218,8.597-14.218-11.978z
				 M42.601,18.988c0.336-13.14-10.89-23.569-22.619-24.073C6.03-5.684-5.264,5.56-5.209,18.823
				C-5.155,31.91,5.145,42.675,18.8,42.769C31.819,42.857,42.719,31.798,42.601,18.988z"/>
			<path fill-rule="evenodd" clip-rule="evenodd" fill="#F7E8E9" d="M42.601,18.988c0.118,12.81-10.781,23.869-23.801,23.78
				C5.145,42.675-5.155,31.91-5.209,18.823C-5.264,5.56,6.03-5.684,19.981-5.085C31.711-4.581,42.937,5.849,42.601,18.988z
				 M18.688,36.794c9.732,0.208,18.132-7.847,18.103-17.917C36.762,8.445,28.617,0.874,18.744,0.784
				C8.383,0.689,0.762,8.857,0.739,18.741C0.717,28.835,8.646,36.792,18.688,36.794z"/>
			<path fill-rule="evenodd" clip-rule="evenodd" fill="#D17E7F" d="M18.688,36.794C8.646,36.792,0.717,28.835,0.739,18.741
				C0.762,8.857,8.383,0.689,18.744,0.784c9.873,0.09,18.018,7.661,18.047,18.093C36.82,28.947,28.421,37.002,18.688,36.794z
				 M20.885,25.493c-0.385,0-0.771,0.029-1.152-0.004c-4.52-0.396-7.258-5.873-4.721-9.479c1.276-1.814,3.169-2.256,5.231-2.024
				c1.493,0.167,2.372,1.215,2.857,2.547c0.432,1.187,0.359,2.367-0.489,3.396c-0.794,0.962-1.859,1.143-3.007,0.955
				c-1.184-0.193-2.038-1.552-1.725-2.742c0.284-1.078,1.091-1.416,2.112-1.251c0.674,0.109,0.91,0.645,0.944,1.271
				c0.028,0.52-0.287,0.83-0.743,0.922c-0.628,0.127-0.839-0.306-0.915-0.838c-0.035-0.241-0.08-0.511-0.402-0.471
				c-0.327,0.041-0.492,0.3-0.507,0.606c-0.047,0.985,0.384,1.71,1.353,1.932c0.933,0.214,1.84,0.041,2.484-0.76
				c0.632-0.785,0.696-1.677,0.271-2.572c-0.646-1.361-1.758-1.945-3.258-1.913c-1.524,0.033-2.61,0.73-3.105,2.133
				c-0.64,1.817-0.623,3.621,0.832,5.105c1.573,1.605,3.51,1.919,5.582,1.245c2.544-0.827,3.668-2.795,3.924-5.324
				c0.289-2.852-0.549-5.251-3.136-6.745c-2.602-1.501-7.738-1.706-10.319,1.67c-2.094,2.738-2.688,5.684-1.549,8.967
				c1.162,3.355,3.97,4.504,7.051,5.039c2.535,0.439,4.943-0.199,6.985-1.899c0.276-0.229,0.563-0.473,0.316-0.807
				c-0.217-0.293-0.521-0.03-0.762,0.105C23.748,25.286,22.351,25.552,20.885,25.493z"/>
			<path fill-rule="evenodd" clip-rule="evenodd" fill="#FEFDFD" d="M20.885,25.493c1.466,0.059,2.863-0.207,4.154-0.935
				c0.241-0.136,0.545-0.398,0.762-0.105c0.247,0.334-0.04,0.577-0.316,0.807c-2.042,1.7-4.45,2.339-6.985,1.899
				c-3.081-0.535-5.889-1.684-7.051-5.039c-1.139-3.283-0.545-6.229,1.549-8.967c2.581-3.376,7.718-3.171,10.319-1.67
				c2.587,1.494,3.425,3.894,3.136,6.745c-0.256,2.529-1.38,4.497-3.924,5.324c-2.072,0.674-4.009,0.36-5.582-1.245
				c-1.455-1.484-1.472-3.288-0.832-5.105c0.495-1.402,1.581-2.1,3.105-2.133c1.5-0.032,2.611,0.552,3.258,1.913
				c0.425,0.896,0.36,1.787-0.271,2.572c-0.645,0.801-1.552,0.974-2.484,0.76c-0.969-0.222-1.399-0.946-1.353-1.932
				c0.015-0.307,0.18-0.565,0.507-0.606c0.322-0.04,0.367,0.229,0.402,0.471c0.076,0.532,0.287,0.965,0.915,0.838
				c0.456-0.092,0.771-0.402,0.743-0.922c-0.034-0.627-0.271-1.162-0.944-1.271c-1.021-0.165-1.828,0.173-2.112,1.251
				c-0.313,1.19,0.541,2.549,1.725,2.742c1.147,0.188,2.213,0.007,3.007-0.955c0.849-1.029,0.921-2.21,0.489-3.396
				c-0.485-1.332-1.364-2.38-2.857-2.547c-2.063-0.231-3.955,0.21-5.231,2.024c-2.537,3.605,0.201,9.083,4.721,9.479
				C20.113,25.522,20.5,25.493,20.885,25.493z"/>
		</g>
	</g>
</g>
<g>
	<g>
		<defs>
			<circle id="SVGID_3_" cx="31.9" cy="64.6" r="18.2"/>
		</defs>
		<clipPath id="SVGID_4_">
			<use xlink:href="#SVGID_3_"  style="overflow:visible;"/>
		</clipPath>
		<g class="st2">
		</g>
	</g>
</g>
<path class="st3" d="M20.9,25.5c1.5,0.1,2.9-0.2,4.2-0.9c0.2-0.1,0.5-0.4,0.8-0.1c0.2,0.3,0,0.6-0.3,0.8c-2,1.7-4.4,2.3-7,1.9
	c-3.1-0.5-5.9-1.7-7.1-5c-1.1-3.3-0.5-6.2,1.5-9c2.6-3.4,7.7-3.2,10.3-1.7c2.6,1.5,3.4,3.9,3.1,6.7c-0.3,2.5-1.4,4.5-3.9,5.3
	c-2.1,0.7-4,0.4-5.6-1.2c-1.5-1.5-1.5-3.3-0.8-5.1c0.5-1.4,1.6-2.1,3.1-2.1c1.5,0,2.6,0.6,3.3,1.9c0.4,0.9,0.4,1.8-0.3,2.6
	c-0.6,0.8-1.6,1-2.5,0.8c-1-0.2-1.4-0.9-1.4-1.9c0-0.3,0.2-0.6,0.5-0.6c0.3,0,0.4,0.2,0.4,0.5c0.1,0.5,0.3,1,0.9,0.8
	c0.5-0.1,0.8-0.4,0.7-0.9c0-0.6-0.3-1.2-0.9-1.3c-1-0.2-1.8,0.2-2.1,1.3c-0.3,1.2,0.5,2.5,1.7,2.7c1.1,0.2,2.2,0,3-1
	c0.8-1,0.9-2.2,0.5-3.4c-0.5-1.3-1.4-2.4-2.9-2.5c-2.1-0.2-4,0.2-5.2,2c-2.5,3.6,0.2,9.1,4.7,9.5C20.1,25.5,20.5,25.5,20.9,25.5z"/>
	<defs>
		<circle id="SVGID_13_" cx="65.108" cy="18.108" r="18.227"/>
	</defs>
	<clipPath id="SVGID_4_">
		<use xlink:href="#SVGID_13_"  overflow="visible"/>
	</clipPath>
	<g clip-path="url(#SVGID_4_)">
		<g>
			<path fill-rule="evenodd" clip-rule="evenodd" fill="#FDFEFD" d="M64.534,50.496c-10.383,0-20.767-0.007-31.149,0.014
				c-0.784,0.002-1.169-0.011-1.167-1.041c0.042-20.285,0.04-40.57,0.004-60.855c-0.002-0.912,0.245-1.013,1.056-1.012
				c20.861,0.025,41.724,0.028,62.586-0.008c0.911-0.001,1.012,0.245,1.011,1.056c-0.024,20.285-0.027,40.57,0.009,60.855
				c0.001,0.911-0.246,1.014-1.056,1.012C85.396,50.486,74.965,50.496,64.534,50.496z M88.778,18.279
				C88.456,5.483,78.537-5.377,65.327-5.321C52.556-5.267,42.068,4.752,41.849,17.838C41.625,31.166,52.26,41.641,65.276,41.757
				C78.176,41.872,88.462,31.063,88.778,18.279z"/>
		</g>
	</g>
</g>
<g>
	<defs>
		<circle id="SVGID_27_" cx="31.86" cy="64.575" r="18.227"/>
	</defs>
	<clipPath id="SVGID_6_">
		<use xlink:href="#SVGID_27_"  overflow="visible"/>
	</clipPath>
	<g clip-path="url(#SVGID_6_)">
		
			<image overflow="visible" width="224" height="217" xlink:href="tipos-pokemon/icon-electrico.png"  transform="matrix(0.2884 0 0 0.2884 -1.2881 33.7998)">
		</image>
	</g>
</g>
</svg>
