<?xml version="1.0" encoding="utf-8"?>
<!-- Generator: Adobe Illustrator 22.0.0, SVG Export Plug-In . SVG Version: 6.00 Build 0)  -->
<svg version="1.1" id="Capa_1" xmlns="http://www.w3.org/2000/svg" xmlns:xlink="http://www.w3.org/1999/xlink" x="0px" y="0px"
	 viewBox="0 0 36.9 36.5" style="enable-background:new 0 0 36.9 36.5;" xml:space="preserve">
<style type="text/css">
	.st0{clip-path:url(#SVGID_2_);}
	.st1{fill:#FEFDFD;}
	.st2{clip-path:url(#SVGID_4_);}
	.st3{fill:#FEFEFD;}
	.st4{fill:#F8EEE6;}
	.st5{clip-path:url(#SVGID_6_);}
	.st6{fill:#FDFEFD;}
</style>
<g>
	<g>
		<defs>
			<circle id="SVGID_1_" cx="-27.8" cy="18.6" r="18.2"/>
		</defs>
		<clipPath id="SVGID_2_">
			<use xlink:href="#SVGID_1_"  style="overflow:visible;"/>
		</clipPath>
		<g class="st0">
			<g>
				<path class="st1" d="M-60.6-11.9c21.2,0,42.3,0,63.5,0c1,0,1.2,0.2,1.2,1.2C4,9.4,4,29.6,4,49.8c0,1-0.2,1.2-1.2,1.2
					c-20.8,0-41.5,0-62.3,0c-1,0-1.2-0.2-1.2-1.2C-60.6,29.3-60.6,8.7-60.6-11.9z M-3.8,19.1C-3.5,5.9-14.7-4.5-26.4-5
					c-14-0.6-25.2,10.6-25.2,23.9c0.1,13.1,10.4,23.9,24,23.9C-14.6,42.9-3.7,31.9-3.8,19.1z"/>
			</g>
<!-- Generator: Adobe Illustrator 16.0.0, SVG Export Plug-In . SVG Version: 6.00 Build 0)  -->
<!DOCTYPE svg PUBLIC "-//W3C//DTD SVG 1.1//EN" "http://www.w3.org/Graphics/SVG/1.1/DTD/svg11.dtd">
<svg version="1.1" id="Capa_1" xmlns="http://www.w3.org/2000/svg" xmlns:xlink="http://www.w3.org/1999/xlink" x="0px" y="0px"
	 width="36.9px" height="36.5px" viewBox="0 0 36.9 36.5" enable-background="new 0 0 36.9 36.5" xml:space="preserve">
<g>
	<defs>
		<circle id="SVGID_11_" cx="-27.775" cy="18.594" r="18.227"/>
	</defs>
	<clipPath id="SVGID_2_">
		<use xlink:href="#SVGID_11_"  overflow="visible"/>
	</clipPath>
	<g clip-path="url(#SVGID_2_)">
		<g>
			<path fill-rule="evenodd" clip-rule="evenodd" fill="#FEFDFD" d="M-60.635-11.894c21.151,0,42.302,0.009,63.452-0.027
				c0.987-0.002,1.184,0.193,1.182,1.182c-0.037,20.188-0.037,40.378,0,60.567c0.002,0.987-0.194,1.184-1.182,1.182
				c-20.766-0.037-41.532-0.037-62.298,0c-0.988,0.002-1.184-0.194-1.182-1.182C-60.625,29.255-60.635,8.681-60.635-11.894z
				 M-3.816,19.072C-3.48,5.933-14.706-4.497-26.436-5.001C-40.387-5.6-51.681,5.644-51.626,18.907
				c0.054,13.087,10.354,23.852,24.009,23.945C-14.598,42.941-3.698,31.882-3.816,19.072z"/>
		</g>
	</g>
</g>
<g>
	<g>
		<defs>
			<circle id="SVGID_3_" cx="60" cy="-14.9" r="18.2"/>
		</defs>
		<clipPath id="SVGID_4_">
			<use xlink:href="#SVGID_3_"  style="overflow:visible;"/>
		</clipPath>
		<g class="st2">
			<g>
				<path class="st3" d="M59.4,17.5c-10.4,0-20.8,0-31.1,0c-0.8,0-1.2,0-1.2-1c0-20.3,0-40.6,0-60.9c0-0.9,0.2-1,1.1-1
					c20.9,0,41.7,0,62.6,0c0.9,0,1,0.2,1,1.1c0,20.3,0,40.6,0,60.9c0,0.9-0.2,1-1.1,1C80.3,17.5,69.9,17.5,59.4,17.5z M60.1,9.4
					c13.3,0.3,24.5-11,24.4-24.2C84.4-27.9,73.8-38.3,61.6-39c-14.7-0.8-25.5,11.2-25.7,23.7C35.5-1.8,47,9.8,60.1,9.4z"/>
				<path class="st4" d="M60.1,9.4C47,9.8,35.5-1.8,35.8-15.3c0.3-12.5,11-24.5,25.7-23.7c12.3,0.7,22.9,11.1,22.9,24.3
					C84.6-1.5,73.4,9.7,60.1,9.4z M60.2-32.7c-10.1,0-18.1,7.9-18.1,17.9C42-5.3,49.6,3.3,60.2,3.3c10.2,0,18-8,17.9-18
					C78.1-25.7,69.5-32.8,60.2-32.7z"/>
			</g>
	<defs>
		<circle id="SVGID_13_" cx="18.691" cy="18.192" r="18.227"/>
	</defs>
	<clipPath id="SVGID_4_">
		<use xlink:href="#SVGID_13_"  overflow="visible"/>
	</clipPath>
	<g clip-path="url(#SVGID_4_)">
		<g>
			<path fill-rule="evenodd" clip-rule="evenodd" fill="#FDFEFD" d="M18.117,50.58c-10.383,0-20.767-0.007-31.149,0.014
				c-0.784,0.002-1.169-0.011-1.167-1.041c0.042-20.285,0.04-40.57,0.004-60.855c-0.002-0.912,0.245-1.013,1.056-1.012
				c20.861,0.025,41.724,0.028,62.586-0.008c0.911-0.001,1.012,0.245,1.011,1.056c-0.024,20.285-0.027,40.57,0.009,60.855
				c0.001,0.911-0.246,1.014-1.056,1.012C38.979,50.57,28.548,50.58,18.117,50.58z M42.361,18.363
				C42.039,5.567,32.12-5.293,18.91-5.237C6.139-5.183-4.349,4.836-4.568,17.922C-4.792,31.25,5.843,41.725,18.859,41.841
				C31.759,41.956,42.045,31.147,42.361,18.363z"/>
			<path fill-rule="evenodd" clip-rule="evenodd" fill="#E2EEDF" d="M42.361,18.363c-0.316,12.784-10.603,23.593-23.502,23.478
				C5.843,41.725-4.792,31.25-4.568,17.922C-4.349,4.836,6.139-5.183,18.91-5.237C32.12-5.293,42.039,5.567,42.361,18.363z
				 M36.938,18.328c0.01-10.024-7.968-18.024-17.985-18.036C8.949,0.28,0.863,8.299,0.844,18.252
				c-0.021,9.96,8.27,18.218,18.186,18.114C28.979,36.262,36.929,28.255,36.938,18.328z"/>
			<path fill-rule="evenodd" clip-rule="evenodd" fill="#5EA35F" d="M36.938,18.328c-0.01,9.927-7.96,17.934-17.909,18.038
				C9.113,36.47,0.823,28.212,0.844,18.252C0.863,8.299,8.949,0.28,18.953,0.292C28.971,0.304,36.948,8.304,36.938,18.328z
				 M19.853,17.398l0.075,0.08c-0.144,0.845-1.355,1.795,0.432,2.431c-1.938,0.359-2.3,0.612-3.274,2.201
				c0.318,0.442,1.081-0.111,1.311,0.566c-2.602,0.867-2.979,1.15-4.188,2.848c-0.316,0.443-0.392,0.678,0.146,0.988
				c3.974,2.288,9.087-0.045,9.899-3.411c0.852-3.524,0.811-7.026,0.523-10.575c-0.041-0.504-0.276-0.657-0.735-0.637
				c-3.517,0.156-7.027,0.456-10.181,2.177c-3.615,1.973-4.414,7.658-1.626,10.682c0.481,0.521,0.735,0.509,1.225-0.018
				c1.244-1.339,2.187-2.765,1.99-4.697c0.193,0.459,0.388,0.918,0.597,1.414c1.293-0.803,1.825-1.856,1.426-3.625
				c0.642,0.81,1.071,1.002,1.545,0.331C19.228,17.854,19.57,17.647,19.853,17.398z"/>
			<path fill-rule="evenodd" clip-rule="evenodd" fill="#FDFEFD" d="M19.853,17.398c-0.282,0.249-0.625,0.455-0.836,0.755
				c-0.474,0.671-0.903,0.479-1.545-0.331c0.399,1.769-0.133,2.822-1.426,3.625c-0.209-0.496-0.403-0.955-0.597-1.414
				c0.196,1.933-0.746,3.358-1.99,4.697c-0.489,0.526-0.743,0.538-1.225,0.018c-2.788-3.023-1.989-8.709,1.626-10.682
				c3.153-1.721,6.664-2.021,10.181-2.177c0.459-0.021,0.694,0.133,0.735,0.637c0.287,3.549,0.328,7.051-0.523,10.575
				c-0.813,3.366-5.926,5.699-9.899,3.411c-0.538-0.311-0.463-0.545-0.146-0.988c1.209-1.697,1.587-1.98,4.188-2.848
				c-0.229-0.678-0.992-0.124-1.31-0.568c0.974-1.587,1.336-1.84,3.273-2.199c-1.787-0.636-0.575-1.586-0.433-2.432
				c0.135-0.043,0.246-0.162,0.126-0.256C19.91,17.11,19.883,17.292,19.853,17.398z"/>
			<path fill-rule="evenodd" clip-rule="evenodd" fill="#5EA35F" d="M19.853,17.398c0.03-0.106,0.058-0.288,0.2-0.177
				c0.12,0.094,0.009,0.213-0.126,0.256C19.928,17.479,19.853,17.398,19.853,17.398z"/>
		</g>
	</g>
</g>
<g>
	<g>
		<defs>
			<circle id="SVGID_5_" cx="-14.6" cy="64.7" r="18.2"/>
		</defs>
		<clipPath id="SVGID_6_">
			<use xlink:href="#SVGID_5_"  style="overflow:visible;"/>
		</clipPath>
		<g class="st5">
		</g>
	</g>
</g>
<path class="st6" d="M19.9,17.4c-0.3,0.2-0.6,0.5-0.8,0.8c-0.5,0.7-0.9,0.5-1.5-0.3c0.4,1.8-0.1,2.8-1.4,3.6c-0.2-0.5-0.4-1-0.6-1.4
	c0.2,1.9-0.7,3.4-2,4.7c-0.5,0.5-0.7,0.5-1.2,0c-2.8-3-2-8.7,1.6-10.7c3.2-1.7,6.7-2,10.2-2.2c0.5,0,0.7,0.1,0.7,0.6
	c0.3,3.5,0.3,7.1-0.5,10.6c-0.8,3.4-5.9,5.7-9.9,3.4c-0.5-0.3-0.5-0.5-0.1-1c1.2-1.7,1.6-2,4.2-2.8c-0.2-0.7-1-0.1-1.3-0.6
	c1-1.6,1.3-1.8,3.3-2.2C18.6,19.3,19.8,18.3,19.9,17.4c0.2,0,0.3-0.1,0.2-0.2C19.9,17.1,19.9,17.3,19.9,17.4z"/>
	<defs>
		<circle id="SVGID_23_" cx="60.024" cy="-14.864" r="18.226"/>
	</defs>
	<clipPath id="SVGID_6_">
		<use xlink:href="#SVGID_23_"  overflow="visible"/>
	</clipPath>
	<g clip-path="url(#SVGID_6_)">
		<g>
			<path fill-rule="evenodd" clip-rule="evenodd" fill="#FEFEFD" d="M59.449,17.522c-10.383,0-20.767-0.007-31.149,0.014
				c-0.784,0.002-1.169-0.011-1.167-1.041c0.042-20.285,0.04-40.57,0.004-60.855c-0.002-0.912,0.245-1.013,1.056-1.012
				c20.861,0.025,41.724,0.028,62.586-0.008c0.911-0.002,1.012,0.245,1.011,1.056c-0.024,20.285-0.027,40.57,0.009,60.855
				c0.001,0.911-0.246,1.014-1.056,1.012C80.312,17.513,69.88,17.522,59.449,17.522z M60.105,9.446
				c13.277,0.29,24.461-10.987,24.388-24.183C84.42-27.942,73.849-38.35,61.558-39.015C46.834-39.811,36.069-27.769,35.81-15.277
				C35.528-1.825,46.963,9.844,60.105,9.446z"/>
			<path fill-rule="evenodd" clip-rule="evenodd" fill="#F8EEE6" d="M60.105,9.446C46.963,9.844,35.528-1.825,35.81-15.277
				c0.26-12.491,11.024-24.533,25.748-23.737C73.849-38.35,84.42-27.942,84.493-14.736C84.566-1.541,73.383,9.736,60.105,9.446z
				 M60.233-32.744c-10.083-0.023-18.059,7.896-18.125,17.908c-0.063,9.547,7.448,18.17,18.1,18.12
				c10.244-0.048,18.009-8.022,17.943-17.97C78.079-25.652,69.536-32.811,60.233-32.744z"/>
		</g>
	</g>
</g>
<g>
	<defs>
		<circle id="SVGID_27_" cx="-14.557" cy="64.659" r="18.227"/>
	</defs>
	<clipPath id="SVGID_8_">
		<use xlink:href="#SVGID_27_"  overflow="visible"/>
	</clipPath>
	<g clip-path="url(#SVGID_8_)">
		
			<image overflow="visible" width="224" height="217" xlink:href="tipos-pokemon/icon-electrico.png"  transform="matrix(0.2884 0 0 0.2884 -47.7051 33.8838)">
		</image>
	</g>
</g>
</svg>
