<?xml version="1.0" encoding="utf-8"?>
<!-- Generator: Adobe Illustrator 22.0.0, SVG Export Plug-In . SVG Version: 6.00 Build 0)  -->
<svg version="1.1" id="Capa_1" xmlns="http://www.w3.org/2000/svg" xmlns:xlink="http://www.w3.org/1999/xlink" x="0px" y="0px"
	 viewBox="0 0 36.9 36.5" style="enable-background:new 0 0 36.9 36.5;" xml:space="preserve">
<style type="text/css">
	.st0{clip-path:url(#SVGID_2_);}
	.st1{fill:#FEFDFD;}
	.st2{clip-path:url(#SVGID_4_);}
	.st3{fill:#FEFEFD;}
	.st4{fill:#F8EEE6;}
	.st5{clip-path:url(#SVGID_6_);}
	.st6{fill:#FDFEFD;}
</style>
<g>
	<g>
		<defs>
			<circle id="SVGID_1_" cx="-27.8" cy="18.6" r="18.2"/>
		</defs>
		<clipPath id="SVGID_2_">
			<use xlink:href="#SVGID_1_"  style="overflow:visible;"/>
		</clipPath>
		<g class="st0">
			<g>
				<path class="st1" d="M-60.6-11.9c21.2,0,42.3,0,63.5,0c1,0,1.2,0.2,1.2,1.2C4,9.4,4,29.6,4,49.8c0,1-0.2,1.2-1.2,1.2
					c-20.8,0-41.5,0-62.3,0c-1,0-1.2-0.2-1.2-1.2C-60.6,29.3-60.6,8.7-60.6-11.9z M-3.8,19.1C-3.5,5.9-14.7-4.5-26.4-5
					c-14-0.6-25.2,10.6-25.2,23.9c0.1,13.1,10.4,23.9,24,23.9C-14.6,42.9-3.7,31.9-3.8,19.1z"/>
			</g>
		</g>
	</g>
</g>
<g>
	<g>
		<defs>
			<circle id="SVGID_3_" cx="60" cy="-14.9" r="18.2"/>
		</defs>
		<clipPath id="SVGID_4_">
			<use xlink:href="#SVGID_3_"  style="overflow:visible;"/>
		</clipPath>
		<g class="st2">
			<g>
				<path class="st3" d="M59.4,17.5c-10.4,0-20.8,0-31.1,0c-0.8,0-1.2,0-1.2-1c0-20.3,0-40.6,0-60.9c0-0.9,0.2-1,1.1-1
					c20.9,0,41.7,0,62.6,0c0.9,0,1,0.2,1,1.1c0,20.3,0,40.6,0,60.9c0,0.9-0.2,1-1.1,1C80.3,17.5,69.9,17.5,59.4,17.5z M60.1,9.4
					c13.3,0.3,24.5-11,24.4-24.2C84.4-27.9,73.8-38.3,61.6-39c-14.7-0.8-25.5,11.2-25.7,23.7C35.5-1.8,47,9.8,60.1,9.4z"/>
				<path class="st4" d="M60.1,9.4C47,9.8,35.5-1.8,35.8-15.3c0.3-12.5,11-24.5,25.7-23.7c12.3,0.7,22.9,11.1,22.9,24.3
					C84.6-1.5,73.4,9.7,60.1,9.4z M60.2-32.7c-10.1,0-18.1,7.9-18.1,17.9C42-5.3,49.6,3.3,60.2,3.3c10.2,0,18-8,17.9-18
					C78.1-25.7,69.5-32.8,60.2-32.7z"/>
			</g>
		</g>
	</g>
</g>
<g>
	<g>
		<defs>
			<circle id="SVGID_5_" cx="-14.6" cy="64.7" r="18.2"/>
		</defs>
		<clipPath id="SVGID_6_">
			<use xlink:href="#SVGID_5_"  style="overflow:visible;"/>
		</clipPath>
		<g class="st5">
		</g>
	</g>
</g>
<path class="st6" d="M19.9,17.4c-0.3,0.2-0.6,0.5-0.8,0.8c-0.5,0.7-0.9,0.5-1.5-0.3c0.4,1.8-0.1,2.8-1.4,3.6c-0.2-0.5-0.4-1-0.6-1.4
	c0.2,1.9-0.7,3.4-2,4.7c-0.5,0.5-0.7,0.5-1.2,0c-2.8-3-2-8.7,1.6-10.7c3.2-1.7,6.7-2,10.2-2.2c0.5,0,0.7,0.1,0.7,0.6
	c0.3,3.5,0.3,7.1-0.5,10.6c-0.8,3.4-5.9,5.7-9.9,3.4c-0.5-0.3-0.5-0.5-0.1-1c1.2-1.7,1.6-2,4.2-2.8c-0.2-0.7-1-0.1-1.3-0.6
	c1-1.6,1.3-1.8,3.3-2.2C18.6,19.3,19.8,18.3,19.9,17.4c0.2,0,0.3-0.1,0.2-0.2C19.9,17.1,19.9,17.3,19.9,17.4z"/>
</svg>
