<?xml version="1.0" encoding="utf-8"?>
<!-- Generator: Adobe Illustrator 16.0.0, SVG Export Plug-In . SVG Version: 6.00 Build 0)  -->
<!DOCTYPE svg PUBLIC "-//W3C//DTD SVG 1.1//EN" "http://www.w3.org/Graphics/SVG/1.1/DTD/svg11.dtd">
<svg version="1.1" id="Capa_1" xmlns="http://www.w3.org/2000/svg" xmlns:xlink="http://www.w3.org/1999/xlink" x="0px" y="0px"
	 width="36.9px" height="36.5px" viewBox="0 0 36.9 36.5" enable-background="new 0 0 36.9 36.5" xml:space="preserve">
<g>
	<defs>
		<circle id="SVGID_11_" cx="5.224" cy="-27.74" r="18.227"/>
	</defs>
	<clipPath id="SVGID_2_">
		<use xlink:href="#SVGID_11_"  overflow="visible"/>
	</clipPath>
	<g clip-path="url(#SVGID_2_)">
		<g>
			<path fill-rule="evenodd" clip-rule="evenodd" fill="#FEFDFD" d="M-27.636-58.228c21.151,0,42.302,0.009,63.452-0.027
				c0.987-0.002,1.184,0.193,1.182,1.182c-0.037,20.188-0.037,40.378,0,60.567C37,4.481,36.804,4.678,35.816,4.676
				c-20.766-0.037-41.532-0.037-62.298,0c-0.988,0.002-1.184-0.194-1.182-1.182C-27.626-17.079-27.636-37.653-27.636-58.228z
				 M29.183-27.262c0.336-13.14-10.89-23.569-22.619-24.073c-13.951-0.599-25.245,10.645-25.19,23.908
				C-18.573-14.34-8.273-3.575,5.382-3.481C18.401-3.393,29.301-14.452,29.183-27.262z"/>
		</g>
	</g>
</g>
<g>
	<defs>
		<circle id="SVGID_13_" cx="51.69" cy="-28.142" r="18.227"/>
	</defs>
	<clipPath id="SVGID_4_">
		<use xlink:href="#SVGID_13_"  overflow="visible"/>
	</clipPath>
	<g clip-path="url(#SVGID_4_)">
		<g>
			<path fill-rule="evenodd" clip-rule="evenodd" fill="#FDFEFD" d="M51.116,4.246c-10.383,0-20.767-0.007-31.149,0.014
				c-0.784,0.002-1.169-0.011-1.167-1.041c0.042-20.285,0.04-40.57,0.004-60.855c-0.002-0.912,0.245-1.013,1.056-1.012
				c20.861,0.025,41.724,0.028,62.586-0.008c0.911-0.001,1.012,0.245,1.011,1.056c-0.024,20.285-0.027,40.57,0.009,60.855
				c0.001,0.911-0.246,1.014-1.056,1.012C71.979,4.236,61.547,4.246,51.116,4.246z M75.36-27.971
				c-0.322-12.796-10.241-23.656-23.451-23.601C39.138-51.517,28.65-41.498,28.431-28.412C28.207-15.084,38.842-4.609,51.858-4.493
				C64.758-4.378,75.044-15.187,75.36-27.971z"/>
		</g>
	</g>
</g>
<g>
	<defs>
		<circle id="SVGID_27_" cx="18.442" cy="18.325" r="18.227"/>
	</defs>
	<clipPath id="SVGID_6_">
		<use xlink:href="#SVGID_27_"  overflow="visible"/>
	</clipPath>
	<g clip-path="url(#SVGID_6_)">
		
			<image overflow="visible" width="224" height="217" xlink:href="tipos-pokemon/icon-electrico.png"  transform="matrix(0.2884 0 0 0.2884 -14.7061 -12.4502)">
		</image>
	</g>
</g>
</svg>
