<?xml version="1.0" encoding="utf-8"?>
<!-- Generator: Adobe Illustrator 16.0.0, SVG Export Plug-In . SVG Version: 6.00 Build 0)  -->
<!DOCTYPE svg PUBLIC "-//W3C//DTD SVG 1.1//EN" "http://www.w3.org/Graphics/SVG/1.1/DTD/svg11.dtd">
<svg version="1.1" id="Capa_1" xmlns="http://www.w3.org/2000/svg" xmlns:xlink="http://www.w3.org/1999/xlink" x="0px" y="0px"
	 width="36.9px" height="36.5px" viewBox="0 0 36.9 36.5" enable-background="new 0 0 36.9 36.5" xml:space="preserve">
<g>
	<defs>
		<circle id="SVGID_13_" cx="-22.892" cy="51.275" r="18.227"/>
	</defs>
	<clipPath id="SVGID_2_">
		<use xlink:href="#SVGID_13_"  overflow="visible"/>
	</clipPath>
	<g clip-path="url(#SVGID_2_)">
		<g>
			<path fill-rule="evenodd" clip-rule="evenodd" fill="#FDFEFD" d="M-23.466,83.663c-10.383,0-20.767-0.007-31.149,0.014
				c-0.784,0.002-1.169-0.011-1.167-1.041c0.042-20.285,0.04-40.57,0.004-60.855c-0.002-0.912,0.245-1.013,1.056-1.012
				c20.861,0.025,41.724,0.028,62.586-0.008c0.911-0.001,1.012,0.245,1.011,1.056C8.85,42.102,8.847,62.387,8.883,82.672
				c0.001,0.911-0.246,1.014-1.056,1.012C-2.604,83.653-13.035,83.663-23.466,83.663z M0.778,51.446
				C0.456,38.65-9.463,27.79-22.673,27.846C-35.444,27.9-45.932,37.919-46.151,51.005c-0.224,13.328,10.411,23.803,23.428,23.919
				C-9.824,75.039,0.462,64.23,0.778,51.446z"/>
			<path fill-rule="evenodd" clip-rule="evenodd" fill="#E2EEDF" d="M0.778,51.446C0.462,64.23-9.824,75.039-22.724,74.924
				c-13.017-0.116-23.651-10.591-23.428-23.919c0.22-13.086,10.707-23.104,23.479-23.159C-9.463,27.79,0.456,38.65,0.778,51.446z
				 M-4.645,51.411c0.01-10.024-7.968-18.024-17.985-18.036c-10.004-0.012-18.09,8.007-18.109,17.96
				c-0.021,9.96,8.27,18.218,18.186,18.114C-12.604,69.345-4.654,61.338-4.645,51.411z"/>
		</g>
	</g>
</g>
<g>
	<defs>
		<circle id="SVGID_23_" cx="18.441" cy="18.219" r="18.226"/>
	</defs>
	<clipPath id="SVGID_4_">
		<use xlink:href="#SVGID_23_"  overflow="visible"/>
	</clipPath>
	<g clip-path="url(#SVGID_4_)">
		<g>
			<path fill-rule="evenodd" clip-rule="evenodd" fill="#FEFEFD" d="M17.866,50.605c-10.383,0-20.767-0.007-31.149,0.014
				c-0.784,0.002-1.169-0.011-1.167-1.041c0.042-20.285,0.04-40.57,0.004-60.855c-0.002-0.912,0.245-1.013,1.056-1.012
				c20.861,0.025,41.724,0.028,62.586-0.008c0.911-0.002,1.012,0.245,1.011,1.056c-0.024,20.285-0.027,40.57,0.009,60.855
				c0.001,0.911-0.246,1.014-1.056,1.012C38.729,50.596,28.297,50.605,17.866,50.605z M18.522,42.529
				C31.8,42.819,42.983,31.542,42.91,18.347C42.837,5.141,32.266-5.267,19.975-5.932C5.251-6.728-5.514,5.314-5.773,17.806
				C-6.055,31.258,5.38,42.927,18.522,42.529z"/>
			<path fill-rule="evenodd" clip-rule="evenodd" fill="#F8EEE6" d="M18.522,42.529C5.38,42.927-6.055,31.258-5.773,17.806
				C-5.514,5.314,5.251-6.728,19.975-5.932C32.266-5.267,42.837,5.141,42.91,18.347C42.983,31.542,31.8,42.819,18.522,42.529z
				 M18.65,0.339C8.567,0.315,0.592,8.235,0.525,18.247c-0.063,9.547,7.448,18.17,18.1,18.12
				c10.244-0.048,18.009-8.022,17.943-17.97C36.496,7.431,27.953,0.272,18.65,0.339z"/>
			<path fill-rule="evenodd" clip-rule="evenodd" fill="#DB9953" d="M18.65,0.339c9.303-0.066,17.846,7.092,17.918,18.059
				c0.065,9.947-7.699,17.922-17.943,17.97c-10.651,0.05-18.163-8.573-18.1-18.12C0.592,8.235,8.567,0.315,18.65,0.339z
				 M21.192,14.865c0.126,0.532,0.299,1.02,0.346,1.518c0.06,0.627-0.3,1.008-0.93,1.033c-0.58,0.022-0.908-0.345-0.922-0.889
				c-0.013-0.474,0.102-0.951,0.167-1.426c0.26-1.894-0.371-3.437-1.93-4.897c0,0.407-0.022,0.58,0.004,0.744
				c0.315,2.022-0.37,3.552-2.141,4.635c-1.16,0.71-2.104,1.671-2.731,2.908c-0.104,0.207-0.316,0.567-0.401,0.546
				c-1.259-0.315-0.968,0.775-1.043,1.272c-0.397,2.652,0.515,4.799,2.725,6.36c1.952,1.38,4.766,1.428,6.604,0.062
				c-1.032-0.213-2.049-0.003-3.012-0.339c-1.372-0.479-2.345-1.541-2.244-3.158c0.06-0.962,0.757-1.914,1.631-2.491
				c0.528-0.35,1.212-0.294,1.779,0.087c0.609,0.409,0.864,0.985,0.793,1.734c-0.026,0.279-0.465,0.567-0.043,0.863
				c0.892-0.117,0.913-1.099,1.518-1.623c0.51,1.206,0.206,2.146-0.548,3.044c1.925-0.104,3.578-1.754,3.964-3.836
				C25.213,18.666,23.596,15.848,21.192,14.865z"/>
			<path fill-rule="evenodd" clip-rule="evenodd" fill="#FEFEFD" d="M21.192,14.865c2.403,0.982,4.021,3.801,3.586,6.147
				c-0.386,2.082-2.039,3.732-3.964,3.836c0.754-0.898,1.058-1.838,0.548-3.044c-0.604,0.524-0.626,1.506-1.518,1.623
				c-0.422-0.296,0.017-0.584,0.043-0.863c0.071-0.749-0.184-1.325-0.793-1.734c-0.567-0.381-1.251-0.437-1.779-0.087
				c-0.874,0.577-1.571,1.529-1.631,2.491c-0.101,1.617,0.872,2.68,2.244,3.158c0.963,0.336,1.979,0.126,3.012,0.339
				c-1.839,1.366-4.652,1.318-6.604-0.062c-2.21-1.562-3.122-3.708-2.725-6.36c0.075-0.497-0.216-1.588,1.043-1.272
				c0.085,0.021,0.297-0.339,0.401-0.546c0.628-1.237,1.571-2.198,2.731-2.908c1.771-1.083,2.456-2.612,2.141-4.635
				c-0.026-0.164-0.004-0.337-0.004-0.744c1.559,1.461,2.189,3.004,1.93,4.897c-0.065,0.475-0.18,0.952-0.167,1.426
				c0.014,0.544,0.342,0.911,0.922,0.889c0.63-0.025,0.989-0.406,0.93-1.033C21.491,15.885,21.318,15.397,21.192,14.865z"/>
		</g>
	</g>
</g>
</svg>
