<?xml version="1.0" encoding="utf-8"?>
<!-- Generator: Adobe Illustrator 16.0.0, SVG Export Plug-In . SVG Version: 6.00 Build 0)  -->
<!DOCTYPE svg PUBLIC "-//W3C//DTD SVG 1.1//EN" "http://www.w3.org/Graphics/SVG/1.1/DTD/svg11.dtd">
<svg version="1.1" id="Capa_1" xmlns="http://www.w3.org/2000/svg" xmlns:xlink="http://www.w3.org/1999/xlink" x="0px" y="0px"
	 width="36.9px" height="36.5px" viewBox="0 0 36.9 36.5" enable-background="new 0 0 36.9 36.5" xml:space="preserve">
<g>
	<defs>
		<circle id="SVGID_19_" cx="18.417" cy="18.507" r="18.226"/>
	</defs>
	<clipPath id="SVGID_2_">
		<use xlink:href="#SVGID_19_"  overflow="visible"/>
	</clipPath>
	<g clip-path="url(#SVGID_2_)">
		<g>
			<path fill-rule="evenodd" clip-rule="evenodd" fill="#FEFEFE" d="M17.854,50.606c-10.425,0-20.851-0.011-31.276,0.021
				c-0.823,0.003-1.05-0.121-1.048-1.018c0.035-20.178,0.036-40.355,0-60.533c-0.001-0.959,0.289-1.076,1.132-1.075
				C7.56-11.975,28.458-11.975,49.357-12c0.869-0.002,1.121,0.155,1.119,1.088c-0.033,20.13-0.036,40.26,0.005,60.39
				c0.002,1.035-0.271,1.157-1.208,1.154C38.801,50.593,28.328,50.606,17.854,50.606z"/>
			<path fill-rule="evenodd" clip-rule="evenodd" fill="#EDF5F4" d="M18.708-5.635C31.243-6.142,43.665,5.255,42.97,19.805
				c-0.596,12.471-11.012,23.233-24.303,23.212C4.889,42.993-5.802,32.03-5.747,18.326C-5.693,5.326,5.419-6.073,18.708-5.635z"/>
			<path fill-rule="evenodd" clip-rule="evenodd" fill="#DEECEB" d="M-2.041,18.63C-2.05,6.979,7.406-2.13,18.574-2.104
				c12.06,0.028,20.84,9.562,20.792,20.757c-0.05,11.559-9.413,20.898-21.184,20.674C7.26,39.118-2.099,29.991-2.041,18.63z"/>
			<path fill-rule="evenodd" clip-rule="evenodd" fill="#73B1AC" d="M0.826,16.54C1.615,9.51,5.419,4.603,11.818,1.944
				c10.329-4.29,21.756,1.694,24.323,12.555c0.379,1.606,0.612,3.28,0.436,4.961c-0.323,0.7-0.941,0.915-1.64,0.99
				c-0.622,0.067-1.248,0.052-1.872,0.052c-9.8,0.002-19.6,0.001-29.399,0.001c-0.48,0-0.961-0.018-1.441-0.015
				c-1.135,0.009-1.706-0.451-1.53-1.665C0.804,18.069,0.568,17.29,0.826,16.54z"/>
			<path fill-rule="evenodd" clip-rule="evenodd" fill="#80B8B6" d="M0.826,16.54c0.083,3.494,0.083,3.494,3.58,3.494
				c9.948,0,19.896-0.007,29.844,0.013c0.846,0.001,1.618-0.124,2.327-0.587c-0.129,5.075-2.239,9.245-5.936,12.613
				c-3.275,2.984-7.242,4.503-11.628,4.607c-4.341,0.104-8.336-1.235-11.701-4.025c-4.635-3.844-6.857-8.854-6.744-14.885
				C0.576,17.348,0.487,16.896,0.826,16.54z"/>
		</g>
	</g>
</g>
</svg>
