<?xml version="1.0" encoding="utf-8"?>
<!-- Generator: Adobe Illustrator 16.0.0, SVG Export Plug-In . SVG Version: 6.00 Build 0)  -->
<!DOCTYPE svg PUBLIC "-//W3C//DTD SVG 1.1//EN" "http://www.w3.org/Graphics/SVG/1.1/DTD/svg11.dtd">
<svg version="1.1" id="Capa_1" xmlns="http://www.w3.org/2000/svg" xmlns:xlink="http://www.w3.org/1999/xlink" x="0px" y="0px"
	 width="36.9px" height="36.5px" viewBox="0 0 36.9 36.5" enable-background="new 0 0 36.9 36.5" xml:space="preserve">
<g>
	<defs>
		<circle id="SVGID_17_" cx="18.514" cy="18.429" r="18.226"/>
	</defs>
	<clipPath id="SVGID_2_">
		<use xlink:href="#SVGID_17_"  overflow="visible"/>
	</clipPath>
	<g clip-path="url(#SVGID_2_)">
		<g>
			<path fill-rule="evenodd" clip-rule="evenodd" fill="#FEFEFE" d="M18.13,50.528c-10.425,0-20.85-0.011-31.275,0.021
				c-0.886,0.002-1.236-0.042-1.234-1.127c0.045-20.129,0.039-40.26,0.012-60.389c-0.001-0.874,0.163-1.119,1.091-1.117
				c20.898,0.032,41.797,0.035,62.696-0.006c1.037-0.002,1.154,0.273,1.152,1.208c-0.031,20.082-0.032,40.164,0.002,60.245
				c0.001,0.964-0.158,1.199-1.168,1.194C38.981,50.51,28.556,50.528,18.13,50.528z"/>
			<path fill-rule="evenodd" clip-rule="evenodd" fill="#F8ECEE" d="M43.626,18.585c-0.031,14.007-11.13,24.985-24.875,24.956
				C4.592,43.51-6.206,32.428-6.194,18.594C-6.183,4.873,4.845-6.766,19.647-6.27C32.652-5.833,43.518,4.66,43.626,18.585z"/>
			<path fill-rule="evenodd" clip-rule="evenodd" fill="#F3DDE0" d="M40.454,18.707c0.326,11.296-9.874,22.081-22.225,21.734
				c-11.397-0.32-21.547-9.875-21.315-22.4C-2.881,6.954,6.798-3.813,20.141-3.151C30.394-2.644,40.874,6.962,40.454,18.707z"/>
			<path fill-rule="evenodd" clip-rule="evenodd" fill="#F1D5DA" d="M39.012,18.741c-0.109,11.24-9.119,20.16-20.253,20.194
				C7.561,38.97-1.584,29.938-1.593,18.64C-1.601,7.737,7.259-2.091,19.563-1.656C29.924-1.29,39.063,7.377,39.012,18.741z"/>
			<path fill-rule="evenodd" clip-rule="evenodd" fill="#EECDD3" d="M38.146,18.713c-0.203,10.794-8.745,19.406-19.328,19.306
				c-11.566-0.11-19.555-8.686-19.47-19.554C-0.566,7.519,8.06-0.898,19.008-0.766C29.539-0.638,37.997,7.8,38.146,18.713z"/>
			<path fill-rule="evenodd" clip-rule="evenodd" fill="#C4484E" d="M36.463,15.9c0.89,5.007-0.337,9.523-3.33,13.547
				c-4.421,5.94-11.864,8.478-19.081,6.618C7.131,34.281,1.929,28.33,0.885,21.063c-0.249-1.729-0.319-3.435,0.087-5.143
				c0.286-0.286,0.649-0.404,1.035-0.415c2.66-0.068,5.321-0.072,7.981,0.002c0.648,0.018,1.212,0.246,1.494,0.901
				c0.24,0.643-0.048,1.215-0.245,1.804c-1.154,3.455,0.19,6.8,3.371,8.576c5.103,2.85,12.492-0.372,12.194-7.209
				c-0.035-0.813-0.028-1.631,0.01-2.444c0.027-0.567,0-1.178,0.647-1.487c2.695-0.373,5.397-0.166,8.097-0.126
				C35.897,15.527,36.189,15.705,36.463,15.9z"/>
			<path fill-rule="evenodd" clip-rule="evenodd" fill="#C3455E" d="M11.33,16.803c-0.238-0.802-0.827-0.905-1.571-0.897
				c-2.929,0.032-5.858,0.015-8.787,0.016C1.751,10.326,4.645,6.083,9.42,3.197c10.462-6.324,23.871-0.718,26.812,11.146
				c0.126,0.507,0.156,1.037,0.231,1.557c-3.084,0.007-6.169,0.014-9.253,0.02c-0.118-0.087-0.25-0.197-0.256-0.333
				c-0.069-1.753-0.918-2.631-2.725-2.546c-0.493,0.023-0.878-0.352-1.262-0.642c-0.39-0.295-0.815-0.565-1.313-0.512
				c-0.908,0.1-1.713-0.074-2.41-0.683c-0.071-0.062-0.172-0.126-0.258-0.119c-1.501,0.115-2.954-0.066-4.445-0.338
				c-0.934-0.171-1.311,0.931-1.372,1.865c-0.117,1.041,0.256,2.167-0.532,3.092C12.235,16.11,12.056,16.781,11.33,16.803z"/>
			<path fill-rule="evenodd" clip-rule="evenodd" fill="#FEFEFE" d="M12.8,12.4c0.288-2.098,1.524-2.746,3.257-1.648
				c0.464,0.295,0.816,0.419,1.294,0.111c0.237-0.151,0.627-0.391,0.775-0.302c1.644,0.987,3.801,0.456,5.296,1.794
				c0.308,0.275,0.542,0.437,0.977,0.424c2.218-0.063,2.687,0.394,2.753,2.571c0.006,0.19,0.037,0.38,0.057,0.569
				c-0.019,1.535-0.039,3.07-0.056,4.605c-0.046,4.366-4.04,7.902-8.706,7.71c-4.83-0.198-8.331-3.818-8.066-8.292
				c0.067-1.138,0.559-2.116,0.948-3.141c0.293-0.372,0.586-0.745,0.879-1.117c0.314-0.094,0.449,0.112,0.491,0.352
				c0.154,0.867-0.052,1.739,0.146,2.343C12.473,16.561,13.2,14.489,12.8,12.4z"/>
			<path fill-rule="evenodd" clip-rule="evenodd" fill="#CC6C7B" d="M12.8,12.4c0.462,2.14,0.192,4.292,0.272,6.726
				c-0.909-1.222-0.07-2.513-0.862-3.44C13.22,14.736,12.526,13.481,12.8,12.4z"/>
		</g>
	</g>
</g>
</svg>
