<?xml version="1.0" encoding="utf-8"?>
<!-- Generator: Adobe Illustrator 22.0.0, SVG Export Plug-In . SVG Version: 6.00 Build 0)  -->
<svg version="1.1" id="Capa_1" xmlns="http://www.w3.org/2000/svg" xmlns:xlink="http://www.w3.org/1999/xlink" x="0px" y="0px"
	 viewBox="0 0 36.9 36.5" style="enable-background:new 0 0 36.9 36.5;" xml:space="preserve">
<style type="text/css">
	.st0{fill:none;}
	.st1{fill:#FEFEFE;}
</style>
<circle class="st0" cx="18.5" cy="18.4" r="18.2"/>
<path class="st1" d="M12.8,12.4c0.3-2.1,1.5-2.7,3.3-1.6c0.5,0.3,0.8,0.4,1.3,0.1c0.2-0.2,0.6-0.4,0.8-0.3c1.6,1,3.8,0.5,5.3,1.8
	c0.3,0.3,0.5,0.4,1,0.4c2.2-0.1,2.7,0.4,2.8,2.6c0,0.2,0,0.4,0.1,0.6c0,1.5,0,3.1-0.1,4.6c0,4.4-4,7.9-8.7,7.7
	c-4.8-0.2-8.3-3.8-8.1-8.3c0.1-1.1,0.6-2.1,0.9-3.1c0.3-0.4,0.6-0.7,0.9-1.1c0.3-0.1,0.4,0.1,0.5,0.4c0.2,0.9-0.1,1.7,0.1,2.3
	C12.5,16.6,13.2,14.5,12.8,12.4z"/>
</svg>
