<?xml version="1.0" encoding="utf-8"?>
<!-- Generator: Adobe Illustrator 22.0.0, SVG Export Plug-In . SVG Version: 6.00 Build 0)  -->
<svg version="1.1" id="Capa_1" xmlns="http://www.w3.org/2000/svg" xmlns:xlink="http://www.w3.org/1999/xlink" x="0px" y="0px"
	 viewBox="0 0 36.9 36.5" style="enable-background:new 0 0 36.9 36.5;" xml:space="preserve">
<style type="text/css">
	.st0{fill:#FDFDFE;}
</style>
<g>
	<path class="st0" d="M27.2,18.6c0,4.7-3.6,8.4-8.3,8.4c-4.7,0-8.4-3.7-8.4-8.4c0-4.9,4-8.4,8.3-8.4C23.5,10.2,27.2,13.9,27.2,18.6z
		 M22.3,17.4c-0.1-0.2-0.1-0.5-0.3-0.7c-0.3-0.3-0.5,0.1-0.6,0.3c-0.3,0.3-0.6,0.4-1,0.5c-0.9,0.1-0.6,0.5-0.2,0.9
		c0.4,0.4,0.9,0.4,1.3,0.2C22,18.4,22.3,18,22.3,17.4z M17.6,17.6c-0.6-0.3-1.2-0.1-1.7-0.7c-0.6-0.7-0.8-0.1-0.9,0.3
		c-0.1,0.6,0.2,1.1,0.8,1.3C16.7,18.8,17.3,18.5,17.6,17.6z"/>
</g>
</svg>
