<?xml version="1.0" encoding="utf-8"?>
<!-- Generator: Adobe Illustrator 16.0.0, SVG Export Plug-In . SVG Version: 6.00 Build 0)  -->
<!DOCTYPE svg PUBLIC "-//W3C//DTD SVG 1.1//EN" "http://www.w3.org/Graphics/SVG/1.1/DTD/svg11.dtd">
<svg version="1.1" id="Capa_1" xmlns="http://www.w3.org/2000/svg" xmlns:xlink="http://www.w3.org/1999/xlink" x="0px" y="0px"
	 width="36.9px" height="36.5px" viewBox="0 0 36.9 36.5" enable-background="new 0 0 36.9 36.5" xml:space="preserve">
<g>
	<defs>
		<circle id="SVGID_25_" cx="18.718" cy="18.496" r="18.226"/>
	</defs>
	<clipPath id="SVGID_2_">
		<use xlink:href="#SVGID_25_"  overflow="visible"/>
	</clipPath>
	<g clip-path="url(#SVGID_2_)">
		<g>
			<path fill-rule="evenodd" clip-rule="evenodd" fill="#FDFDFE" d="M18.287,50.596c-10.431,0-20.862-0.007-31.293,0.014
				c-0.784,0.002-1.169-0.011-1.167-1.041c0.042-20.189,0.04-40.379,0.003-60.567c-0.001-0.912,0.246-1.013,1.055-1.012
				c20.959,0.025,41.917,0.028,62.875-0.008c0.912-0.001,1.013,0.245,1.011,1.056c-0.024,20.188-0.027,40.378,0.009,60.567
				c0.002,0.911-0.245,1.014-1.056,1.012C39.246,50.586,28.767,50.596,18.287,50.596z M41.813,18.631
				C42.19,6.422,31.479-4.127,19.704-4.491C6.255-4.908-4.242,6.08-4.292,18.406C-4.346,31.465,6.353,41.188,18.035,41.694
				C30.973,42.255,42.313,30.589,41.813,18.631z"/>
			<path fill-rule="evenodd" clip-rule="evenodd" fill="#E2E3EE" d="M41.813,18.631c0.499,11.958-10.841,23.624-23.778,23.063
				C6.353,41.188-4.346,31.465-4.292,18.406C-4.242,6.08,6.255-4.908,19.704-4.491C31.479-4.127,42.19,6.422,41.813,18.631z
				 M18.675,36.582C28.7,36.646,36.868,28.666,36.888,18.71C36.908,8.023,27.99,0.566,18.979,0.58
				C8.895,0.595,0.854,8.431,0.8,18.424C0.744,28.521,8.618,36.519,18.675,36.582z"/>
			<path fill-rule="evenodd" clip-rule="evenodd" fill="#5E67A6" d="M18.675,36.582C8.618,36.519,0.744,28.521,0.8,18.424
				C0.854,8.431,8.895,0.595,18.979,0.58c9.011-0.014,17.929,7.443,17.908,18.13C36.868,28.666,28.7,36.646,18.675,36.582z
				 M27.177,18.582c-0.013-4.704-3.719-8.371-8.428-8.371c-4.38-0.001-8.348,3.539-8.35,8.447c-0.002,4.659,3.766,8.377,8.433,8.358
				C23.554,26.999,27.189,23.323,27.177,18.582z"/>
			<path fill-rule="evenodd" clip-rule="evenodd" fill="#FDFDFE" d="M27.177,18.582c0.013,4.741-3.623,8.417-8.345,8.435
				c-4.667,0.019-8.435-3.699-8.433-8.358c0.002-4.908,3.97-8.448,8.35-8.447C23.458,10.211,27.164,13.878,27.177,18.582z
				 M22.338,17.36c-0.069-0.168-0.114-0.487-0.296-0.671c-0.341-0.345-0.454,0.106-0.627,0.272c-0.29,0.279-0.621,0.42-1.022,0.457
				c-0.945,0.088-0.571,0.544-0.214,0.915c0.371,0.384,0.866,0.397,1.341,0.232C22.021,18.392,22.258,17.985,22.338,17.36z
				 M17.552,17.563c-0.56-0.252-1.237-0.095-1.675-0.66c-0.576-0.743-0.766-0.113-0.851,0.339c-0.122,0.643,0.217,1.142,0.82,1.309
				C16.679,18.78,17.333,18.537,17.552,17.563z"/>
			<path fill-rule="evenodd" clip-rule="evenodd" fill="#5E67A6" d="M22.338,17.36c-0.08,0.625-0.317,1.031-0.818,1.206
				c-0.475,0.165-0.97,0.151-1.341-0.232c-0.357-0.371-0.731-0.827,0.214-0.915c0.401-0.037,0.732-0.178,1.022-0.457
				c0.173-0.166,0.286-0.617,0.627-0.272C22.224,16.873,22.269,17.192,22.338,17.36z"/>
			<path fill-rule="evenodd" clip-rule="evenodd" fill="#5E67A6" d="M17.552,17.563c-0.219,0.974-0.873,1.217-1.705,0.987
				c-0.604-0.167-0.942-0.666-0.82-1.309c0.085-0.452,0.274-1.082,0.851-0.339C16.314,17.469,16.992,17.312,17.552,17.563z"/>
		</g>
	</g>
</g>
</svg>
